<?xml version="1.0" encoding="UTF-8" standalone="no"?>
<svg
   xmlns:dc="http://purl.org/dc/elements/1.1/"
   xmlns:cc="http://creativecommons.org/ns#"
   xmlns:rdf="http://www.w3.org/1999/02/22-rdf-syntax-ns#"
   xmlns:svg="http://www.w3.org/2000/svg"
   xmlns="http://www.w3.org/2000/svg"
   xmlns:xlink="http://www.w3.org/1999/xlink"
   xmlns:sodipodi="http://sodipodi.sourceforge.net/DTD/sodipodi-0.dtd"
   xmlns:inkscape="http://www.inkscape.org/namespaces/inkscape"
   width="249.74939mm"
   height="52.706097mm"
   viewBox="0 0 249.74939 52.706097"
   version="1.1"
   id="svg2351"
   inkscape:version="1.0 (4035a4fb49, 2020-05-01)"
   sodipodi:docname="5white.svg">
  <defs
     id="defs2345">
    <linearGradient
       inkscape:collect="always"
       id="linearGradient1355">
      <stop
         style="stop-color:#ffffff;stop-opacity:1"
         offset="0"
         id="stop1351" />
      <stop
         style="stop-color:#e5e5e5;stop-opacity:1"
         offset="1"
         id="stop1353" />
    </linearGradient>
    <linearGradient
       y2="769.9801"
       x2="1809.6805"
       y1="641.49994"
       x1="1938.1605"
       gradientTransform="matrix(0.53684616,0,0,0.53684616,816.77803,386.64546)"
       gradientUnits="userSpaceOnUse"
       id="linearGradient2944"
       xlink:href="#linearGradient1355"
       inkscape:collect="always" />
  </defs>
  <sodipodi:namedview
     id="base"
     pagecolor="#ffffff"
     bordercolor="#666666"
     borderopacity="1.0"
     inkscape:pageopacity="0.0"
     inkscape:pageshadow="2"
     inkscape:zoom="0.24748737"
     inkscape:cx="663.39654"
     inkscape:cy="33.888326"
     inkscape:document-units="mm"
     inkscape:current-layer="layer1"
     inkscape:document-rotation="0"
     showgrid="false"
     fit-margin-top="0"
     fit-margin-left="0"
     fit-margin-right="0"
     fit-margin-bottom="0"
     inkscape:window-width="1920"
     inkscape:window-height="1027"
     inkscape:window-x="1352"
     inkscape:window-y="-8"
     inkscape:window-maximized="1" />
  <metadata
     id="metadata2348">
    <rdf:RDF>
      <cc:Work
         rdf:about="">
        <dc:format>image/svg+xml</dc:format>
        <dc:type
           rdf:resource="http://purl.org/dc/dcmitype/StillImage" />
        <dc:title></dc:title>
      </cc:Work>
    </rdf:RDF>
  </metadata>
  <g
     inkscape:label="Layer 1"
     inkscape:groupmode="layer"
     id="layer1"
     transform="translate(-24324.893,25253.24)">
    <g
       style="fill:#ffffff;fill-opacity:1"
       id="g856">
      <g
         style="fill:#ffffff;fill-opacity:1"
         id="g2307"
         transform="matrix(0.424258,0,0,0.424258,23771.837,-25560.211)">
        <path
           d="m 1840.195,775.52802 -6.937,6.936 3.5357,3.53571 3.4013,-3.40136 3.4014,3.40136 3.5352,-3.53518 z m -10.4722,10.47118 -6.9376,6.93705 17.4098,17.40824 1.7679,-1.76784 15.6404,-15.6404 -6.9365,-6.93652 -3.5352,3.53517 3.4013,3.40135 -10.3379,10.33786 -10.3378,-10.33786 3.4013,-3.40135 z"
           style="color:#000000;font-style:normal;font-variant:normal;font-weight:normal;font-stretch:normal;font-size:medium;line-height:normal;font-family:sans-serif;font-variant-ligatures:normal;font-variant-position:normal;font-variant-caps:normal;font-variant-numeric:normal;font-variant-alternates:normal;font-variant-east-asian:normal;font-feature-settings:normal;font-variation-settings:normal;text-indent:0;text-align:start;text-decoration:none;text-decoration-line:none;text-decoration-style:solid;text-decoration-color:#000000;letter-spacing:normal;word-spacing:normal;text-transform:none;writing-mode:lr-tb;direction:ltr;text-orientation:mixed;dominant-baseline:auto;baseline-shift:baseline;text-anchor:start;white-space:normal;shape-padding:0;shape-margin:0;inline-size:0;clip-rule:nonzero;display:inline;overflow:visible;visibility:visible;opacity:1;isolation:auto;mix-blend-mode:normal;color-interpolation:sRGB;color-interpolation-filters:linearRGB;solid-color:#000000;solid-opacity:1;vector-effect:none;fill:#ffffff;fill-opacity:1;fill-rule:nonzero;stroke:none;stroke-width:4.99999;stroke-linecap:square;stroke-linejoin:miter;stroke-miterlimit:4;stroke-dasharray:none;stroke-dashoffset:0;stroke-opacity:1;color-rendering:auto;image-rendering:auto;shape-rendering:auto;text-rendering:auto;enable-background:accumulate;stop-color:#000000;stop-opacity:1"
           id="path2258" />
        <path
           d="m 1874.9299,740.8738 -17.3266,17.32814 6.8946,6.89467 3.5358,-3.53623 -3.36,-3.3605 10.2562,-10.2557 10.2557,10.25776 -10.2557,10.2557 -3.3605,-3.36053 -3.5352,3.53521 6.8957,6.8957 1.7673,-1.76787 15.5603,-15.55821 z"
           style="color:#000000;font-style:normal;font-variant:normal;font-weight:normal;font-stretch:normal;font-size:medium;line-height:normal;font-family:sans-serif;font-variant-ligatures:normal;font-variant-position:normal;font-variant-caps:normal;font-variant-numeric:normal;font-variant-alternates:normal;font-variant-east-asian:normal;font-feature-settings:normal;font-variation-settings:normal;text-indent:0;text-align:start;text-decoration:none;text-decoration-line:none;text-decoration-style:solid;text-decoration-color:#000000;letter-spacing:normal;word-spacing:normal;text-transform:none;writing-mode:lr-tb;direction:ltr;text-orientation:mixed;dominant-baseline:auto;baseline-shift:baseline;text-anchor:start;white-space:normal;shape-padding:0;shape-margin:0;inline-size:0;clip-rule:nonzero;display:inline;overflow:visible;visibility:visible;opacity:1;isolation:auto;mix-blend-mode:normal;color-interpolation:sRGB;color-interpolation-filters:linearRGB;solid-color:#000000;solid-opacity:1;vector-effect:none;fill:#ffffff;fill-opacity:1;fill-rule:nonzero;stroke:none;stroke-width:4.99999;stroke-linecap:square;stroke-linejoin:miter;stroke-miterlimit:4;stroke-dasharray:none;stroke-dashoffset:0;stroke-opacity:1;color-rendering:auto;image-rendering:auto;shape-rendering:auto;text-rendering:auto;enable-background:accumulate;stop-color:#000000;stop-opacity:1"
           id="path2263" />
        <path
           d="m 1788.1326,723.54771 -17.3281,17.32609 17.3281,17.32814 1.7679,-1.76993 5.1268,-5.12681 -3.5352,-3.5352 -3.3595,3.35949 -10.2578,-10.25569 10.2578,-10.25623 10.2562,10.25623 -3.3605,3.35999 3.5352,3.53518 6.8957,-6.89517 z"
           style="color:#000000;font-style:normal;font-variant:normal;font-weight:normal;font-stretch:normal;font-size:medium;line-height:normal;font-family:sans-serif;font-variant-ligatures:normal;font-variant-position:normal;font-variant-caps:normal;font-variant-numeric:normal;font-variant-alternates:normal;font-variant-east-asian:normal;font-feature-settings:normal;font-variation-settings:normal;text-indent:0;text-align:start;text-decoration:none;text-decoration-line:none;text-decoration-style:solid;text-decoration-color:#000000;letter-spacing:normal;word-spacing:normal;text-transform:none;writing-mode:lr-tb;direction:ltr;text-orientation:mixed;dominant-baseline:auto;baseline-shift:baseline;text-anchor:start;white-space:normal;shape-padding:0;shape-margin:0;inline-size:0;clip-rule:nonzero;display:inline;overflow:visible;visibility:visible;opacity:1;isolation:auto;mix-blend-mode:normal;color-interpolation:sRGB;color-interpolation-filters:linearRGB;solid-color:#000000;solid-opacity:1;vector-effect:none;fill:#ffffff;fill-opacity:1;fill-rule:nonzero;stroke:none;stroke-width:4.99999;stroke-linecap:square;stroke-linejoin:miter;stroke-miterlimit:4;stroke-dasharray:none;stroke-dashoffset:0;stroke-opacity:1;color-rendering:auto;image-rendering:auto;shape-rendering:auto;text-rendering:auto;enable-background:accumulate;stop-color:#000000;stop-opacity:1"
           id="path2253" />
      </g>
      <g
         aria-label="Artwork Hub"
         id="text2298"
         style="font-size:27.2719px;line-height:1.25;font-family:'Techna Sans';-inkscape-font-specification:'Techna Sans';fill:#ffffff;fill-opacity:1;stroke-width:0.14204">
        <path
           d="m 24385.654,-25216.852 h 3.709 l 1.418,-4.281 h 7.2 l 1.391,4.281 h 3.872 l -6.381,-18.763 h -4.746 z m 6.136,-7.363 2.618,-7.909 2.564,7.909 z"
           style="fill:#ffffff;fill-opacity:1;stroke-width:0.14204"
           id="path3377" />
        <path
           d="m 24412.905,-25226.642 0.655,-3.518 c -0.382,-0.409 -1.009,-0.628 -1.636,-0.628 -1.964,0 -3.082,1.391 -3.682,3.191 l -0.03,-2.972 h -3.328 v 13.717 h 3.518 v -6.79 c 0,-2.564 1.146,-3.437 2.809,-3.437 0.6,0 1.228,0.164 1.691,0.437 z"
           style="fill:#ffffff;fill-opacity:1;stroke-width:0.14204"
           id="path3379" />
        <path
           d="m 24419.23,-25230.569 v -2.973 h -1.064 l -4.309,5.045 v 0.764 h 1.855 v 6.6 c 0,2.754 1.582,4.445 4.745,4.445 0.955,0 2.073,-0.218 2.618,-0.654 v -2.837 c -0.491,0.246 -1.118,0.382 -1.582,0.382 -1.527,0 -2.263,-0.6 -2.263,-2.1 v -5.836 h 3.736 v -2.836 z"
           style="fill:#ffffff;fill-opacity:1;stroke-width:0.14204"
           id="path3381" />
        <path
           d="m 24427.501,-25216.852 h 3.791 l 2.727,-9.163 2.673,9.163 h 3.79 l 3.627,-13.717 h -3.545 l -2.045,9.572 -2.7,-9.572 h -3.464 l -2.7,9.627 -2.1,-9.627 h -3.627 z"
           style="fill:#ffffff;fill-opacity:1;stroke-width:0.14204"
           id="path3383" />
        <path
           d="m 24452.234,-25227.951 c 2.509,0 3.818,1.963 3.818,4.227 0,2.263 -1.309,4.254 -3.818,4.254 -2.509,0 -3.818,-1.991 -3.818,-4.254 0,-2.264 1.309,-4.227 3.818,-4.227 z m 0,-3.055 c -4.636,0 -7.363,3.191 -7.363,7.282 0,4.118 2.727,7.309 7.363,7.309 4.636,0 7.363,-3.191 7.363,-7.309 0,-4.091 -2.727,-7.282 -7.363,-7.282 z"
           style="fill:#ffffff;fill-opacity:1;stroke-width:0.14204"
           id="path3385" />
        <path
           d="m 24469.793,-25226.642 0.654,-3.518 c -0.381,-0.409 -1.009,-0.628 -1.636,-0.628 -1.964,0 -3.082,1.391 -3.682,3.191 l -0.03,-2.972 h -3.327 v 13.717 h 3.518 v -6.79 c 0,-2.564 1.145,-3.437 2.809,-3.437 0.6,0 1.227,0.164 1.691,0.437 z"
           style="fill:#ffffff;fill-opacity:1;stroke-width:0.14204"
           id="path3387" />
        <path
           d="m 24471.949,-25216.852 h 3.518 v -6.545 l 4.99,6.545 h 4.391 l -5.645,-7.254 5.591,-6.463 h -4.228 l -5.099,5.945 v -11.809 h -3.518 z"
           style="fill:#ffffff;fill-opacity:1;stroke-width:0.14204"
           id="path3389" />
        <path
           d="m 24490.889,-25216.852 h 3.654 v -8.018 h 7.855 v 8.018 h 3.654 v -18.763 h -3.654 v 7.473 h -7.855 v -7.473 h -3.654 z"
           style="fill:#ffffff;fill-opacity:1;stroke-width:0.14204"
           id="path3391" />
        <path
           d="m 24521.125,-25230.569 h -3.518 v 7.663 c 0,2.155 -0.982,3.164 -2.646,3.164 -1.609,0 -2.372,-1.064 -2.372,-2.646 v -8.181 h -3.518 v 9.027 c 0,2.972 1.718,4.936 4.636,4.936 2.045,0 3.409,-1.091 4.036,-2.509 l 0.03,2.263 h 3.355 z"
           style="fill:#ffffff;fill-opacity:1;stroke-width:0.14204"
           id="path3393" />
        <path
           d="m 24531.321,-25219.579 c -2.4,0 -3.654,-1.827 -3.654,-4.118 0,-2.291 1.254,-4.145 3.654,-4.145 2.4,0 3.682,1.854 3.682,4.145 0,2.291 -1.282,4.118 -3.682,4.118 z m 0.9,3.027 c 3.9,0 6.327,-3.109 6.327,-7.145 0,-4.063 -2.427,-7.172 -6.272,-7.172 -2.182,0 -3.818,1.091 -4.609,2.672 v -8.236 h -3.518 v 19.581 h 3.409 l 0.03,-2.536 c 0.736,1.664 2.318,2.836 4.636,2.836 z"
           style="fill:#ffffff;fill-opacity:1;stroke-width:0.14204"
           id="path3395" />
      </g>
      <path
         d="m 24350.784,-25252.314 -25.891,25.89 12.862,12.862 3.254,-3.254 -2.648,-2.649 12.423,-12.422 12.421,12.422 -12.422,12.422 -3.254,3.254 3.255,3.255 25.89,-25.89 -12.946,-12.945 -3.254,3.254 9.691,9.691 -2.986,2.985 -16.395,-16.396 -16.396,16.396 -2.986,-2.985 19.382,-19.381 -0.08,-0.08 3.254,-3.255 z m 0,25.738 -4.966,4.965 4.966,4.966 4.965,-4.966 z"
         inkscape:transform-center-x="4.1574351e-06"
         style="fill:#ffffff;fill-opacity:1;stroke:none;stroke-width:8.42981;stroke-linecap:square;stroke-miterlimit:4;stroke-dasharray:none;stroke-opacity:1"
         id="path2323" />
    </g>
  </g>
</svg>
