<svg
  xmlns="http://www.w3.org/2000/svg"
  width="456"
  height="28"
  viewBox="0 0 456 28"
  fill="none"
>
  <rect width="456" height="28" fill="url(#paint0_linear_26007_26985)" />
  <path
    d="M26.1523 12.953C26.0229 12.6979 25.8664 12.4515 25.6831 12.2503C25.5547 12.1039 25.4174 11.9666 25.2982 11.8294C25.0416 11.5549 24.7403 11.3435 24.4301 11.141C23.7182 10.6626 22.9268 10.4102 22.0735 10.3113C21.5562 10.261 21.0395 10.2832 20.5329 10.4053C20.4334 10.4315 20.343 10.4669 20.2344 10.484C20.3244 10.4123 20.4144 10.3407 20.4954 10.278C20.8106 10.0543 21.1445 9.88522 21.506 9.76175C22.4638 9.40824 23.433 9.29968 24.432 9.45438C25.2221 9.57986 25.9594 9.86806 26.6345 10.2917C26.7166 10.3378 26.7896 10.3929 26.8535 10.4389C26.9083 10.4757 26.9449 10.5123 27.0175 10.513C27.0356 10.5132 27.0539 10.5315 27.0631 10.5406C27.1819 10.6415 27.3189 10.7426 27.4469 10.8526C27.4559 10.8437 27.4739 10.8257 27.4829 10.8167C27.5096 10.7716 27.5457 10.7538 27.6093 10.7635C27.6637 10.764 27.7002 10.7825 27.7368 10.8192C27.7917 10.8741 27.8558 10.9382 27.9108 10.9931C27.9657 11.0481 28.0025 11.1028 28.0213 11.1755C28.04 11.2301 28.0226 11.3025 28.0593 11.3573C28.0685 11.3664 28.0505 11.3844 28.0416 11.3934C28.1053 11.4212 28.1241 11.4939 28.0704 11.5659C28.1426 11.5304 28.1431 11.5848 28.1798 11.6214C28.2257 11.6853 28.135 11.6844 28.1264 11.7297C28.1445 11.7299 28.1535 11.7209 28.1717 11.7211C28.2078 11.7033 28.2259 11.7035 28.2535 11.7491C28.2812 11.7947 28.2724 11.8218 28.2365 11.8577C28.2275 11.8667 28.2187 11.8938 28.2097 11.9028L28.2188 11.9119C28.2278 11.903 28.246 11.9031 28.2549 11.8942C28.2909 11.8582 28.3273 11.8767 28.3458 11.9132C28.3734 11.9588 28.3736 11.9769 28.3285 12.0037C28.3196 12.0127 28.3106 12.0216 28.3016 12.0306C28.2926 12.0396 28.2928 12.0577 28.2928 12.0577C28.3019 12.0669 28.3109 12.0579 28.3201 12.0671C28.3201 12.0671 28.3291 12.0581 28.3472 12.0583C28.4374 12.0047 28.4374 12.0047 28.4928 12.1141C28.4659 12.141 28.4298 12.1588 28.4028 12.1858L28.412 12.1949C28.4481 12.1771 28.4842 12.1593 28.5203 12.1415C28.5388 12.178 28.5662 12.2055 28.5756 12.2328C28.5757 12.2509 28.5307 12.2777 28.5037 12.3046C28.5037 12.3046 28.5129 12.3138 28.5039 12.3227C28.522 12.3229 28.54 12.305 28.5581 12.3051C28.5853 12.2963 28.6032 12.2784 28.6212 12.2604C28.6486 12.2879 28.6671 12.3243 28.6946 12.3518C28.6677 12.3787 28.6316 12.3965 28.6046 12.4235C28.6321 12.4509 28.6321 12.4509 28.7492 12.3704C28.7767 12.3979 28.7951 12.4344 28.8226 12.4618C28.7957 12.4888 28.7687 12.5157 28.7326 12.5335C28.7418 12.5427 28.7418 12.5427 28.7509 12.5518C28.796 12.525 28.823 12.4981 28.868 12.4713C28.8955 12.4988 28.9048 12.5261 28.9323 12.5536C28.9054 12.5805 28.8874 12.5985 28.8694 12.6164C28.8694 12.6164 28.8786 12.6256 28.8696 12.6346C28.8878 12.6347 28.9059 12.6349 28.9149 12.6259C28.9961 12.5814 28.9961 12.5814 29.0603 12.6636C29.0513 12.6726 29.0334 12.6906 29.0336 12.7087C29.0336 12.7087 29.0336 12.7087 29.0427 12.7178C29.0607 12.6999 29.0788 12.7001 29.0968 12.6821C29.1419 12.6553 29.2056 12.6831 29.2151 12.7286C29.2153 12.7467 29.2063 12.7557 29.1975 12.7828C29.1975 12.7828 29.1975 12.7828 29.2066 12.792C29.2516 12.7471 29.288 12.7655 29.3156 12.8112C29.334 12.8295 29.3704 12.848 29.3977 12.8573C29.425 12.8666 29.4523 12.8759 29.4886 12.8763C29.5611 12.877 29.6249 12.9048 29.6618 12.9777C29.671 12.9869 29.6801 12.996 29.6893 13.0052C29.7347 13.0147 29.7441 13.042 29.7354 13.0872C29.8173 13.1152 29.8724 13.1883 29.8548 13.2425C29.9001 13.2339 29.9365 13.2524 29.9189 13.3066L29.928 13.3158C29.9645 13.3343 29.9828 13.3526 29.956 13.3977C30.0015 13.4072 30.0379 13.4257 30.0203 13.4799C30.0839 13.4896 30.0932 13.5169 30.0756 13.5711C30.121 13.5806 30.1483 13.5899 30.1488 13.6444C30.1488 13.6444 30.149 13.6625 30.158 13.6535C30.2034 13.663 30.2038 13.6993 30.2041 13.7356C30.2587 13.7542 30.277 13.7725 30.2594 13.8268C30.323 13.8365 30.3413 13.8548 30.3237 13.909C30.3783 13.9277 30.4429 14.0462 30.4342 14.0914C30.4434 14.1006 30.4615 14.1008 30.4615 14.1008C30.4892 14.1464 30.517 14.2101 30.5446 14.2557C30.5631 14.2922 30.5906 14.3196 30.6091 14.3561C30.6184 14.3834 30.6277 14.4107 30.6461 14.429C30.6552 14.4381 30.6735 14.4564 30.6829 14.4837C30.7015 14.5383 30.7202 14.5929 30.7478 14.6385C30.7663 14.675 30.7939 14.7206 30.8124 14.757C30.8401 14.8026 30.8496 14.8481 30.8772 14.8937C30.8959 14.9483 30.9327 15.003 30.9513 15.0576C30.9978 15.1759 31.0533 15.2853 31.0906 15.3945C31.1188 15.4945 31.1561 15.6036 31.1932 15.6947C31.1934 15.7128 31.2026 15.722 31.2027 15.7401C31.1853 15.8125 31.2131 15.8762 31.2681 15.9312C31.2955 15.9586 31.314 15.9951 31.3325 16.0315C31.3601 16.0771 31.3607 16.1316 31.3158 16.1765C31.2888 16.2034 31.2892 16.2397 31.3346 16.2492C31.4165 16.2772 31.4626 16.3592 31.4814 16.432C31.4908 16.4593 31.4548 16.4952 31.4371 16.5313C31.4282 16.5584 31.4193 16.5674 31.4013 16.5853C31.4286 16.5947 31.4378 16.6038 31.465 16.6132C31.5832 16.6415 31.6568 16.751 31.6216 16.8595C31.6217 16.8776 31.6038 16.8956 31.5948 16.9046C31.5407 16.9403 31.5411 16.9766 31.5957 16.9953C31.6503 17.0139 31.6869 17.0506 31.7237 17.1053C31.7513 17.1509 31.7427 17.1962 31.7069 17.2502C31.6622 17.3133 31.6624 17.3314 31.7261 17.3592C31.8265 17.4237 31.8543 17.4874 31.8284 17.6232C31.802 17.7046 31.7756 17.7859 31.7491 17.8673C31.7315 17.9215 31.6863 17.9301 31.6317 17.9115C31.641 17.9388 31.6504 17.9661 31.6597 17.9934C31.6692 18.0388 31.6787 18.0842 31.6609 18.1203C31.5989 18.2739 31.5369 18.4274 31.4749 18.581C31.3509 18.8881 31.2996 19.2141 31.2484 19.54C31.2315 19.6668 31.1862 19.6754 31.0768 19.62C30.9856 19.5647 30.8853 19.5003 30.7941 19.445C30.7757 19.4267 30.7576 19.4265 30.7213 19.4261C30.5489 19.4154 30.3857 19.4138 30.2223 19.3941C30.1224 19.3841 30.0222 19.3378 29.9221 19.2915C29.64 19.189 29.4475 18.9786 29.2818 18.7231C29.153 18.5224 29.0963 18.2861 29.103 18.0413C29.1016 17.8962 29.1546 17.7516 29.1713 17.6067C29.1883 17.4799 29.2325 17.3625 29.3131 17.2635C29.3848 17.1735 29.4021 17.083 29.4373 16.9745C29.4725 16.866 29.4533 16.757 29.4433 16.6572C29.4324 16.4667 29.3402 16.3025 29.1938 16.1742C29.1116 16.1099 29.0202 16.0365 28.938 15.9722C28.9105 15.9448 28.8922 15.9265 28.8919 15.8902C28.8913 15.8358 28.8818 15.7903 28.8905 15.7451C28.9333 15.4825 28.8676 15.2552 28.7475 15.0273C28.6921 14.918 28.6187 14.8266 28.5361 14.7261C28.426 14.598 28.2894 14.5333 28.1348 14.4864C28.0621 14.4676 28.0621 14.4676 28.0703 14.3861C28.0874 14.2774 28.1045 14.1688 28.1035 14.0599C28.1012 13.8241 27.9995 13.6146 27.8346 13.4498C27.7797 13.3949 27.7068 13.3579 27.6339 13.3209C27.4062 13.219 27.1697 13.1442 26.9074 13.2051C26.7355 13.2488 26.5819 13.3108 26.447 13.4274C26.375 13.4811 26.3296 13.4716 26.2746 13.4167C26.1919 13.298 26.1091 13.1793 26.0896 13.034C26.0984 13.0069 26.0981 12.9706 26.1523 12.953ZM30.95 18.6848C30.9767 18.6397 31.0394 18.5587 31.084 18.4775C31.1999 18.27 31.2157 18.0344 31.1591 17.7981C31.1307 17.68 31.0842 17.5616 30.9929 17.4882C30.8008 17.3141 30.5914 17.2304 30.3375 17.228C30.1108 17.2349 29.912 17.3055 29.741 17.4399C29.4892 17.6551 29.374 17.9351 29.3953 18.2618C29.396 18.3343 29.4148 18.407 29.4518 18.4799C29.5719 18.7078 29.7548 18.8728 30.0003 18.9386C30.3368 19.0416 30.6442 18.9539 30.95 18.6848Z"
    fill="#F41795"
  />
  <path
    d="M54.377 9.46875V18H52.918V9.46875H54.377ZM57.0547 9.46875V10.6406H50.2637V9.46875H57.0547ZM59.0352 12.8672V18H57.623V11.6602H58.9707L59.0352 12.8672ZM60.9746 11.6191L60.9629 12.9316C60.877 12.916 60.7832 12.9043 60.6816 12.8965C60.584 12.8887 60.4863 12.8848 60.3887 12.8848C60.1465 12.8848 59.9336 12.9199 59.75 12.9902C59.5664 13.0566 59.4121 13.1543 59.2871 13.2832C59.166 13.4082 59.0723 13.5605 59.0059 13.7402C58.9395 13.9199 58.9004 14.1211 58.8887 14.3438L58.5664 14.3672C58.5664 13.9688 58.6055 13.5996 58.6836 13.2598C58.7617 12.9199 58.8789 12.6211 59.0352 12.3633C59.1953 12.1055 59.3945 11.9043 59.6328 11.7598C59.875 11.6152 60.1543 11.543 60.4707 11.543C60.5566 11.543 60.6484 11.5508 60.7461 11.5664C60.8477 11.582 60.9238 11.5996 60.9746 11.6191ZM65.2227 16.7285V13.7051C65.2227 13.4785 65.1816 13.2832 65.0996 13.1191C65.0176 12.9551 64.8926 12.8281 64.7246 12.7383C64.5605 12.6484 64.3535 12.6035 64.1035 12.6035C63.873 12.6035 63.6738 12.6426 63.5059 12.7207C63.3379 12.7988 63.207 12.9043 63.1133 13.0371C63.0195 13.1699 62.9727 13.3203 62.9727 13.4883H61.5664C61.5664 13.2383 61.627 12.9961 61.748 12.7617C61.8691 12.5273 62.0449 12.3184 62.2754 12.1348C62.5059 11.9512 62.7812 11.8066 63.1016 11.7012C63.4219 11.5957 63.7812 11.543 64.1797 11.543C64.6562 11.543 65.0781 11.623 65.4453 11.7832C65.8164 11.9434 66.1074 12.1855 66.3184 12.5098C66.5332 12.8301 66.6406 13.2324 66.6406 13.7168V16.5352C66.6406 16.8242 66.6602 17.084 66.6992 17.3145C66.7422 17.541 66.8027 17.7383 66.8809 17.9062V18H65.4336C65.3672 17.8477 65.3145 17.6543 65.2754 17.4199C65.2402 17.1816 65.2227 16.9512 65.2227 16.7285ZM65.4277 14.1445L65.4395 15.0176H64.4258C64.1641 15.0176 63.9336 15.043 63.7344 15.0938C63.5352 15.1406 63.3691 15.2109 63.2363 15.3047C63.1035 15.3984 63.0039 15.5117 62.9375 15.6445C62.8711 15.7773 62.8379 15.9277 62.8379 16.0957C62.8379 16.2637 62.877 16.418 62.9551 16.5586C63.0332 16.6953 63.1465 16.8027 63.2949 16.8809C63.4473 16.959 63.6309 16.998 63.8457 16.998C64.1348 16.998 64.3867 16.9395 64.6016 16.8223C64.8203 16.7012 64.9922 16.5547 65.1172 16.3828C65.2422 16.207 65.3086 16.041 65.3164 15.8848L65.7734 16.5117C65.7266 16.6719 65.6465 16.8438 65.5332 17.0273C65.4199 17.2109 65.2715 17.3867 65.0879 17.5547C64.9082 17.7188 64.6914 17.8535 64.4375 17.959C64.1875 18.0645 63.8984 18.1172 63.5703 18.1172C63.1562 18.1172 62.7871 18.0352 62.4629 17.8711C62.1387 17.7031 61.8848 17.4785 61.7012 17.1973C61.5176 16.9121 61.4258 16.5898 61.4258 16.2305C61.4258 15.8945 61.4883 15.5977 61.6133 15.3398C61.7422 15.0781 61.9297 14.8594 62.1758 14.6836C62.4258 14.5078 62.7305 14.375 63.0898 14.2852C63.4492 14.1914 63.8594 14.1445 64.3203 14.1445H65.4277ZM71.9844 16.6875V9H73.4023V18H72.1191L71.9844 16.6875ZM67.8594 14.9004V14.7773C67.8594 14.2969 67.916 13.8594 68.0293 13.4648C68.1426 13.0664 68.3066 12.7246 68.5215 12.4395C68.7363 12.1504 68.998 11.9297 69.3066 11.7773C69.6152 11.6211 69.9629 11.543 70.3496 11.543C70.7324 11.543 71.0684 11.6172 71.3574 11.7656C71.6465 11.9141 71.8926 12.127 72.0957 12.4043C72.2988 12.6777 72.4609 13.0059 72.582 13.3887C72.7031 13.7676 72.7891 14.1895 72.8398 14.6543V15.0469C72.7891 15.5 72.7031 15.9141 72.582 16.2891C72.4609 16.6641 72.2988 16.9883 72.0957 17.2617C71.8926 17.5352 71.6445 17.7461 71.3516 17.8945C71.0625 18.043 70.7246 18.1172 70.3379 18.1172C69.9551 18.1172 69.6094 18.0371 69.3008 17.877C68.9961 17.7168 68.7363 17.4922 68.5215 17.2031C68.3066 16.9141 68.1426 16.5742 68.0293 16.1836C67.916 15.7891 67.8594 15.3613 67.8594 14.9004ZM69.2715 14.7773V14.9004C69.2715 15.1895 69.2969 15.459 69.3477 15.709C69.4023 15.959 69.4863 16.1797 69.5996 16.3711C69.7129 16.5586 69.8594 16.707 70.0391 16.8164C70.2227 16.9219 70.4414 16.9746 70.6953 16.9746C71.0156 16.9746 71.2793 16.9043 71.4863 16.7637C71.6934 16.623 71.8555 16.4336 71.9727 16.1953C72.0938 15.9531 72.1758 15.6836 72.2188 15.3867V14.3262C72.1953 14.0957 72.1465 13.8809 72.0723 13.6816C72.002 13.4824 71.9062 13.3086 71.7852 13.1602C71.6641 13.0078 71.5137 12.8906 71.334 12.8086C71.1582 12.7227 70.9492 12.6797 70.707 12.6797C70.4492 12.6797 70.2305 12.7344 70.0508 12.8438C69.8711 12.9531 69.7227 13.1035 69.6055 13.2949C69.4922 13.4863 69.4082 13.709 69.3535 13.9629C69.2988 14.2168 69.2715 14.4883 69.2715 14.7773ZM77.6738 18.1172C77.2051 18.1172 76.7812 18.041 76.4023 17.8887C76.0273 17.7324 75.707 17.5156 75.4414 17.2383C75.1797 16.9609 74.9785 16.6348 74.8379 16.2598C74.6973 15.8848 74.627 15.4805 74.627 15.0469V14.8125C74.627 14.3164 74.6992 13.8672 74.8438 13.4648C74.9883 13.0625 75.1895 12.7188 75.4473 12.4336C75.7051 12.1445 76.0098 11.9238 76.3613 11.7715C76.7129 11.6191 77.0938 11.543 77.5039 11.543C77.957 11.543 78.3535 11.6191 78.6934 11.7715C79.0332 11.9238 79.3145 12.1387 79.5371 12.416C79.7637 12.6895 79.9316 13.0156 80.041 13.3945C80.1543 13.7734 80.2109 14.1914 80.2109 14.6484V15.252H75.3125V14.2383H78.8164V14.127C78.8086 13.873 78.7578 13.6348 78.6641 13.4121C78.5742 13.1895 78.4355 13.0098 78.248 12.873C78.0605 12.7363 77.8105 12.668 77.498 12.668C77.2637 12.668 77.0547 12.7188 76.8711 12.8203C76.6914 12.918 76.541 13.0605 76.4199 13.248C76.2988 13.4355 76.2051 13.6621 76.1387 13.9277C76.0762 14.1895 76.0449 14.4844 76.0449 14.8125V15.0469C76.0449 15.3242 76.082 15.582 76.1562 15.8203C76.2344 16.0547 76.3477 16.2598 76.4961 16.4355C76.6445 16.6113 76.8242 16.75 77.0352 16.8516C77.2461 16.9492 77.4863 16.998 77.7559 16.998C78.0957 16.998 78.3984 16.9297 78.6641 16.793C78.9297 16.6562 79.1602 16.4629 79.3555 16.2129L80.0996 16.9336C79.9629 17.1328 79.7852 17.3242 79.5664 17.5078C79.3477 17.6875 79.0801 17.834 78.7637 17.9473C78.4512 18.0605 78.0879 18.1172 77.6738 18.1172ZM87.8574 16.2832C87.8574 16.1426 87.8223 16.0156 87.752 15.9023C87.6816 15.7852 87.5469 15.6797 87.3477 15.5859C87.1523 15.4922 86.8633 15.4062 86.4805 15.3281C86.1445 15.2539 85.8359 15.166 85.5547 15.0645C85.2773 14.959 85.0391 14.832 84.8398 14.6836C84.6406 14.5352 84.4863 14.3594 84.377 14.1562C84.2676 13.9531 84.2129 13.7188 84.2129 13.4531C84.2129 13.1953 84.2695 12.9512 84.3828 12.7207C84.4961 12.4902 84.6582 12.2871 84.8691 12.1113C85.0801 11.9355 85.3359 11.7969 85.6367 11.6953C85.9414 11.5938 86.2812 11.543 86.6562 11.543C87.1875 11.543 87.6426 11.6328 88.0215 11.8125C88.4043 11.9883 88.6973 12.2285 88.9004 12.5332C89.1035 12.834 89.2051 13.1738 89.2051 13.5527H87.793C87.793 13.3848 87.75 13.2285 87.6641 13.084C87.582 12.9355 87.457 12.8164 87.2891 12.7266C87.1211 12.6328 86.9102 12.5859 86.6562 12.5859C86.4141 12.5859 86.2129 12.625 86.0527 12.7031C85.8965 12.7773 85.7793 12.875 85.7012 12.9961C85.627 13.1172 85.5898 13.25 85.5898 13.3945C85.5898 13.5 85.6094 13.5957 85.6484 13.6816C85.6914 13.7637 85.7617 13.8398 85.8594 13.9102C85.957 13.9766 86.0898 14.0391 86.2578 14.0977C86.4297 14.1562 86.6445 14.2129 86.9023 14.2676C87.3867 14.3691 87.8027 14.5 88.1504 14.6602C88.502 14.8164 88.7715 15.0195 88.959 15.2695C89.1465 15.5156 89.2402 15.8281 89.2402 16.207C89.2402 16.4883 89.1797 16.7461 89.0586 16.9805C88.9414 17.2109 88.7695 17.4121 88.543 17.584C88.3164 17.752 88.0449 17.8828 87.7285 17.9766C87.416 18.0703 87.0645 18.1172 86.6738 18.1172C86.0996 18.1172 85.6133 18.0156 85.2148 17.8125C84.8164 17.6055 84.5137 17.3418 84.3066 17.0215C84.1035 16.6973 84.002 16.3613 84.002 16.0137H85.3672C85.3828 16.2754 85.4551 16.4844 85.584 16.6406C85.7168 16.793 85.8809 16.9043 86.0762 16.9746C86.2754 17.041 86.4805 17.0742 86.6914 17.0742C86.9453 17.0742 87.1582 17.041 87.3301 16.9746C87.502 16.9043 87.6328 16.8105 87.7227 16.6934C87.8125 16.5723 87.8574 16.4355 87.8574 16.2832ZM91.9004 9V18H90.4824V9H91.9004ZM95.8379 11.6602L93.0781 14.7188L91.5664 16.2656L91.1973 15.0703L92.3398 13.6582L94.1328 11.6602H95.8379ZM94.4375 18L92.3809 15.0234L93.2715 14.0332L96.0723 18H94.4375ZM98.2461 11.6602V18H96.8281V11.6602H98.2461ZM96.7344 9.99609C96.7344 9.78125 96.8047 9.60352 96.9453 9.46289C97.0898 9.31836 97.2891 9.24609 97.543 9.24609C97.793 9.24609 97.9902 9.31836 98.1348 9.46289C98.2793 9.60352 98.3516 9.78125 98.3516 9.99609C98.3516 10.207 98.2793 10.3828 98.1348 10.5234C97.9902 10.6641 97.793 10.7344 97.543 10.7344C97.2891 10.7344 97.0898 10.6641 96.9453 10.5234C96.8047 10.3828 96.7344 10.207 96.7344 9.99609ZM101.193 13.0137V18H99.7812V11.6602H101.111L101.193 13.0137ZM100.941 14.5957L100.484 14.5898C100.488 14.1406 100.551 13.7285 100.672 13.3535C100.797 12.9785 100.969 12.6562 101.188 12.3867C101.41 12.1172 101.676 11.9102 101.984 11.7656C102.293 11.6172 102.637 11.543 103.016 11.543C103.32 11.543 103.596 11.5859 103.842 11.6719C104.092 11.7539 104.305 11.8887 104.48 12.0762C104.66 12.2637 104.797 12.5078 104.891 12.8086C104.984 13.1055 105.031 13.4707 105.031 13.9043V18H103.613V13.8984C103.613 13.5938 103.568 13.3535 103.479 13.1777C103.393 12.998 103.266 12.8711 103.098 12.7969C102.934 12.7188 102.729 12.6797 102.482 12.6797C102.24 12.6797 102.023 12.7305 101.832 12.832C101.641 12.9336 101.479 13.0723 101.346 13.248C101.217 13.4238 101.117 13.627 101.047 13.8574C100.977 14.0879 100.941 14.334 100.941 14.5957ZM110.029 16.2832C110.029 16.1426 109.994 16.0156 109.924 15.9023C109.854 15.7852 109.719 15.6797 109.52 15.5859C109.324 15.4922 109.035 15.4062 108.652 15.3281C108.316 15.2539 108.008 15.166 107.727 15.0645C107.449 14.959 107.211 14.832 107.012 14.6836C106.812 14.5352 106.658 14.3594 106.549 14.1562C106.439 13.9531 106.385 13.7188 106.385 13.4531C106.385 13.1953 106.441 12.9512 106.555 12.7207C106.668 12.4902 106.83 12.2871 107.041 12.1113C107.252 11.9355 107.508 11.7969 107.809 11.6953C108.113 11.5938 108.453 11.543 108.828 11.543C109.359 11.543 109.814 11.6328 110.193 11.8125C110.576 11.9883 110.869 12.2285 111.072 12.5332C111.275 12.834 111.377 13.1738 111.377 13.5527H109.965C109.965 13.3848 109.922 13.2285 109.836 13.084C109.754 12.9355 109.629 12.8164 109.461 12.7266C109.293 12.6328 109.082 12.5859 108.828 12.5859C108.586 12.5859 108.385 12.625 108.225 12.7031C108.068 12.7773 107.951 12.875 107.873 12.9961C107.799 13.1172 107.762 13.25 107.762 13.3945C107.762 13.5 107.781 13.5957 107.82 13.6816C107.863 13.7637 107.934 13.8398 108.031 13.9102C108.129 13.9766 108.262 14.0391 108.43 14.0977C108.602 14.1562 108.816 14.2129 109.074 14.2676C109.559 14.3691 109.975 14.5 110.322 14.6602C110.674 14.8164 110.943 15.0195 111.131 15.2695C111.318 15.5156 111.412 15.8281 111.412 16.207C111.412 16.4883 111.352 16.7461 111.23 16.9805C111.113 17.2109 110.941 17.4121 110.715 17.584C110.488 17.752 110.217 17.8828 109.9 17.9766C109.588 18.0703 109.236 18.1172 108.846 18.1172C108.271 18.1172 107.785 18.0156 107.387 17.8125C106.988 17.6055 106.686 17.3418 106.479 17.0215C106.275 16.6973 106.174 16.3613 106.174 16.0137H107.539C107.555 16.2754 107.627 16.4844 107.756 16.6406C107.889 16.793 108.053 16.9043 108.248 16.9746C108.447 17.041 108.652 17.0742 108.863 17.0742C109.117 17.0742 109.33 17.041 109.502 16.9746C109.674 16.9043 109.805 16.8105 109.895 16.6934C109.984 16.5723 110.029 16.4355 110.029 16.2832Z"
    fill="white"
  />
  <path d="M128.695 13.2129V14.3438H120.721V13.2129H128.695Z" fill="white" />
  <path
    d="M140.449 16.5938L141.914 11.6602H142.816L142.57 13.1367L141.094 18H140.285L140.449 16.5938ZM139.588 11.6602L140.73 16.6172L140.824 18H139.922L138.205 11.6602H139.588ZM144.188 16.5586L145.295 11.6602H146.672L144.961 18H144.059L144.188 16.5586ZM142.969 11.6602L144.416 16.5352L144.598 18H143.789L142.295 13.1309L142.049 11.6602H142.969ZM149.145 11.6602V18H147.727V11.6602H149.145ZM147.633 9.99609C147.633 9.78125 147.703 9.60352 147.844 9.46289C147.988 9.31836 148.188 9.24609 148.441 9.24609C148.691 9.24609 148.889 9.31836 149.033 9.46289C149.178 9.60352 149.25 9.78125 149.25 9.99609C149.25 10.207 149.178 10.3828 149.033 10.5234C148.889 10.6641 148.691 10.7344 148.441 10.7344C148.188 10.7344 147.988 10.6641 147.844 10.5234C147.703 10.3828 147.633 10.207 147.633 9.99609ZM153.598 11.6602V12.6914H150.023V11.6602H153.598ZM151.055 10.1074H152.467V16.248C152.467 16.4434 152.494 16.5938 152.549 16.6992C152.607 16.8008 152.688 16.8691 152.789 16.9043C152.891 16.9395 153.01 16.957 153.146 16.957C153.244 16.957 153.338 16.9512 153.428 16.9395C153.518 16.9277 153.59 16.916 153.645 16.9043L153.65 17.9824C153.533 18.0176 153.396 18.0488 153.24 18.0762C153.088 18.1035 152.912 18.1172 152.713 18.1172C152.389 18.1172 152.102 18.0605 151.852 17.9473C151.602 17.8301 151.406 17.6406 151.266 17.3789C151.125 17.1172 151.055 16.7695 151.055 16.3359V10.1074ZM156.082 9V18H154.676V9H156.082ZM155.836 14.5957L155.379 14.5898C155.383 14.1523 155.443 13.748 155.561 13.377C155.682 13.0059 155.85 12.6836 156.064 12.4102C156.283 12.1328 156.545 11.9199 156.85 11.7715C157.154 11.6191 157.492 11.543 157.863 11.543C158.176 11.543 158.457 11.5859 158.707 11.6719C158.961 11.7578 159.18 11.8965 159.363 12.0879C159.547 12.2754 159.686 12.5215 159.779 12.8262C159.877 13.127 159.926 13.4941 159.926 13.9277V18H158.508V13.916C158.508 13.6113 158.463 13.3691 158.373 13.1895C158.287 13.0098 158.16 12.8809 157.992 12.8027C157.824 12.7207 157.619 12.6797 157.377 12.6797C157.123 12.6797 156.898 12.7305 156.703 12.832C156.512 12.9336 156.352 13.0723 156.223 13.248C156.094 13.4238 155.996 13.627 155.93 13.8574C155.867 14.0879 155.836 14.334 155.836 14.5957ZM165.744 13.0137V18H164.332V11.6602H165.662L165.744 13.0137ZM165.492 14.5957L165.035 14.5898C165.039 14.1406 165.102 13.7285 165.223 13.3535C165.348 12.9785 165.52 12.6562 165.738 12.3867C165.961 12.1172 166.227 11.9102 166.535 11.7656C166.844 11.6172 167.188 11.543 167.566 11.543C167.871 11.543 168.146 11.5859 168.393 11.6719C168.643 11.7539 168.855 11.8887 169.031 12.0762C169.211 12.2637 169.348 12.5078 169.441 12.8086C169.535 13.1055 169.582 13.4707 169.582 13.9043V18H168.164V13.8984C168.164 13.5938 168.119 13.3535 168.029 13.1777C167.943 12.998 167.816 12.8711 167.648 12.7969C167.484 12.7188 167.279 12.6797 167.033 12.6797C166.791 12.6797 166.574 12.7305 166.383 12.832C166.191 12.9336 166.029 13.0723 165.896 13.248C165.768 13.4238 165.668 13.627 165.598 13.8574C165.527 14.0879 165.492 14.334 165.492 14.5957ZM170.754 14.9004V14.7656C170.754 14.3086 170.82 13.8848 170.953 13.4941C171.086 13.0996 171.277 12.7578 171.527 12.4688C171.781 12.1758 172.09 11.9492 172.453 11.7891C172.82 11.625 173.234 11.543 173.695 11.543C174.16 11.543 174.574 11.625 174.938 11.7891C175.305 11.9492 175.615 12.1758 175.869 12.4688C176.123 12.7578 176.316 13.0996 176.449 13.4941C176.582 13.8848 176.648 14.3086 176.648 14.7656V14.9004C176.648 15.3574 176.582 15.7812 176.449 16.1719C176.316 16.5625 176.123 16.9043 175.869 17.1973C175.615 17.4863 175.307 17.7129 174.943 17.877C174.58 18.0371 174.168 18.1172 173.707 18.1172C173.242 18.1172 172.826 18.0371 172.459 17.877C172.096 17.7129 171.787 17.4863 171.533 17.1973C171.279 16.9043 171.086 16.5625 170.953 16.1719C170.82 15.7812 170.754 15.3574 170.754 14.9004ZM172.166 14.7656V14.9004C172.166 15.1855 172.195 15.4551 172.254 15.709C172.312 15.9629 172.404 16.1855 172.529 16.377C172.654 16.5684 172.814 16.7188 173.01 16.8281C173.205 16.9375 173.438 16.9922 173.707 16.9922C173.969 16.9922 174.195 16.9375 174.387 16.8281C174.582 16.7188 174.742 16.5684 174.867 16.377C174.992 16.1855 175.084 15.9629 175.143 15.709C175.205 15.4551 175.236 15.1855 175.236 14.9004V14.7656C175.236 14.4844 175.205 14.2188 175.143 13.9688C175.084 13.7148 174.99 13.4902 174.861 13.2949C174.736 13.0996 174.576 12.9473 174.381 12.8379C174.189 12.7246 173.961 12.668 173.695 12.668C173.43 12.668 173.199 12.7246 173.004 12.8379C172.812 12.9473 172.654 13.0996 172.529 13.2949C172.404 13.4902 172.312 13.7148 172.254 13.9688C172.195 14.2188 172.166 14.4844 172.166 14.7656ZM182.543 16.5938L184.008 11.6602H184.91L184.664 13.1367L183.188 18H182.379L182.543 16.5938ZM181.682 11.6602L182.824 16.6172L182.918 18H182.016L180.299 11.6602H181.682ZM186.281 16.5586L187.389 11.6602H188.766L187.055 18H186.152L186.281 16.5586ZM185.062 11.6602L186.51 16.5352L186.691 18H185.883L184.389 13.1309L184.143 11.6602H185.062ZM189.457 14.9004V14.7656C189.457 14.3086 189.523 13.8848 189.656 13.4941C189.789 13.0996 189.98 12.7578 190.23 12.4688C190.484 12.1758 190.793 11.9492 191.156 11.7891C191.523 11.625 191.938 11.543 192.398 11.543C192.863 11.543 193.277 11.625 193.641 11.7891C194.008 11.9492 194.318 12.1758 194.572 12.4688C194.826 12.7578 195.02 13.0996 195.152 13.4941C195.285 13.8848 195.352 14.3086 195.352 14.7656V14.9004C195.352 15.3574 195.285 15.7812 195.152 16.1719C195.02 16.5625 194.826 16.9043 194.572 17.1973C194.318 17.4863 194.01 17.7129 193.646 17.877C193.283 18.0371 192.871 18.1172 192.41 18.1172C191.945 18.1172 191.529 18.0371 191.162 17.877C190.799 17.7129 190.49 17.4863 190.236 17.1973C189.982 16.9043 189.789 16.5625 189.656 16.1719C189.523 15.7812 189.457 15.3574 189.457 14.9004ZM190.869 14.7656V14.9004C190.869 15.1855 190.898 15.4551 190.957 15.709C191.016 15.9629 191.107 16.1855 191.232 16.377C191.357 16.5684 191.518 16.7188 191.713 16.8281C191.908 16.9375 192.141 16.9922 192.41 16.9922C192.672 16.9922 192.898 16.9375 193.09 16.8281C193.285 16.7188 193.445 16.5684 193.57 16.377C193.695 16.1855 193.787 15.9629 193.846 15.709C193.908 15.4551 193.939 15.1855 193.939 14.9004V14.7656C193.939 14.4844 193.908 14.2188 193.846 13.9688C193.787 13.7148 193.693 13.4902 193.564 13.2949C193.439 13.0996 193.279 12.9473 193.084 12.8379C192.893 12.7246 192.664 12.668 192.398 12.668C192.133 12.668 191.902 12.7246 191.707 12.8379C191.516 12.9473 191.357 13.0996 191.232 13.2949C191.107 13.4902 191.016 13.7148 190.957 13.9688C190.898 14.2188 190.869 14.4844 190.869 14.7656ZM197.953 12.8672V18H196.541V11.6602H197.889L197.953 12.8672ZM199.893 11.6191L199.881 12.9316C199.795 12.916 199.701 12.9043 199.6 12.8965C199.502 12.8887 199.404 12.8848 199.307 12.8848C199.064 12.8848 198.852 12.9199 198.668 12.9902C198.484 13.0566 198.33 13.1543 198.205 13.2832C198.084 13.4082 197.99 13.5605 197.924 13.7402C197.857 13.9199 197.818 14.1211 197.807 14.3438L197.484 14.3672C197.484 13.9688 197.523 13.5996 197.602 13.2598C197.68 12.9199 197.797 12.6211 197.953 12.3633C198.113 12.1055 198.312 11.9043 198.551 11.7598C198.793 11.6152 199.072 11.543 199.389 11.543C199.475 11.543 199.566 11.5508 199.664 11.5664C199.766 11.582 199.842 11.5996 199.893 11.6191ZM202.195 12.8672V18H200.783V11.6602H202.131L202.195 12.8672ZM204.135 11.6191L204.123 12.9316C204.037 12.916 203.943 12.9043 203.842 12.8965C203.744 12.8887 203.646 12.8848 203.549 12.8848C203.307 12.8848 203.094 12.9199 202.91 12.9902C202.727 13.0566 202.572 13.1543 202.447 13.2832C202.326 13.4082 202.232 13.5605 202.166 13.7402C202.1 13.9199 202.061 14.1211 202.049 14.3438L201.727 14.3672C201.727 13.9688 201.766 13.5996 201.844 13.2598C201.922 12.9199 202.039 12.6211 202.195 12.3633C202.355 12.1055 202.555 11.9043 202.793 11.7598C203.035 11.6152 203.314 11.543 203.631 11.543C203.717 11.543 203.809 11.5508 203.906 11.5664C204.008 11.582 204.084 11.5996 204.135 11.6191ZM206.531 11.6602V18H205.113V11.6602H206.531ZM205.02 9.99609C205.02 9.78125 205.09 9.60352 205.23 9.46289C205.375 9.31836 205.574 9.24609 205.828 9.24609C206.078 9.24609 206.275 9.31836 206.42 9.46289C206.564 9.60352 206.637 9.78125 206.637 9.99609C206.637 10.207 206.564 10.3828 206.42 10.5234C206.275 10.6641 206.078 10.7344 205.828 10.7344C205.574 10.7344 205.375 10.6641 205.23 10.5234C205.09 10.3828 205.02 10.207 205.02 9.99609ZM210.873 18.1172C210.404 18.1172 209.98 18.041 209.602 17.8887C209.227 17.7324 208.906 17.5156 208.641 17.2383C208.379 16.9609 208.178 16.6348 208.037 16.2598C207.896 15.8848 207.826 15.4805 207.826 15.0469V14.8125C207.826 14.3164 207.898 13.8672 208.043 13.4648C208.188 13.0625 208.389 12.7188 208.646 12.4336C208.904 12.1445 209.209 11.9238 209.561 11.7715C209.912 11.6191 210.293 11.543 210.703 11.543C211.156 11.543 211.553 11.6191 211.893 11.7715C212.232 11.9238 212.514 12.1387 212.736 12.416C212.963 12.6895 213.131 13.0156 213.24 13.3945C213.354 13.7734 213.41 14.1914 213.41 14.6484V15.252H208.512V14.2383H212.016V14.127C212.008 13.873 211.957 13.6348 211.863 13.4121C211.773 13.1895 211.635 13.0098 211.447 12.873C211.26 12.7363 211.01 12.668 210.697 12.668C210.463 12.668 210.254 12.7188 210.07 12.8203C209.891 12.918 209.74 13.0605 209.619 13.248C209.498 13.4355 209.404 13.6621 209.338 13.9277C209.275 14.1895 209.244 14.4844 209.244 14.8125V15.0469C209.244 15.3242 209.281 15.582 209.355 15.8203C209.434 16.0547 209.547 16.2598 209.695 16.4355C209.844 16.6113 210.023 16.75 210.234 16.8516C210.445 16.9492 210.686 16.998 210.955 16.998C211.295 16.998 211.598 16.9297 211.863 16.793C212.129 16.6562 212.359 16.4629 212.555 16.2129L213.299 16.9336C213.162 17.1328 212.984 17.3242 212.766 17.5078C212.547 17.6875 212.279 17.834 211.963 17.9473C211.65 18.0605 211.287 18.1172 210.873 18.1172ZM218.068 16.2832C218.068 16.1426 218.033 16.0156 217.963 15.9023C217.893 15.7852 217.758 15.6797 217.559 15.5859C217.363 15.4922 217.074 15.4062 216.691 15.3281C216.355 15.2539 216.047 15.166 215.766 15.0645C215.488 14.959 215.25 14.832 215.051 14.6836C214.852 14.5352 214.697 14.3594 214.588 14.1562C214.479 13.9531 214.424 13.7188 214.424 13.4531C214.424 13.1953 214.48 12.9512 214.594 12.7207C214.707 12.4902 214.869 12.2871 215.08 12.1113C215.291 11.9355 215.547 11.7969 215.848 11.6953C216.152 11.5938 216.492 11.543 216.867 11.543C217.398 11.543 217.854 11.6328 218.232 11.8125C218.615 11.9883 218.908 12.2285 219.111 12.5332C219.314 12.834 219.416 13.1738 219.416 13.5527H218.004C218.004 13.3848 217.961 13.2285 217.875 13.084C217.793 12.9355 217.668 12.8164 217.5 12.7266C217.332 12.6328 217.121 12.5859 216.867 12.5859C216.625 12.5859 216.424 12.625 216.264 12.7031C216.107 12.7773 215.99 12.875 215.912 12.9961C215.838 13.1172 215.801 13.25 215.801 13.3945C215.801 13.5 215.82 13.5957 215.859 13.6816C215.902 13.7637 215.973 13.8398 216.07 13.9102C216.168 13.9766 216.301 14.0391 216.469 14.0977C216.641 14.1562 216.855 14.2129 217.113 14.2676C217.598 14.3691 218.014 14.5 218.361 14.6602C218.713 14.8164 218.982 15.0195 219.17 15.2695C219.357 15.5156 219.451 15.8281 219.451 16.207C219.451 16.4883 219.391 16.7461 219.27 16.9805C219.152 17.2109 218.98 17.4121 218.754 17.584C218.527 17.752 218.256 17.8828 217.939 17.9766C217.627 18.0703 217.275 18.1172 216.885 18.1172C216.311 18.1172 215.824 18.0156 215.426 17.8125C215.027 17.6055 214.725 17.3418 214.518 17.0215C214.314 16.6973 214.213 16.3613 214.213 16.0137H215.578C215.594 16.2754 215.666 16.4844 215.795 16.6406C215.928 16.793 216.092 16.9043 216.287 16.9746C216.486 17.041 216.691 17.0742 216.902 17.0742C217.156 17.0742 217.369 17.041 217.541 16.9746C217.713 16.9043 217.844 16.8105 217.934 16.6934C218.023 16.5723 218.068 16.4355 218.068 16.2832Z"
    fill="url(#paint1_linear_26007_26985)"
  />
  <path
    d="M244.152 12.953C244.023 12.6979 243.866 12.4515 243.683 12.2503C243.555 12.1039 243.417 11.9666 243.298 11.8294C243.042 11.5549 242.74 11.3435 242.43 11.141C241.718 10.6626 240.927 10.4102 240.074 10.3113C239.556 10.261 239.039 10.2832 238.533 10.4053C238.433 10.4315 238.343 10.4669 238.234 10.484C238.324 10.4123 238.414 10.3407 238.495 10.278C238.811 10.0543 239.144 9.88522 239.506 9.76175C240.464 9.40824 241.433 9.29968 242.432 9.45438C243.222 9.57986 243.959 9.86806 244.634 10.2917C244.717 10.3378 244.79 10.3929 244.854 10.4389C244.908 10.4757 244.945 10.5123 245.017 10.513C245.036 10.5132 245.054 10.5315 245.063 10.5406C245.182 10.6415 245.319 10.7426 245.447 10.8526C245.456 10.8437 245.474 10.8257 245.483 10.8167C245.51 10.7716 245.546 10.7538 245.609 10.7635C245.664 10.764 245.7 10.7825 245.737 10.8192C245.792 10.8741 245.856 10.9382 245.911 10.9931C245.966 11.0481 246.002 11.1028 246.021 11.1755C246.04 11.2301 246.023 11.3025 246.059 11.3573C246.069 11.3664 246.051 11.3844 246.042 11.3934C246.105 11.4212 246.124 11.4939 246.07 11.5659C246.143 11.5304 246.143 11.5848 246.18 11.6214C246.226 11.6853 246.135 11.6844 246.126 11.7297C246.145 11.7299 246.154 11.7209 246.172 11.7211C246.208 11.7033 246.226 11.7035 246.254 11.7491C246.281 11.7947 246.272 11.8218 246.236 11.8577C246.227 11.8667 246.219 11.8938 246.21 11.9028L246.219 11.9119C246.228 11.903 246.246 11.9031 246.255 11.8942C246.291 11.8582 246.327 11.8767 246.346 11.9132C246.373 11.9588 246.374 11.9769 246.329 12.0037C246.32 12.0127 246.311 12.0216 246.302 12.0306C246.293 12.0396 246.293 12.0577 246.293 12.0577C246.302 12.0669 246.311 12.0579 246.32 12.0671C246.32 12.0671 246.329 12.0581 246.347 12.0583C246.437 12.0047 246.437 12.0047 246.493 12.1141C246.466 12.141 246.43 12.1588 246.403 12.1858L246.412 12.1949C246.448 12.1771 246.484 12.1593 246.52 12.1415C246.539 12.178 246.566 12.2055 246.576 12.2328C246.576 12.2509 246.531 12.2777 246.504 12.3046C246.504 12.3046 246.513 12.3138 246.504 12.3227C246.522 12.3229 246.54 12.305 246.558 12.3051C246.585 12.2963 246.603 12.2784 246.621 12.2604C246.649 12.2879 246.667 12.3243 246.695 12.3518C246.668 12.3787 246.632 12.3965 246.605 12.4235C246.632 12.4509 246.632 12.4509 246.749 12.3704C246.777 12.3979 246.795 12.4344 246.823 12.4618C246.796 12.4888 246.769 12.5157 246.733 12.5335C246.742 12.5427 246.742 12.5427 246.751 12.5518C246.796 12.525 246.823 12.4981 246.868 12.4713C246.896 12.4988 246.905 12.5261 246.932 12.5536C246.905 12.5805 246.887 12.5985 246.869 12.6164C246.869 12.6164 246.879 12.6256 246.87 12.6346C246.888 12.6347 246.906 12.6349 246.915 12.6259C246.996 12.5814 246.996 12.5814 247.06 12.6636C247.051 12.6726 247.033 12.6906 247.034 12.7087C247.034 12.7087 247.034 12.7087 247.043 12.7178C247.061 12.6999 247.079 12.7001 247.097 12.6821C247.142 12.6553 247.206 12.6831 247.215 12.7286C247.215 12.7467 247.206 12.7557 247.197 12.7828C247.197 12.7828 247.197 12.7828 247.207 12.792C247.252 12.7471 247.288 12.7655 247.316 12.8112C247.334 12.8295 247.37 12.848 247.398 12.8573C247.425 12.8666 247.452 12.8759 247.489 12.8763C247.561 12.877 247.625 12.9048 247.662 12.9777C247.671 12.9869 247.68 12.996 247.689 13.0052C247.735 13.0147 247.744 13.042 247.735 13.0872C247.817 13.1152 247.872 13.1883 247.855 13.2425C247.9 13.2339 247.937 13.2524 247.919 13.3066L247.928 13.3158C247.964 13.3343 247.983 13.3526 247.956 13.3977C248.001 13.4072 248.038 13.4257 248.02 13.4799C248.084 13.4896 248.093 13.5169 248.076 13.5711C248.121 13.5806 248.148 13.5899 248.149 13.6444C248.149 13.6444 248.149 13.6625 248.158 13.6535C248.203 13.663 248.204 13.6993 248.204 13.7356C248.259 13.7542 248.277 13.7725 248.259 13.8268C248.323 13.8365 248.341 13.8548 248.324 13.909C248.378 13.9277 248.443 14.0462 248.434 14.0914C248.443 14.1006 248.462 14.1008 248.462 14.1008C248.489 14.1464 248.517 14.2101 248.545 14.2557C248.563 14.2922 248.591 14.3196 248.609 14.3561C248.618 14.3834 248.628 14.4107 248.646 14.429C248.655 14.4381 248.674 14.4564 248.683 14.4837C248.702 14.5383 248.72 14.5929 248.748 14.6385C248.766 14.675 248.794 14.7206 248.812 14.757C248.84 14.8026 248.85 14.8481 248.877 14.8937C248.896 14.9483 248.933 15.003 248.951 15.0576C248.998 15.1759 249.053 15.2853 249.091 15.3945C249.119 15.4945 249.156 15.6036 249.193 15.6947C249.193 15.7128 249.203 15.722 249.203 15.7401C249.185 15.8125 249.213 15.8762 249.268 15.9312C249.296 15.9586 249.314 15.9951 249.333 16.0315C249.36 16.0771 249.361 16.1316 249.316 16.1765C249.289 16.2034 249.289 16.2397 249.335 16.2492C249.416 16.2772 249.463 16.3592 249.481 16.432C249.491 16.4593 249.455 16.4952 249.437 16.5313C249.428 16.5584 249.419 16.5674 249.401 16.5853C249.429 16.5947 249.438 16.6038 249.465 16.6132C249.583 16.6415 249.657 16.751 249.622 16.8595C249.622 16.8776 249.604 16.8956 249.595 16.9046C249.541 16.9403 249.541 16.9766 249.596 16.9953C249.65 17.0139 249.687 17.0506 249.724 17.1053C249.751 17.1509 249.743 17.1962 249.707 17.2502C249.662 17.3133 249.662 17.3314 249.726 17.3592C249.826 17.4237 249.854 17.4874 249.828 17.6232C249.802 17.7046 249.776 17.7859 249.749 17.8673C249.732 17.9215 249.686 17.9301 249.632 17.9115C249.641 17.9388 249.65 17.9661 249.66 17.9934C249.669 18.0388 249.679 18.0842 249.661 18.1203C249.599 18.2739 249.537 18.4274 249.475 18.581C249.351 18.8881 249.3 19.2141 249.248 19.54C249.231 19.6668 249.186 19.6754 249.077 19.62C248.986 19.5647 248.885 19.5003 248.794 19.445C248.776 19.4267 248.758 19.4265 248.721 19.4261C248.549 19.4154 248.386 19.4138 248.222 19.3941C248.122 19.3841 248.022 19.3378 247.922 19.2915C247.64 19.189 247.448 18.9786 247.282 18.7231C247.153 18.5224 247.096 18.2861 247.103 18.0413C247.102 17.8962 247.155 17.7516 247.171 17.6067C247.188 17.4799 247.232 17.3625 247.313 17.2635C247.385 17.1735 247.402 17.083 247.437 16.9745C247.473 16.866 247.453 16.757 247.443 16.6572C247.432 16.4667 247.34 16.3025 247.194 16.1742C247.112 16.1099 247.02 16.0365 246.938 15.9722C246.911 15.9448 246.892 15.9265 246.892 15.8902C246.891 15.8358 246.882 15.7903 246.89 15.7451C246.933 15.4825 246.868 15.2552 246.748 15.0273C246.692 14.918 246.619 14.8266 246.536 14.7261C246.426 14.598 246.289 14.5333 246.135 14.4864C246.062 14.4676 246.062 14.4676 246.07 14.3861C246.087 14.2774 246.105 14.1688 246.103 14.0599C246.101 13.8241 245.999 13.6146 245.835 13.4498C245.78 13.3949 245.707 13.3579 245.634 13.3209C245.406 13.219 245.17 13.1442 244.907 13.2051C244.735 13.2488 244.582 13.3108 244.447 13.4274C244.375 13.4811 244.33 13.4716 244.275 13.4167C244.192 13.298 244.109 13.1793 244.09 13.034C244.098 13.0069 244.098 12.9706 244.152 12.953ZM248.95 18.6848C248.977 18.6397 249.039 18.5587 249.084 18.4775C249.2 18.27 249.216 18.0344 249.159 17.7981C249.131 17.68 249.084 17.5616 248.993 17.4882C248.801 17.3141 248.591 17.2304 248.337 17.228C248.111 17.2349 247.912 17.3055 247.741 17.4399C247.489 17.6551 247.374 17.9351 247.395 18.2618C247.396 18.3343 247.415 18.407 247.452 18.4799C247.572 18.7078 247.755 18.8728 248 18.9386C248.337 19.0416 248.644 18.9539 248.95 18.6848Z"
    fill="#F41795"
  />
  <path
    d="M272.377 9.46875V18H270.918V9.46875H272.377ZM275.055 9.46875V10.6406H268.264V9.46875H275.055ZM277.035 12.8672V18H275.623V11.6602H276.971L277.035 12.8672ZM278.975 11.6191L278.963 12.9316C278.877 12.916 278.783 12.9043 278.682 12.8965C278.584 12.8887 278.486 12.8848 278.389 12.8848C278.146 12.8848 277.934 12.9199 277.75 12.9902C277.566 13.0566 277.412 13.1543 277.287 13.2832C277.166 13.4082 277.072 13.5605 277.006 13.7402C276.939 13.9199 276.9 14.1211 276.889 14.3438L276.566 14.3672C276.566 13.9688 276.605 13.5996 276.684 13.2598C276.762 12.9199 276.879 12.6211 277.035 12.3633C277.195 12.1055 277.395 11.9043 277.633 11.7598C277.875 11.6152 278.154 11.543 278.471 11.543C278.557 11.543 278.648 11.5508 278.746 11.5664C278.848 11.582 278.924 11.5996 278.975 11.6191ZM283.223 16.7285V13.7051C283.223 13.4785 283.182 13.2832 283.1 13.1191C283.018 12.9551 282.893 12.8281 282.725 12.7383C282.561 12.6484 282.354 12.6035 282.104 12.6035C281.873 12.6035 281.674 12.6426 281.506 12.7207C281.338 12.7988 281.207 12.9043 281.113 13.0371C281.02 13.1699 280.973 13.3203 280.973 13.4883H279.566C279.566 13.2383 279.627 12.9961 279.748 12.7617C279.869 12.5273 280.045 12.3184 280.275 12.1348C280.506 11.9512 280.781 11.8066 281.102 11.7012C281.422 11.5957 281.781 11.543 282.18 11.543C282.656 11.543 283.078 11.623 283.445 11.7832C283.816 11.9434 284.107 12.1855 284.318 12.5098C284.533 12.8301 284.641 13.2324 284.641 13.7168V16.5352C284.641 16.8242 284.66 17.084 284.699 17.3145C284.742 17.541 284.803 17.7383 284.881 17.9062V18H283.434C283.367 17.8477 283.314 17.6543 283.275 17.4199C283.24 17.1816 283.223 16.9512 283.223 16.7285ZM283.428 14.1445L283.439 15.0176H282.426C282.164 15.0176 281.934 15.043 281.734 15.0938C281.535 15.1406 281.369 15.2109 281.236 15.3047C281.104 15.3984 281.004 15.5117 280.938 15.6445C280.871 15.7773 280.838 15.9277 280.838 16.0957C280.838 16.2637 280.877 16.418 280.955 16.5586C281.033 16.6953 281.146 16.8027 281.295 16.8809C281.447 16.959 281.631 16.998 281.846 16.998C282.135 16.998 282.387 16.9395 282.602 16.8223C282.82 16.7012 282.992 16.5547 283.117 16.3828C283.242 16.207 283.309 16.041 283.316 15.8848L283.773 16.5117C283.727 16.6719 283.646 16.8438 283.533 17.0273C283.42 17.2109 283.271 17.3867 283.088 17.5547C282.908 17.7188 282.691 17.8535 282.438 17.959C282.188 18.0645 281.898 18.1172 281.57 18.1172C281.156 18.1172 280.787 18.0352 280.463 17.8711C280.139 17.7031 279.885 17.4785 279.701 17.1973C279.518 16.9121 279.426 16.5898 279.426 16.2305C279.426 15.8945 279.488 15.5977 279.613 15.3398C279.742 15.0781 279.93 14.8594 280.176 14.6836C280.426 14.5078 280.73 14.375 281.09 14.2852C281.449 14.1914 281.859 14.1445 282.32 14.1445H283.428ZM289.984 16.6875V9H291.402V18H290.119L289.984 16.6875ZM285.859 14.9004V14.7773C285.859 14.2969 285.916 13.8594 286.029 13.4648C286.143 13.0664 286.307 12.7246 286.521 12.4395C286.736 12.1504 286.998 11.9297 287.307 11.7773C287.615 11.6211 287.963 11.543 288.35 11.543C288.732 11.543 289.068 11.6172 289.357 11.7656C289.646 11.9141 289.893 12.127 290.096 12.4043C290.299 12.6777 290.461 13.0059 290.582 13.3887C290.703 13.7676 290.789 14.1895 290.84 14.6543V15.0469C290.789 15.5 290.703 15.9141 290.582 16.2891C290.461 16.6641 290.299 16.9883 290.096 17.2617C289.893 17.5352 289.645 17.7461 289.352 17.8945C289.062 18.043 288.725 18.1172 288.338 18.1172C287.955 18.1172 287.609 18.0371 287.301 17.877C286.996 17.7168 286.736 17.4922 286.521 17.2031C286.307 16.9141 286.143 16.5742 286.029 16.1836C285.916 15.7891 285.859 15.3613 285.859 14.9004ZM287.271 14.7773V14.9004C287.271 15.1895 287.297 15.459 287.348 15.709C287.402 15.959 287.486 16.1797 287.6 16.3711C287.713 16.5586 287.859 16.707 288.039 16.8164C288.223 16.9219 288.441 16.9746 288.695 16.9746C289.016 16.9746 289.279 16.9043 289.486 16.7637C289.693 16.623 289.855 16.4336 289.973 16.1953C290.094 15.9531 290.176 15.6836 290.219 15.3867V14.3262C290.195 14.0957 290.146 13.8809 290.072 13.6816C290.002 13.4824 289.906 13.3086 289.785 13.1602C289.664 13.0078 289.514 12.8906 289.334 12.8086C289.158 12.7227 288.949 12.6797 288.707 12.6797C288.449 12.6797 288.23 12.7344 288.051 12.8438C287.871 12.9531 287.723 13.1035 287.605 13.2949C287.492 13.4863 287.408 13.709 287.354 13.9629C287.299 14.2168 287.271 14.4883 287.271 14.7773ZM295.674 18.1172C295.205 18.1172 294.781 18.041 294.402 17.8887C294.027 17.7324 293.707 17.5156 293.441 17.2383C293.18 16.9609 292.979 16.6348 292.838 16.2598C292.697 15.8848 292.627 15.4805 292.627 15.0469V14.8125C292.627 14.3164 292.699 13.8672 292.844 13.4648C292.988 13.0625 293.189 12.7188 293.447 12.4336C293.705 12.1445 294.01 11.9238 294.361 11.7715C294.713 11.6191 295.094 11.543 295.504 11.543C295.957 11.543 296.354 11.6191 296.693 11.7715C297.033 11.9238 297.314 12.1387 297.537 12.416C297.764 12.6895 297.932 13.0156 298.041 13.3945C298.154 13.7734 298.211 14.1914 298.211 14.6484V15.252H293.312V14.2383H296.816V14.127C296.809 13.873 296.758 13.6348 296.664 13.4121C296.574 13.1895 296.436 13.0098 296.248 12.873C296.061 12.7363 295.811 12.668 295.498 12.668C295.264 12.668 295.055 12.7188 294.871 12.8203C294.691 12.918 294.541 13.0605 294.42 13.248C294.299 13.4355 294.205 13.6621 294.139 13.9277C294.076 14.1895 294.045 14.4844 294.045 14.8125V15.0469C294.045 15.3242 294.082 15.582 294.156 15.8203C294.234 16.0547 294.348 16.2598 294.496 16.4355C294.645 16.6113 294.824 16.75 295.035 16.8516C295.246 16.9492 295.486 16.998 295.756 16.998C296.096 16.998 296.398 16.9297 296.664 16.793C296.93 16.6562 297.16 16.4629 297.355 16.2129L298.1 16.9336C297.963 17.1328 297.785 17.3242 297.566 17.5078C297.348 17.6875 297.08 17.834 296.764 17.9473C296.451 18.0605 296.088 18.1172 295.674 18.1172ZM305.857 16.2832C305.857 16.1426 305.822 16.0156 305.752 15.9023C305.682 15.7852 305.547 15.6797 305.348 15.5859C305.152 15.4922 304.863 15.4062 304.48 15.3281C304.145 15.2539 303.836 15.166 303.555 15.0645C303.277 14.959 303.039 14.832 302.84 14.6836C302.641 14.5352 302.486 14.3594 302.377 14.1562C302.268 13.9531 302.213 13.7188 302.213 13.4531C302.213 13.1953 302.27 12.9512 302.383 12.7207C302.496 12.4902 302.658 12.2871 302.869 12.1113C303.08 11.9355 303.336 11.7969 303.637 11.6953C303.941 11.5938 304.281 11.543 304.656 11.543C305.188 11.543 305.643 11.6328 306.021 11.8125C306.404 11.9883 306.697 12.2285 306.9 12.5332C307.104 12.834 307.205 13.1738 307.205 13.5527H305.793C305.793 13.3848 305.75 13.2285 305.664 13.084C305.582 12.9355 305.457 12.8164 305.289 12.7266C305.121 12.6328 304.91 12.5859 304.656 12.5859C304.414 12.5859 304.213 12.625 304.053 12.7031C303.896 12.7773 303.779 12.875 303.701 12.9961C303.627 13.1172 303.59 13.25 303.59 13.3945C303.59 13.5 303.609 13.5957 303.648 13.6816C303.691 13.7637 303.762 13.8398 303.859 13.9102C303.957 13.9766 304.09 14.0391 304.258 14.0977C304.43 14.1562 304.645 14.2129 304.902 14.2676C305.387 14.3691 305.803 14.5 306.15 14.6602C306.502 14.8164 306.771 15.0195 306.959 15.2695C307.146 15.5156 307.24 15.8281 307.24 16.207C307.24 16.4883 307.18 16.7461 307.059 16.9805C306.941 17.2109 306.77 17.4121 306.543 17.584C306.316 17.752 306.045 17.8828 305.729 17.9766C305.416 18.0703 305.064 18.1172 304.674 18.1172C304.1 18.1172 303.613 18.0156 303.215 17.8125C302.816 17.6055 302.514 17.3418 302.307 17.0215C302.104 16.6973 302.002 16.3613 302.002 16.0137H303.367C303.383 16.2754 303.455 16.4844 303.584 16.6406C303.717 16.793 303.881 16.9043 304.076 16.9746C304.275 17.041 304.48 17.0742 304.691 17.0742C304.945 17.0742 305.158 17.041 305.33 16.9746C305.502 16.9043 305.633 16.8105 305.723 16.6934C305.812 16.5723 305.857 16.4355 305.857 16.2832ZM309.9 9V18H308.482V9H309.9ZM313.838 11.6602L311.078 14.7188L309.566 16.2656L309.197 15.0703L310.34 13.6582L312.133 11.6602H313.838ZM312.438 18L310.381 15.0234L311.271 14.0332L314.072 18H312.438ZM316.246 11.6602V18H314.828V11.6602H316.246ZM314.734 9.99609C314.734 9.78125 314.805 9.60352 314.945 9.46289C315.09 9.31836 315.289 9.24609 315.543 9.24609C315.793 9.24609 315.99 9.31836 316.135 9.46289C316.279 9.60352 316.352 9.78125 316.352 9.99609C316.352 10.207 316.279 10.3828 316.135 10.5234C315.99 10.6641 315.793 10.7344 315.543 10.7344C315.289 10.7344 315.09 10.6641 314.945 10.5234C314.805 10.3828 314.734 10.207 314.734 9.99609ZM319.193 13.0137V18H317.781V11.6602H319.111L319.193 13.0137ZM318.941 14.5957L318.484 14.5898C318.488 14.1406 318.551 13.7285 318.672 13.3535C318.797 12.9785 318.969 12.6562 319.188 12.3867C319.41 12.1172 319.676 11.9102 319.984 11.7656C320.293 11.6172 320.637 11.543 321.016 11.543C321.32 11.543 321.596 11.5859 321.842 11.6719C322.092 11.7539 322.305 11.8887 322.48 12.0762C322.66 12.2637 322.797 12.5078 322.891 12.8086C322.984 13.1055 323.031 13.4707 323.031 13.9043V18H321.613V13.8984C321.613 13.5938 321.568 13.3535 321.479 13.1777C321.393 12.998 321.266 12.8711 321.098 12.7969C320.934 12.7188 320.729 12.6797 320.482 12.6797C320.24 12.6797 320.023 12.7305 319.832 12.832C319.641 12.9336 319.479 13.0723 319.346 13.248C319.217 13.4238 319.117 13.627 319.047 13.8574C318.977 14.0879 318.941 14.334 318.941 14.5957ZM328.029 16.2832C328.029 16.1426 327.994 16.0156 327.924 15.9023C327.854 15.7852 327.719 15.6797 327.52 15.5859C327.324 15.4922 327.035 15.4062 326.652 15.3281C326.316 15.2539 326.008 15.166 325.727 15.0645C325.449 14.959 325.211 14.832 325.012 14.6836C324.812 14.5352 324.658 14.3594 324.549 14.1562C324.439 13.9531 324.385 13.7188 324.385 13.4531C324.385 13.1953 324.441 12.9512 324.555 12.7207C324.668 12.4902 324.83 12.2871 325.041 12.1113C325.252 11.9355 325.508 11.7969 325.809 11.6953C326.113 11.5938 326.453 11.543 326.828 11.543C327.359 11.543 327.814 11.6328 328.193 11.8125C328.576 11.9883 328.869 12.2285 329.072 12.5332C329.275 12.834 329.377 13.1738 329.377 13.5527H327.965C327.965 13.3848 327.922 13.2285 327.836 13.084C327.754 12.9355 327.629 12.8164 327.461 12.7266C327.293 12.6328 327.082 12.5859 326.828 12.5859C326.586 12.5859 326.385 12.625 326.225 12.7031C326.068 12.7773 325.951 12.875 325.873 12.9961C325.799 13.1172 325.762 13.25 325.762 13.3945C325.762 13.5 325.781 13.5957 325.82 13.6816C325.863 13.7637 325.934 13.8398 326.031 13.9102C326.129 13.9766 326.262 14.0391 326.43 14.0977C326.602 14.1562 326.816 14.2129 327.074 14.2676C327.559 14.3691 327.975 14.5 328.322 14.6602C328.674 14.8164 328.943 15.0195 329.131 15.2695C329.318 15.5156 329.412 15.8281 329.412 16.207C329.412 16.4883 329.352 16.7461 329.23 16.9805C329.113 17.2109 328.941 17.4121 328.715 17.584C328.488 17.752 328.217 17.8828 327.9 17.9766C327.588 18.0703 327.236 18.1172 326.846 18.1172C326.271 18.1172 325.785 18.0156 325.387 17.8125C324.988 17.6055 324.686 17.3418 324.479 17.0215C324.275 16.6973 324.174 16.3613 324.174 16.0137H325.539C325.555 16.2754 325.627 16.4844 325.756 16.6406C325.889 16.793 326.053 16.9043 326.248 16.9746C326.447 17.041 326.652 17.0742 326.863 17.0742C327.117 17.0742 327.33 17.041 327.502 16.9746C327.674 16.9043 327.805 16.8105 327.895 16.6934C327.984 16.5723 328.029 16.4355 328.029 16.2832Z"
    fill="white"
  />
  <path d="M346.695 13.2129V14.3438H338.721V13.2129H346.695Z" fill="white" />
  <path
    d="M358.449 16.5938L359.914 11.6602H360.816L360.57 13.1367L359.094 18H358.285L358.449 16.5938ZM357.588 11.6602L358.73 16.6172L358.824 18H357.922L356.205 11.6602H357.588ZM362.188 16.5586L363.295 11.6602H364.672L362.961 18H362.059L362.188 16.5586ZM360.969 11.6602L362.416 16.5352L362.598 18H361.789L360.295 13.1309L360.049 11.6602H360.969ZM367.145 11.6602V18H365.727V11.6602H367.145ZM365.633 9.99609C365.633 9.78125 365.703 9.60352 365.844 9.46289C365.988 9.31836 366.188 9.24609 366.441 9.24609C366.691 9.24609 366.889 9.31836 367.033 9.46289C367.178 9.60352 367.25 9.78125 367.25 9.99609C367.25 10.207 367.178 10.3828 367.033 10.5234C366.889 10.6641 366.691 10.7344 366.441 10.7344C366.188 10.7344 365.988 10.6641 365.844 10.5234C365.703 10.3828 365.633 10.207 365.633 9.99609ZM371.598 11.6602V12.6914H368.023V11.6602H371.598ZM369.055 10.1074H370.467V16.248C370.467 16.4434 370.494 16.5938 370.549 16.6992C370.607 16.8008 370.688 16.8691 370.789 16.9043C370.891 16.9395 371.01 16.957 371.146 16.957C371.244 16.957 371.338 16.9512 371.428 16.9395C371.518 16.9277 371.59 16.916 371.645 16.9043L371.65 17.9824C371.533 18.0176 371.396 18.0488 371.24 18.0762C371.088 18.1035 370.912 18.1172 370.713 18.1172C370.389 18.1172 370.102 18.0605 369.852 17.9473C369.602 17.8301 369.406 17.6406 369.266 17.3789C369.125 17.1172 369.055 16.7695 369.055 16.3359V10.1074ZM374.082 9V18H372.676V9H374.082ZM373.836 14.5957L373.379 14.5898C373.383 14.1523 373.443 13.748 373.561 13.377C373.682 13.0059 373.85 12.6836 374.064 12.4102C374.283 12.1328 374.545 11.9199 374.85 11.7715C375.154 11.6191 375.492 11.543 375.863 11.543C376.176 11.543 376.457 11.5859 376.707 11.6719C376.961 11.7578 377.18 11.8965 377.363 12.0879C377.547 12.2754 377.686 12.5215 377.779 12.8262C377.877 13.127 377.926 13.4941 377.926 13.9277V18H376.508V13.916C376.508 13.6113 376.463 13.3691 376.373 13.1895C376.287 13.0098 376.16 12.8809 375.992 12.8027C375.824 12.7207 375.619 12.6797 375.377 12.6797C375.123 12.6797 374.898 12.7305 374.703 12.832C374.512 12.9336 374.352 13.0723 374.223 13.248C374.094 13.4238 373.996 13.627 373.93 13.8574C373.867 14.0879 373.836 14.334 373.836 14.5957ZM383.744 13.0137V18H382.332V11.6602H383.662L383.744 13.0137ZM383.492 14.5957L383.035 14.5898C383.039 14.1406 383.102 13.7285 383.223 13.3535C383.348 12.9785 383.52 12.6562 383.738 12.3867C383.961 12.1172 384.227 11.9102 384.535 11.7656C384.844 11.6172 385.188 11.543 385.566 11.543C385.871 11.543 386.146 11.5859 386.393 11.6719C386.643 11.7539 386.855 11.8887 387.031 12.0762C387.211 12.2637 387.348 12.5078 387.441 12.8086C387.535 13.1055 387.582 13.4707 387.582 13.9043V18H386.164V13.8984C386.164 13.5938 386.119 13.3535 386.029 13.1777C385.943 12.998 385.816 12.8711 385.648 12.7969C385.484 12.7188 385.279 12.6797 385.033 12.6797C384.791 12.6797 384.574 12.7305 384.383 12.832C384.191 12.9336 384.029 13.0723 383.896 13.248C383.768 13.4238 383.668 13.627 383.598 13.8574C383.527 14.0879 383.492 14.334 383.492 14.5957ZM388.754 14.9004V14.7656C388.754 14.3086 388.82 13.8848 388.953 13.4941C389.086 13.0996 389.277 12.7578 389.527 12.4688C389.781 12.1758 390.09 11.9492 390.453 11.7891C390.82 11.625 391.234 11.543 391.695 11.543C392.16 11.543 392.574 11.625 392.938 11.7891C393.305 11.9492 393.615 12.1758 393.869 12.4688C394.123 12.7578 394.316 13.0996 394.449 13.4941C394.582 13.8848 394.648 14.3086 394.648 14.7656V14.9004C394.648 15.3574 394.582 15.7812 394.449 16.1719C394.316 16.5625 394.123 16.9043 393.869 17.1973C393.615 17.4863 393.307 17.7129 392.943 17.877C392.58 18.0371 392.168 18.1172 391.707 18.1172C391.242 18.1172 390.826 18.0371 390.459 17.877C390.096 17.7129 389.787 17.4863 389.533 17.1973C389.279 16.9043 389.086 16.5625 388.953 16.1719C388.82 15.7812 388.754 15.3574 388.754 14.9004ZM390.166 14.7656V14.9004C390.166 15.1855 390.195 15.4551 390.254 15.709C390.312 15.9629 390.404 16.1855 390.529 16.377C390.654 16.5684 390.814 16.7188 391.01 16.8281C391.205 16.9375 391.438 16.9922 391.707 16.9922C391.969 16.9922 392.195 16.9375 392.387 16.8281C392.582 16.7188 392.742 16.5684 392.867 16.377C392.992 16.1855 393.084 15.9629 393.143 15.709C393.205 15.4551 393.236 15.1855 393.236 14.9004V14.7656C393.236 14.4844 393.205 14.2188 393.143 13.9688C393.084 13.7148 392.99 13.4902 392.861 13.2949C392.736 13.0996 392.576 12.9473 392.381 12.8379C392.189 12.7246 391.961 12.668 391.695 12.668C391.43 12.668 391.199 12.7246 391.004 12.8379C390.812 12.9473 390.654 13.0996 390.529 13.2949C390.404 13.4902 390.312 13.7148 390.254 13.9688C390.195 14.2188 390.166 14.4844 390.166 14.7656ZM400.543 16.5938L402.008 11.6602H402.91L402.664 13.1367L401.188 18H400.379L400.543 16.5938ZM399.682 11.6602L400.824 16.6172L400.918 18H400.016L398.299 11.6602H399.682ZM404.281 16.5586L405.389 11.6602H406.766L405.055 18H404.152L404.281 16.5586ZM403.062 11.6602L404.51 16.5352L404.691 18H403.883L402.389 13.1309L402.143 11.6602H403.062ZM407.457 14.9004V14.7656C407.457 14.3086 407.523 13.8848 407.656 13.4941C407.789 13.0996 407.98 12.7578 408.23 12.4688C408.484 12.1758 408.793 11.9492 409.156 11.7891C409.523 11.625 409.938 11.543 410.398 11.543C410.863 11.543 411.277 11.625 411.641 11.7891C412.008 11.9492 412.318 12.1758 412.572 12.4688C412.826 12.7578 413.02 13.0996 413.152 13.4941C413.285 13.8848 413.352 14.3086 413.352 14.7656V14.9004C413.352 15.3574 413.285 15.7812 413.152 16.1719C413.02 16.5625 412.826 16.9043 412.572 17.1973C412.318 17.4863 412.01 17.7129 411.646 17.877C411.283 18.0371 410.871 18.1172 410.41 18.1172C409.945 18.1172 409.529 18.0371 409.162 17.877C408.799 17.7129 408.49 17.4863 408.236 17.1973C407.982 16.9043 407.789 16.5625 407.656 16.1719C407.523 15.7812 407.457 15.3574 407.457 14.9004ZM408.869 14.7656V14.9004C408.869 15.1855 408.898 15.4551 408.957 15.709C409.016 15.9629 409.107 16.1855 409.232 16.377C409.357 16.5684 409.518 16.7188 409.713 16.8281C409.908 16.9375 410.141 16.9922 410.41 16.9922C410.672 16.9922 410.898 16.9375 411.09 16.8281C411.285 16.7188 411.445 16.5684 411.57 16.377C411.695 16.1855 411.787 15.9629 411.846 15.709C411.908 15.4551 411.939 15.1855 411.939 14.9004V14.7656C411.939 14.4844 411.908 14.2188 411.846 13.9688C411.787 13.7148 411.693 13.4902 411.564 13.2949C411.439 13.0996 411.279 12.9473 411.084 12.8379C410.893 12.7246 410.664 12.668 410.398 12.668C410.133 12.668 409.902 12.7246 409.707 12.8379C409.516 12.9473 409.357 13.0996 409.232 13.2949C409.107 13.4902 409.016 13.7148 408.957 13.9688C408.898 14.2188 408.869 14.4844 408.869 14.7656ZM415.953 12.8672V18H414.541V11.6602H415.889L415.953 12.8672ZM417.893 11.6191L417.881 12.9316C417.795 12.916 417.701 12.9043 417.6 12.8965C417.502 12.8887 417.404 12.8848 417.307 12.8848C417.064 12.8848 416.852 12.9199 416.668 12.9902C416.484 13.0566 416.33 13.1543 416.205 13.2832C416.084 13.4082 415.99 13.5605 415.924 13.7402C415.857 13.9199 415.818 14.1211 415.807 14.3438L415.484 14.3672C415.484 13.9688 415.523 13.5996 415.602 13.2598C415.68 12.9199 415.797 12.6211 415.953 12.3633C416.113 12.1055 416.312 11.9043 416.551 11.7598C416.793 11.6152 417.072 11.543 417.389 11.543C417.475 11.543 417.566 11.5508 417.664 11.5664C417.766 11.582 417.842 11.5996 417.893 11.6191ZM420.195 12.8672V18H418.783V11.6602H420.131L420.195 12.8672ZM422.135 11.6191L422.123 12.9316C422.037 12.916 421.943 12.9043 421.842 12.8965C421.744 12.8887 421.646 12.8848 421.549 12.8848C421.307 12.8848 421.094 12.9199 420.91 12.9902C420.727 13.0566 420.572 13.1543 420.447 13.2832C420.326 13.4082 420.232 13.5605 420.166 13.7402C420.1 13.9199 420.061 14.1211 420.049 14.3438L419.727 14.3672C419.727 13.9688 419.766 13.5996 419.844 13.2598C419.922 12.9199 420.039 12.6211 420.195 12.3633C420.355 12.1055 420.555 11.9043 420.793 11.7598C421.035 11.6152 421.314 11.543 421.631 11.543C421.717 11.543 421.809 11.5508 421.906 11.5664C422.008 11.582 422.084 11.5996 422.135 11.6191ZM424.531 11.6602V18H423.113V11.6602H424.531ZM423.02 9.99609C423.02 9.78125 423.09 9.60352 423.23 9.46289C423.375 9.31836 423.574 9.24609 423.828 9.24609C424.078 9.24609 424.275 9.31836 424.42 9.46289C424.564 9.60352 424.637 9.78125 424.637 9.99609C424.637 10.207 424.564 10.3828 424.42 10.5234C424.275 10.6641 424.078 10.7344 423.828 10.7344C423.574 10.7344 423.375 10.6641 423.23 10.5234C423.09 10.3828 423.02 10.207 423.02 9.99609ZM428.873 18.1172C428.404 18.1172 427.98 18.041 427.602 17.8887C427.227 17.7324 426.906 17.5156 426.641 17.2383C426.379 16.9609 426.178 16.6348 426.037 16.2598C425.896 15.8848 425.826 15.4805 425.826 15.0469V14.8125C425.826 14.3164 425.898 13.8672 426.043 13.4648C426.188 13.0625 426.389 12.7188 426.646 12.4336C426.904 12.1445 427.209 11.9238 427.561 11.7715C427.912 11.6191 428.293 11.543 428.703 11.543C429.156 11.543 429.553 11.6191 429.893 11.7715C430.232 11.9238 430.514 12.1387 430.736 12.416C430.963 12.6895 431.131 13.0156 431.24 13.3945C431.354 13.7734 431.41 14.1914 431.41 14.6484V15.252H426.512V14.2383H430.016V14.127C430.008 13.873 429.957 13.6348 429.863 13.4121C429.773 13.1895 429.635 13.0098 429.447 12.873C429.26 12.7363 429.01 12.668 428.697 12.668C428.463 12.668 428.254 12.7188 428.07 12.8203C427.891 12.918 427.74 13.0605 427.619 13.248C427.498 13.4355 427.404 13.6621 427.338 13.9277C427.275 14.1895 427.244 14.4844 427.244 14.8125V15.0469C427.244 15.3242 427.281 15.582 427.355 15.8203C427.434 16.0547 427.547 16.2598 427.695 16.4355C427.844 16.6113 428.023 16.75 428.234 16.8516C428.445 16.9492 428.686 16.998 428.955 16.998C429.295 16.998 429.598 16.9297 429.863 16.793C430.129 16.6562 430.359 16.4629 430.555 16.2129L431.299 16.9336C431.162 17.1328 430.984 17.3242 430.766 17.5078C430.547 17.6875 430.279 17.834 429.963 17.9473C429.65 18.0605 429.287 18.1172 428.873 18.1172ZM436.068 16.2832C436.068 16.1426 436.033 16.0156 435.963 15.9023C435.893 15.7852 435.758 15.6797 435.559 15.5859C435.363 15.4922 435.074 15.4062 434.691 15.3281C434.355 15.2539 434.047 15.166 433.766 15.0645C433.488 14.959 433.25 14.832 433.051 14.6836C432.852 14.5352 432.697 14.3594 432.588 14.1562C432.479 13.9531 432.424 13.7188 432.424 13.4531C432.424 13.1953 432.48 12.9512 432.594 12.7207C432.707 12.4902 432.869 12.2871 433.08 12.1113C433.291 11.9355 433.547 11.7969 433.848 11.6953C434.152 11.5938 434.492 11.543 434.867 11.543C435.398 11.543 435.854 11.6328 436.232 11.8125C436.615 11.9883 436.908 12.2285 437.111 12.5332C437.314 12.834 437.416 13.1738 437.416 13.5527H436.004C436.004 13.3848 435.961 13.2285 435.875 13.084C435.793 12.9355 435.668 12.8164 435.5 12.7266C435.332 12.6328 435.121 12.5859 434.867 12.5859C434.625 12.5859 434.424 12.625 434.264 12.7031C434.107 12.7773 433.99 12.875 433.912 12.9961C433.838 13.1172 433.801 13.25 433.801 13.3945C433.801 13.5 433.82 13.5957 433.859 13.6816C433.902 13.7637 433.973 13.8398 434.07 13.9102C434.168 13.9766 434.301 14.0391 434.469 14.0977C434.641 14.1562 434.855 14.2129 435.113 14.2676C435.598 14.3691 436.014 14.5 436.361 14.6602C436.713 14.8164 436.982 15.0195 437.17 15.2695C437.357 15.5156 437.451 15.8281 437.451 16.207C437.451 16.4883 437.391 16.7461 437.27 16.9805C437.152 17.2109 436.98 17.4121 436.754 17.584C436.527 17.752 436.256 17.8828 435.939 17.9766C435.627 18.0703 435.275 18.1172 434.885 18.1172C434.311 18.1172 433.824 18.0156 433.426 17.8125C433.027 17.6055 432.725 17.3418 432.518 17.0215C432.314 16.6973 432.213 16.3613 432.213 16.0137H433.578C433.594 16.2754 433.666 16.4844 433.795 16.6406C433.928 16.793 434.092 16.9043 434.287 16.9746C434.486 17.041 434.691 17.0742 434.902 17.0742C435.156 17.0742 435.369 17.041 435.541 16.9746C435.713 16.9043 435.844 16.8105 435.934 16.6934C436.023 16.5723 436.068 16.4355 436.068 16.2832Z"
    fill="url(#paint2_linear_26007_26985)"
  />
  <defs>
    <linearGradient
      id="paint0_linear_26007_26985"
      x1="228"
      y1="0"
      x2="228"
      y2="28"
      gradientUnits="userSpaceOnUse"
    >
      <stop stop-color="#07051A" />
      <stop offset="1" stop-color="#020B34" />
    </linearGradient>
    <linearGradient
      id="paint1_linear_26007_26985"
      x1="138"
      y1="14"
      x2="219.383"
      y2="25.4047"
      gradientUnits="userSpaceOnUse"
    >
      <stop stop-color="#F7FF01" />
      <stop offset="1" stop-color="#F89251" />
    </linearGradient>
    <linearGradient
      id="paint2_linear_26007_26985"
      x1="356"
      y1="14"
      x2="437.383"
      y2="25.4047"
      gradientUnits="userSpaceOnUse"
    >
      <stop stop-color="#F7FF01" />
      <stop offset="1" stop-color="#F89251" />
    </linearGradient>
  </defs>
</svg>
