<svg width="470" height="28" viewBox="0 0 470 28" fill="none" xmlns="http://www.w3.org/2000/svg">
<rect width="470" height="28" fill="url(#paint0_linear_26165_26805)"/>
<path d="M14.1523 12.953C14.0229 12.6979 13.8664 12.4515 13.6831 12.2503C13.5547 12.1039 13.4174 11.9666 13.2982 11.8294C13.0416 11.5549 12.7403 11.3435 12.4301 11.141C11.7182 10.6626 10.9268 10.4102 10.0735 10.3113C9.55615 10.261 9.0395 10.2832 8.53287 10.4053C8.43337 10.4315 8.34303 10.4669 8.23438 10.484C8.32437 10.4123 8.41436 10.3407 8.49537 10.278C8.81059 10.0543 9.14448 9.88522 9.50601 9.76175C10.4638 9.40824 11.433 9.29968 12.432 9.45438C13.2221 9.57986 13.9594 9.86806 14.6345 10.2917C14.7166 10.3378 14.7896 10.3929 14.8535 10.4389C14.9083 10.4757 14.9449 10.5123 15.0175 10.513C15.0356 10.5132 15.0539 10.5315 15.0631 10.5406C15.1819 10.6415 15.3189 10.7426 15.4469 10.8526C15.4559 10.8437 15.4739 10.8257 15.4829 10.8167C15.5096 10.7716 15.5457 10.7538 15.6093 10.7635C15.6637 10.764 15.7002 10.7825 15.7368 10.8192C15.7917 10.8741 15.8558 10.9382 15.9108 10.9931C15.9657 11.0481 16.0025 11.1028 16.0213 11.1755C16.04 11.2301 16.0226 11.3025 16.0593 11.3573C16.0685 11.3664 16.0505 11.3844 16.0416 11.3934C16.1053 11.4212 16.1241 11.4939 16.0704 11.5659C16.1426 11.5304 16.1431 11.5848 16.1798 11.6214C16.2257 11.6853 16.135 11.6844 16.1264 11.7297C16.1445 11.7299 16.1535 11.7209 16.1717 11.7211C16.2078 11.7033 16.2259 11.7035 16.2535 11.7491C16.2812 11.7947 16.2724 11.8218 16.2365 11.8577C16.2275 11.8667 16.2187 11.8938 16.2097 11.9028L16.2188 11.9119C16.2278 11.903 16.246 11.9031 16.2549 11.8942C16.2909 11.8582 16.3273 11.8767 16.3458 11.9132C16.3734 11.9588 16.3736 11.9769 16.3285 12.0037C16.3196 12.0127 16.3106 12.0216 16.3016 12.0306C16.2926 12.0396 16.2928 12.0577 16.2928 12.0577C16.3019 12.0669 16.3109 12.0579 16.3201 12.0671C16.3201 12.0671 16.3291 12.0581 16.3472 12.0583C16.4374 12.0047 16.4374 12.0047 16.4928 12.1141C16.4659 12.141 16.4298 12.1588 16.4028 12.1858L16.412 12.1949C16.4481 12.1771 16.4842 12.1593 16.5203 12.1415C16.5388 12.178 16.5662 12.2055 16.5756 12.2328C16.5757 12.2509 16.5307 12.2777 16.5037 12.3046C16.5037 12.3046 16.5129 12.3138 16.5039 12.3227C16.522 12.3229 16.54 12.305 16.5581 12.3051C16.5853 12.2963 16.6032 12.2784 16.6212 12.2604C16.6486 12.2879 16.6671 12.3243 16.6946 12.3518C16.6677 12.3787 16.6316 12.3965 16.6046 12.4235C16.6321 12.4509 16.6321 12.4509 16.7492 12.3704C16.7767 12.3979 16.7951 12.4344 16.8226 12.4618C16.7957 12.4888 16.7687 12.5157 16.7326 12.5335C16.7418 12.5427 16.7418 12.5427 16.7509 12.5518C16.796 12.525 16.823 12.4981 16.868 12.4713C16.8955 12.4988 16.9048 12.5261 16.9323 12.5536C16.9054 12.5805 16.8874 12.5985 16.8694 12.6164C16.8694 12.6164 16.8786 12.6256 16.8696 12.6346C16.8878 12.6347 16.9059 12.6349 16.9149 12.6259C16.9961 12.5814 16.9961 12.5814 17.0603 12.6636C17.0513 12.6726 17.0334 12.6906 17.0336 12.7087C17.0336 12.7087 17.0336 12.7087 17.0427 12.7178C17.0607 12.6999 17.0788 12.7001 17.0968 12.6821C17.1419 12.6553 17.2056 12.6831 17.2151 12.7286C17.2153 12.7467 17.2063 12.7557 17.1975 12.7828C17.1975 12.7828 17.1975 12.7828 17.2066 12.792C17.2516 12.7471 17.288 12.7655 17.3156 12.8112C17.334 12.8295 17.3704 12.848 17.3977 12.8573C17.425 12.8666 17.4523 12.8759 17.4886 12.8763C17.5611 12.877 17.6249 12.9048 17.6618 12.9777C17.671 12.9869 17.6801 12.996 17.6893 13.0052C17.7347 13.0147 17.7441 13.042 17.7354 13.0872C17.8173 13.1152 17.8724 13.1883 17.8548 13.2425C17.9001 13.2339 17.9365 13.2524 17.9189 13.3066L17.928 13.3158C17.9645 13.3343 17.9828 13.3526 17.956 13.3977C18.0015 13.4072 18.0379 13.4257 18.0203 13.4799C18.0839 13.4896 18.0932 13.5169 18.0756 13.5711C18.121 13.5806 18.1483 13.5899 18.1488 13.6444C18.1488 13.6444 18.149 13.6625 18.158 13.6535C18.2034 13.663 18.2038 13.6993 18.2041 13.7356C18.2587 13.7542 18.277 13.7725 18.2594 13.8268C18.323 13.8365 18.3413 13.8548 18.3237 13.909C18.3783 13.9277 18.4429 14.0462 18.4342 14.0914C18.4434 14.1006 18.4615 14.1008 18.4615 14.1008C18.4892 14.1464 18.517 14.2101 18.5446 14.2557C18.5631 14.2922 18.5906 14.3196 18.6091 14.3561C18.6184 14.3834 18.6277 14.4107 18.6461 14.429C18.6552 14.4381 18.6735 14.4564 18.6829 14.4837C18.7015 14.5383 18.7202 14.5929 18.7478 14.6385C18.7663 14.675 18.7939 14.7206 18.8124 14.757C18.8401 14.8026 18.8496 14.8481 18.8772 14.8937C18.8959 14.9483 18.9327 15.003 18.9513 15.0576C18.9978 15.1759 19.0533 15.2853 19.0906 15.3945C19.1188 15.4945 19.1561 15.6036 19.1932 15.6947C19.1934 15.7128 19.2026 15.722 19.2027 15.7401C19.1853 15.8125 19.2131 15.8762 19.2681 15.9312C19.2955 15.9586 19.314 15.9951 19.3325 16.0315C19.3601 16.0771 19.3607 16.1316 19.3158 16.1765C19.2888 16.2034 19.2892 16.2397 19.3346 16.2492C19.4165 16.2772 19.4626 16.3592 19.4814 16.432C19.4908 16.4593 19.4548 16.4952 19.4371 16.5313C19.4282 16.5584 19.4193 16.5674 19.4013 16.5853C19.4286 16.5947 19.4378 16.6038 19.465 16.6132C19.5832 16.6415 19.6568 16.751 19.6216 16.8595C19.6217 16.8776 19.6038 16.8956 19.5948 16.9046C19.5407 16.9403 19.5411 16.9766 19.5957 16.9953C19.6503 17.0139 19.6869 17.0506 19.7237 17.1053C19.7513 17.1509 19.7427 17.1962 19.7069 17.2502C19.6622 17.3133 19.6624 17.3314 19.7261 17.3592C19.8265 17.4237 19.8543 17.4874 19.8284 17.6232C19.802 17.7046 19.7756 17.7859 19.7491 17.8673C19.7315 17.9215 19.6863 17.9301 19.6317 17.9115C19.641 17.9388 19.6504 17.9661 19.6597 17.9934C19.6692 18.0388 19.6787 18.0842 19.6609 18.1203C19.5989 18.2739 19.5369 18.4274 19.4749 18.581C19.3509 18.8881 19.2996 19.2141 19.2484 19.54C19.2315 19.6668 19.1862 19.6754 19.0768 19.62C18.9856 19.5647 18.8853 19.5003 18.7941 19.445C18.7757 19.4267 18.7576 19.4265 18.7213 19.4261C18.5489 19.4154 18.3857 19.4138 18.2223 19.3941C18.1224 19.3841 18.0222 19.3378 17.9221 19.2915C17.64 19.189 17.4475 18.9786 17.2818 18.7231C17.153 18.5224 17.0963 18.2861 17.103 18.0413C17.1016 17.8962 17.1546 17.7516 17.1713 17.6067C17.1883 17.4799 17.2325 17.3625 17.3131 17.2635C17.3848 17.1735 17.4021 17.083 17.4373 16.9745C17.4725 16.866 17.4533 16.757 17.4433 16.6572C17.4324 16.4667 17.3402 16.3025 17.1938 16.1742C17.1116 16.1099 17.0202 16.0365 16.938 15.9722C16.9105 15.9448 16.8922 15.9265 16.8919 15.8902C16.8913 15.8358 16.8818 15.7903 16.8905 15.7451C16.9333 15.4825 16.8676 15.2552 16.7475 15.0273C16.6921 14.918 16.6187 14.8266 16.5361 14.7261C16.426 14.598 16.2894 14.5333 16.1348 14.4864C16.0621 14.4676 16.0621 14.4676 16.0703 14.3861C16.0874 14.2774 16.1045 14.1688 16.1035 14.0599C16.1012 13.8241 15.9995 13.6146 15.8346 13.4498C15.7797 13.3949 15.7068 13.3579 15.6339 13.3209C15.4062 13.219 15.1697 13.1442 14.9074 13.2051C14.7355 13.2488 14.5819 13.3108 14.447 13.4274C14.375 13.4811 14.3296 13.4716 14.2746 13.4167C14.1919 13.298 14.1091 13.1793 14.0896 13.034C14.0984 13.0069 14.0981 12.9706 14.1523 12.953ZM18.95 18.6848C18.9767 18.6397 19.0394 18.5587 19.084 18.4775C19.1999 18.27 19.2157 18.0344 19.1591 17.7981C19.1307 17.68 19.0842 17.5616 18.9929 17.4882C18.8008 17.3141 18.5914 17.2304 18.3375 17.228C18.1108 17.2349 17.912 17.3055 17.741 17.4399C17.4892 17.6551 17.374 17.9351 17.3953 18.2618C17.396 18.3343 17.4148 18.407 17.4518 18.4799C17.5719 18.7078 17.7548 18.8728 18.0003 18.9386C18.3368 19.0416 18.6442 18.9539 18.95 18.6848Z" fill="#F41795"/>
<path d="M38.0664 14.1445H35.8926L35.8809 13.0723H37.7793C38.0996 13.0723 38.3711 13.0254 38.5938 12.9316C38.8203 12.834 38.9922 12.6953 39.1094 12.5156C39.2266 12.332 39.2852 12.1113 39.2852 11.8535C39.2852 11.5684 39.2305 11.3359 39.1211 11.1562C39.0117 10.9766 38.8438 10.8457 38.6172 10.7637C38.3945 10.6816 38.1094 10.6406 37.7617 10.6406H36.3379V18H34.8672V9.46875H37.7617C38.2305 9.46875 38.6484 9.51367 39.0156 9.60352C39.3867 9.69336 39.7012 9.83398 39.959 10.0254C40.2207 10.2129 40.418 10.4512 40.5508 10.7402C40.6875 11.0293 40.7559 11.373 40.7559 11.7715C40.7559 12.123 40.6719 12.4453 40.5039 12.7383C40.3359 13.0273 40.0879 13.2637 39.7598 13.4473C39.4316 13.6309 39.0234 13.7402 38.5352 13.7754L38.0664 14.1445ZM38.002 18H35.4297L36.0918 16.834H38.002C38.334 16.834 38.6113 16.7793 38.834 16.6699C39.0566 16.5566 39.2227 16.4023 39.332 16.207C39.4453 16.0078 39.502 15.7754 39.502 15.5098C39.502 15.2324 39.4531 14.9922 39.3555 14.7891C39.2578 14.582 39.1035 14.4238 38.8926 14.3145C38.6816 14.2012 38.4062 14.1445 38.0664 14.1445H36.4141L36.4258 13.0723H38.5762L38.9102 13.4766C39.3789 13.4922 39.7637 13.5957 40.0645 13.7871C40.3691 13.9785 40.5957 14.2266 40.7441 14.5312C40.8926 14.8359 40.9668 15.1641 40.9668 15.5156C40.9668 16.0586 40.8477 16.5137 40.6094 16.8809C40.375 17.248 40.0371 17.5273 39.5957 17.7188C39.1543 17.9062 38.623 18 38.002 18ZM46.123 16.5059V11.6602H47.541V18H46.2051L46.123 16.5059ZM46.3223 15.1875L46.7969 15.1758C46.7969 15.6016 46.75 15.9941 46.6562 16.3535C46.5625 16.709 46.418 17.0195 46.2227 17.2852C46.0273 17.5469 45.7773 17.752 45.4727 17.9004C45.168 18.0449 44.8027 18.1172 44.377 18.1172C44.0684 18.1172 43.7852 18.0723 43.5273 17.9824C43.2695 17.8926 43.0469 17.7539 42.8594 17.5664C42.6758 17.3789 42.5332 17.1348 42.4316 16.834C42.3301 16.5332 42.2793 16.1738 42.2793 15.7559V11.6602H43.6914V15.7676C43.6914 15.998 43.7188 16.1914 43.7734 16.3477C43.8281 16.5 43.9023 16.623 43.9961 16.7168C44.0898 16.8105 44.1992 16.877 44.3242 16.916C44.4492 16.9551 44.582 16.9746 44.7227 16.9746C45.125 16.9746 45.4414 16.8965 45.6719 16.7402C45.9062 16.5801 46.0723 16.3652 46.1699 16.0957C46.2715 15.8262 46.3223 15.5234 46.3223 15.1875ZM50.8281 17.3086L52.5508 11.6602H54.0625L51.5195 18.9668C51.4609 19.123 51.3848 19.293 51.291 19.4766C51.1973 19.6602 51.0742 19.834 50.9219 19.998C50.7734 20.166 50.5879 20.3008 50.3652 20.4023C50.1426 20.5078 49.873 20.5605 49.5566 20.5605C49.4316 20.5605 49.3105 20.5488 49.1934 20.5254C49.0801 20.5059 48.9727 20.4844 48.8711 20.4609L48.8652 19.3828C48.9043 19.3867 48.9512 19.3906 49.0059 19.3945C49.0645 19.3984 49.1113 19.4004 49.1465 19.4004C49.3809 19.4004 49.5762 19.3711 49.7324 19.3125C49.8887 19.2578 50.0156 19.168 50.1133 19.043C50.2148 18.918 50.3008 18.75 50.3711 18.5391L50.8281 17.3086ZM49.8555 11.6602L51.3613 16.4062L51.6133 17.8945L50.6348 18.1465L48.332 11.6602H49.8555ZM61.416 16.2832C61.416 16.1426 61.3809 16.0156 61.3105 15.9023C61.2402 15.7852 61.1055 15.6797 60.9062 15.5859C60.7109 15.4922 60.4219 15.4062 60.0391 15.3281C59.7031 15.2539 59.3945 15.166 59.1133 15.0645C58.8359 14.959 58.5977 14.832 58.3984 14.6836C58.1992 14.5352 58.0449 14.3594 57.9355 14.1562C57.8262 13.9531 57.7715 13.7188 57.7715 13.4531C57.7715 13.1953 57.8281 12.9512 57.9414 12.7207C58.0547 12.4902 58.2168 12.2871 58.4277 12.1113C58.6387 11.9355 58.8945 11.7969 59.1953 11.6953C59.5 11.5938 59.8398 11.543 60.2148 11.543C60.7461 11.543 61.2012 11.6328 61.5801 11.8125C61.9629 11.9883 62.2559 12.2285 62.459 12.5332C62.6621 12.834 62.7637 13.1738 62.7637 13.5527H61.3516C61.3516 13.3848 61.3086 13.2285 61.2227 13.084C61.1406 12.9355 61.0156 12.8164 60.8477 12.7266C60.6797 12.6328 60.4688 12.5859 60.2148 12.5859C59.9727 12.5859 59.7715 12.625 59.6113 12.7031C59.4551 12.7773 59.3379 12.875 59.2598 12.9961C59.1855 13.1172 59.1484 13.25 59.1484 13.3945C59.1484 13.5 59.168 13.5957 59.207 13.6816C59.25 13.7637 59.3203 13.8398 59.418 13.9102C59.5156 13.9766 59.6484 14.0391 59.8164 14.0977C59.9883 14.1562 60.2031 14.2129 60.4609 14.2676C60.9453 14.3691 61.3613 14.5 61.709 14.6602C62.0605 14.8164 62.3301 15.0195 62.5176 15.2695C62.7051 15.5156 62.7988 15.8281 62.7988 16.207C62.7988 16.4883 62.7383 16.7461 62.6172 16.9805C62.5 17.2109 62.3281 17.4121 62.1016 17.584C61.875 17.752 61.6035 17.8828 61.2871 17.9766C60.9746 18.0703 60.623 18.1172 60.2324 18.1172C59.6582 18.1172 59.1719 18.0156 58.7734 17.8125C58.375 17.6055 58.0723 17.3418 57.8652 17.0215C57.6621 16.6973 57.5605 16.3613 57.5605 16.0137H58.9258C58.9414 16.2754 59.0137 16.4844 59.1426 16.6406C59.2754 16.793 59.4395 16.9043 59.6348 16.9746C59.834 17.041 60.0391 17.0742 60.25 17.0742C60.5039 17.0742 60.7168 17.041 60.8887 16.9746C61.0605 16.9043 61.1914 16.8105 61.2812 16.6934C61.3711 16.5723 61.416 16.4355 61.416 16.2832ZM65.459 9V18H64.041V9H65.459ZM69.3965 11.6602L66.6367 14.7188L65.125 16.2656L64.7559 15.0703L65.8984 13.6582L67.6914 11.6602H69.3965ZM67.9961 18L65.9395 15.0234L66.8301 14.0332L69.6309 18H67.9961ZM71.8047 11.6602V18H70.3867V11.6602H71.8047ZM70.293 9.99609C70.293 9.78125 70.3633 9.60352 70.5039 9.46289C70.6484 9.31836 70.8477 9.24609 71.1016 9.24609C71.3516 9.24609 71.5488 9.31836 71.6934 9.46289C71.8379 9.60352 71.9102 9.78125 71.9102 9.99609C71.9102 10.207 71.8379 10.3828 71.6934 10.5234C71.5488 10.6641 71.3516 10.7344 71.1016 10.7344C70.8477 10.7344 70.6484 10.6641 70.5039 10.5234C70.3633 10.3828 70.293 10.207 70.293 9.99609ZM74.752 13.0137V18H73.3398V11.6602H74.6699L74.752 13.0137ZM74.5 14.5957L74.043 14.5898C74.0469 14.1406 74.1094 13.7285 74.2305 13.3535C74.3555 12.9785 74.5273 12.6562 74.7461 12.3867C74.9688 12.1172 75.2344 11.9102 75.543 11.7656C75.8516 11.6172 76.1953 11.543 76.5742 11.543C76.8789 11.543 77.1543 11.5859 77.4004 11.6719C77.6504 11.7539 77.8633 11.8887 78.0391 12.0762C78.2188 12.2637 78.3555 12.5078 78.4492 12.8086C78.543 13.1055 78.5898 13.4707 78.5898 13.9043V18H77.1719V13.8984C77.1719 13.5938 77.127 13.3535 77.0371 13.1777C76.9512 12.998 76.8242 12.8711 76.6562 12.7969C76.4922 12.7188 76.2871 12.6797 76.041 12.6797C75.7988 12.6797 75.582 12.7305 75.3906 12.832C75.1992 12.9336 75.0371 13.0723 74.9043 13.248C74.7754 13.4238 74.6758 13.627 74.6055 13.8574C74.5352 14.0879 74.5 14.334 74.5 14.5957ZM83.5879 16.2832C83.5879 16.1426 83.5527 16.0156 83.4824 15.9023C83.4121 15.7852 83.2773 15.6797 83.0781 15.5859C82.8828 15.4922 82.5938 15.4062 82.2109 15.3281C81.875 15.2539 81.5664 15.166 81.2852 15.0645C81.0078 14.959 80.7695 14.832 80.5703 14.6836C80.3711 14.5352 80.2168 14.3594 80.1074 14.1562C79.998 13.9531 79.9434 13.7188 79.9434 13.4531C79.9434 13.1953 80 12.9512 80.1133 12.7207C80.2266 12.4902 80.3887 12.2871 80.5996 12.1113C80.8105 11.9355 81.0664 11.7969 81.3672 11.6953C81.6719 11.5938 82.0117 11.543 82.3867 11.543C82.918 11.543 83.373 11.6328 83.752 11.8125C84.1348 11.9883 84.4277 12.2285 84.6309 12.5332C84.834 12.834 84.9355 13.1738 84.9355 13.5527H83.5234C83.5234 13.3848 83.4805 13.2285 83.3945 13.084C83.3125 12.9355 83.1875 12.8164 83.0195 12.7266C82.8516 12.6328 82.6406 12.5859 82.3867 12.5859C82.1445 12.5859 81.9434 12.625 81.7832 12.7031C81.627 12.7773 81.5098 12.875 81.4316 12.9961C81.3574 13.1172 81.3203 13.25 81.3203 13.3945C81.3203 13.5 81.3398 13.5957 81.3789 13.6816C81.4219 13.7637 81.4922 13.8398 81.5898 13.9102C81.6875 13.9766 81.8203 14.0391 81.9883 14.0977C82.1602 14.1562 82.375 14.2129 82.6328 14.2676C83.1172 14.3691 83.5332 14.5 83.8809 14.6602C84.2324 14.8164 84.502 15.0195 84.6895 15.2695C84.877 15.5156 84.9707 15.8281 84.9707 16.207C84.9707 16.4883 84.9102 16.7461 84.7891 16.9805C84.6719 17.2109 84.5 17.4121 84.2734 17.584C84.0469 17.752 83.7754 17.8828 83.459 17.9766C83.1465 18.0703 82.7949 18.1172 82.4043 18.1172C81.8301 18.1172 81.3438 18.0156 80.9453 17.8125C80.5469 17.6055 80.2441 17.3418 80.0371 17.0215C79.834 16.6973 79.7324 16.3613 79.7324 16.0137H81.0977C81.1133 16.2754 81.1855 16.4844 81.3145 16.6406C81.4473 16.793 81.6113 16.9043 81.8066 16.9746C82.0059 17.041 82.2109 17.0742 82.4219 17.0742C82.6758 17.0742 82.8887 17.041 83.0605 16.9746C83.2324 16.9043 83.3633 16.8105 83.4531 16.6934C83.543 16.5723 83.5879 16.4355 83.5879 16.2832ZM90.918 16.5938L92.3828 11.6602H93.2852L93.0391 13.1367L91.5625 18H90.7539L90.918 16.5938ZM90.0566 11.6602L91.1992 16.6172L91.293 18H90.3906L88.6738 11.6602H90.0566ZM94.6562 16.5586L95.7637 11.6602H97.1406L95.4297 18H94.5273L94.6562 16.5586ZM93.4375 11.6602L94.8848 16.5352L95.0664 18H94.2578L92.7637 13.1309L92.5176 11.6602H93.4375ZM99.6133 11.6602V18H98.1953V11.6602H99.6133ZM98.1016 9.99609C98.1016 9.78125 98.1719 9.60352 98.3125 9.46289C98.457 9.31836 98.6562 9.24609 98.9102 9.24609C99.1602 9.24609 99.3574 9.31836 99.502 9.46289C99.6465 9.60352 99.7188 9.78125 99.7188 9.99609C99.7188 10.207 99.6465 10.3828 99.502 10.5234C99.3574 10.6641 99.1602 10.7344 98.9102 10.7344C98.6562 10.7344 98.457 10.6641 98.3125 10.5234C98.1719 10.3828 98.1016 10.207 98.1016 9.99609ZM104.066 11.6602V12.6914H100.492V11.6602H104.066ZM101.523 10.1074H102.936V16.248C102.936 16.4434 102.963 16.5938 103.018 16.6992C103.076 16.8008 103.156 16.8691 103.258 16.9043C103.359 16.9395 103.479 16.957 103.615 16.957C103.713 16.957 103.807 16.9512 103.896 16.9395C103.986 16.9277 104.059 16.916 104.113 16.9043L104.119 17.9824C104.002 18.0176 103.865 18.0488 103.709 18.0762C103.557 18.1035 103.381 18.1172 103.182 18.1172C102.857 18.1172 102.57 18.0605 102.32 17.9473C102.07 17.8301 101.875 17.6406 101.734 17.3789C101.594 17.1172 101.523 16.7695 101.523 16.3359V10.1074ZM106.551 9V18H105.145V9H106.551ZM106.305 14.5957L105.848 14.5898C105.852 14.1523 105.912 13.748 106.029 13.377C106.15 13.0059 106.318 12.6836 106.533 12.4102C106.752 12.1328 107.014 11.9199 107.318 11.7715C107.623 11.6191 107.961 11.543 108.332 11.543C108.645 11.543 108.926 11.5859 109.176 11.6719C109.43 11.7578 109.648 11.8965 109.832 12.0879C110.016 12.2754 110.154 12.5215 110.248 12.8262C110.346 13.127 110.395 13.4941 110.395 13.9277V18H108.977V13.916C108.977 13.6113 108.932 13.3691 108.842 13.1895C108.756 13.0098 108.629 12.8809 108.461 12.8027C108.293 12.7207 108.088 12.6797 107.846 12.6797C107.592 12.6797 107.367 12.7305 107.172 12.832C106.98 12.9336 106.82 13.0723 106.691 13.248C106.562 13.4238 106.465 13.627 106.398 13.8574C106.336 14.0879 106.305 14.334 106.305 14.5957ZM118.68 16.6875V9H120.098V18H118.814L118.68 16.6875ZM114.555 14.9004V14.7773C114.555 14.2969 114.611 13.8594 114.725 13.4648C114.838 13.0664 115.002 12.7246 115.217 12.4395C115.432 12.1504 115.693 11.9297 116.002 11.7773C116.311 11.6211 116.658 11.543 117.045 11.543C117.428 11.543 117.764 11.6172 118.053 11.7656C118.342 11.9141 118.588 12.127 118.791 12.4043C118.994 12.6777 119.156 13.0059 119.277 13.3887C119.398 13.7676 119.484 14.1895 119.535 14.6543V15.0469C119.484 15.5 119.398 15.9141 119.277 16.2891C119.156 16.6641 118.994 16.9883 118.791 17.2617C118.588 17.5352 118.34 17.7461 118.047 17.8945C117.758 18.043 117.42 18.1172 117.033 18.1172C116.65 18.1172 116.305 18.0371 115.996 17.877C115.691 17.7168 115.432 17.4922 115.217 17.2031C115.002 16.9141 114.838 16.5742 114.725 16.1836C114.611 15.7891 114.555 15.3613 114.555 14.9004ZM115.967 14.7773V14.9004C115.967 15.1895 115.992 15.459 116.043 15.709C116.098 15.959 116.182 16.1797 116.295 16.3711C116.408 16.5586 116.555 16.707 116.734 16.8164C116.918 16.9219 117.137 16.9746 117.391 16.9746C117.711 16.9746 117.975 16.9043 118.182 16.7637C118.389 16.623 118.551 16.4336 118.668 16.1953C118.789 15.9531 118.871 15.6836 118.914 15.3867V14.3262C118.891 14.0957 118.842 13.8809 118.768 13.6816C118.697 13.4824 118.602 13.3086 118.48 13.1602C118.359 13.0078 118.209 12.8906 118.029 12.8086C117.854 12.7227 117.645 12.6797 117.402 12.6797C117.145 12.6797 116.926 12.7344 116.746 12.8438C116.566 12.9531 116.418 13.1035 116.301 13.2949C116.188 13.4863 116.104 13.709 116.049 13.9629C115.994 14.2168 115.967 14.4883 115.967 14.7773ZM123.086 11.6602V18H121.668V11.6602H123.086ZM121.574 9.99609C121.574 9.78125 121.645 9.60352 121.785 9.46289C121.93 9.31836 122.129 9.24609 122.383 9.24609C122.633 9.24609 122.83 9.31836 122.975 9.46289C123.119 9.60352 123.191 9.78125 123.191 9.99609C123.191 10.207 123.119 10.3828 122.975 10.5234C122.83 10.6641 122.633 10.7344 122.383 10.7344C122.129 10.7344 121.93 10.6641 121.785 10.5234C121.645 10.3828 121.574 10.207 121.574 9.99609ZM128.189 16.2832C128.189 16.1426 128.154 16.0156 128.084 15.9023C128.014 15.7852 127.879 15.6797 127.68 15.5859C127.484 15.4922 127.195 15.4062 126.812 15.3281C126.477 15.2539 126.168 15.166 125.887 15.0645C125.609 14.959 125.371 14.832 125.172 14.6836C124.973 14.5352 124.818 14.3594 124.709 14.1562C124.6 13.9531 124.545 13.7188 124.545 13.4531C124.545 13.1953 124.602 12.9512 124.715 12.7207C124.828 12.4902 124.99 12.2871 125.201 12.1113C125.412 11.9355 125.668 11.7969 125.969 11.6953C126.273 11.5938 126.613 11.543 126.988 11.543C127.52 11.543 127.975 11.6328 128.354 11.8125C128.736 11.9883 129.029 12.2285 129.232 12.5332C129.436 12.834 129.537 13.1738 129.537 13.5527H128.125C128.125 13.3848 128.082 13.2285 127.996 13.084C127.914 12.9355 127.789 12.8164 127.621 12.7266C127.453 12.6328 127.242 12.5859 126.988 12.5859C126.746 12.5859 126.545 12.625 126.385 12.7031C126.229 12.7773 126.111 12.875 126.033 12.9961C125.959 13.1172 125.922 13.25 125.922 13.3945C125.922 13.5 125.941 13.5957 125.98 13.6816C126.023 13.7637 126.094 13.8398 126.191 13.9102C126.289 13.9766 126.422 14.0391 126.59 14.0977C126.762 14.1562 126.977 14.2129 127.234 14.2676C127.719 14.3691 128.135 14.5 128.482 14.6602C128.834 14.8164 129.104 15.0195 129.291 15.2695C129.479 15.5156 129.572 15.8281 129.572 16.207C129.572 16.4883 129.512 16.7461 129.391 16.9805C129.273 17.2109 129.102 17.4121 128.875 17.584C128.648 17.752 128.377 17.8828 128.061 17.9766C127.748 18.0703 127.396 18.1172 127.006 18.1172C126.432 18.1172 125.945 18.0156 125.547 17.8125C125.148 17.6055 124.846 17.3418 124.639 17.0215C124.436 16.6973 124.334 16.3613 124.334 16.0137H125.699C125.715 16.2754 125.787 16.4844 125.916 16.6406C126.049 16.793 126.213 16.9043 126.408 16.9746C126.607 17.041 126.812 17.0742 127.023 17.0742C127.277 17.0742 127.49 17.041 127.662 16.9746C127.834 16.9043 127.965 16.8105 128.055 16.6934C128.145 16.5723 128.189 16.4355 128.189 16.2832ZM133.398 16.9922C133.629 16.9922 133.836 16.9473 134.02 16.8574C134.207 16.7637 134.357 16.6348 134.471 16.4707C134.588 16.3066 134.652 16.1172 134.664 15.9023H135.994C135.986 16.3125 135.865 16.6855 135.631 17.0215C135.396 17.3574 135.086 17.625 134.699 17.8242C134.312 18.0195 133.885 18.1172 133.416 18.1172C132.932 18.1172 132.51 18.0352 132.15 17.8711C131.791 17.7031 131.492 17.4727 131.254 17.1797C131.016 16.8867 130.836 16.5488 130.715 16.166C130.598 15.7832 130.539 15.373 130.539 14.9355V14.7305C130.539 14.293 130.598 13.8828 130.715 13.5C130.836 13.1133 131.016 12.7734 131.254 12.4805C131.492 12.1875 131.791 11.959 132.15 11.7949C132.51 11.627 132.93 11.543 133.41 11.543C133.918 11.543 134.363 11.6445 134.746 11.8477C135.129 12.0469 135.43 12.3262 135.648 12.6855C135.871 13.041 135.986 13.4551 135.994 13.9277H134.664C134.652 13.6934 134.594 13.4824 134.488 13.2949C134.387 13.1035 134.242 12.9512 134.055 12.8379C133.871 12.7246 133.65 12.668 133.393 12.668C133.107 12.668 132.871 12.7266 132.684 12.8438C132.496 12.957 132.35 13.1133 132.244 13.3125C132.139 13.5078 132.062 13.7285 132.016 13.9746C131.973 14.2168 131.951 14.4688 131.951 14.7305V14.9355C131.951 15.1973 131.973 15.4512 132.016 15.6973C132.059 15.9434 132.133 16.1641 132.238 16.3594C132.348 16.5508 132.496 16.7051 132.684 16.8223C132.871 16.9355 133.109 16.9922 133.398 16.9922ZM136.809 14.9004V14.7656C136.809 14.3086 136.875 13.8848 137.008 13.4941C137.141 13.0996 137.332 12.7578 137.582 12.4688C137.836 12.1758 138.145 11.9492 138.508 11.7891C138.875 11.625 139.289 11.543 139.75 11.543C140.215 11.543 140.629 11.625 140.992 11.7891C141.359 11.9492 141.67 12.1758 141.924 12.4688C142.178 12.7578 142.371 13.0996 142.504 13.4941C142.637 13.8848 142.703 14.3086 142.703 14.7656V14.9004C142.703 15.3574 142.637 15.7812 142.504 16.1719C142.371 16.5625 142.178 16.9043 141.924 17.1973C141.67 17.4863 141.361 17.7129 140.998 17.877C140.635 18.0371 140.223 18.1172 139.762 18.1172C139.297 18.1172 138.881 18.0371 138.514 17.877C138.15 17.7129 137.842 17.4863 137.588 17.1973C137.334 16.9043 137.141 16.5625 137.008 16.1719C136.875 15.7812 136.809 15.3574 136.809 14.9004ZM138.221 14.7656V14.9004C138.221 15.1855 138.25 15.4551 138.309 15.709C138.367 15.9629 138.459 16.1855 138.584 16.377C138.709 16.5684 138.869 16.7188 139.064 16.8281C139.26 16.9375 139.492 16.9922 139.762 16.9922C140.023 16.9922 140.25 16.9375 140.441 16.8281C140.637 16.7188 140.797 16.5684 140.922 16.377C141.047 16.1855 141.139 15.9629 141.197 15.709C141.26 15.4551 141.291 15.1855 141.291 14.9004V14.7656C141.291 14.4844 141.26 14.2188 141.197 13.9688C141.139 13.7148 141.045 13.4902 140.916 13.2949C140.791 13.0996 140.631 12.9473 140.436 12.8379C140.244 12.7246 140.016 12.668 139.75 12.668C139.484 12.668 139.254 12.7246 139.059 12.8379C138.867 12.9473 138.709 13.0996 138.584 13.2949C138.459 13.4902 138.367 13.7148 138.309 13.9688C138.25 14.2188 138.221 14.4844 138.221 14.7656ZM147.701 16.5059V11.6602H149.119V18H147.783L147.701 16.5059ZM147.9 15.1875L148.375 15.1758C148.375 15.6016 148.328 15.9941 148.234 16.3535C148.141 16.709 147.996 17.0195 147.801 17.2852C147.605 17.5469 147.355 17.752 147.051 17.9004C146.746 18.0449 146.381 18.1172 145.955 18.1172C145.646 18.1172 145.363 18.0723 145.105 17.9824C144.848 17.8926 144.625 17.7539 144.438 17.5664C144.254 17.3789 144.111 17.1348 144.01 16.834C143.908 16.5332 143.857 16.1738 143.857 15.7559V11.6602H145.27V15.7676C145.27 15.998 145.297 16.1914 145.352 16.3477C145.406 16.5 145.48 16.623 145.574 16.7168C145.668 16.8105 145.777 16.877 145.902 16.916C146.027 16.9551 146.16 16.9746 146.301 16.9746C146.703 16.9746 147.02 16.8965 147.25 16.7402C147.484 16.5801 147.65 16.3652 147.748 16.0957C147.85 15.8262 147.9 15.5234 147.9 15.1875ZM151.967 13.0137V18H150.555V11.6602H151.885L151.967 13.0137ZM151.715 14.5957L151.258 14.5898C151.262 14.1406 151.324 13.7285 151.445 13.3535C151.57 12.9785 151.742 12.6562 151.961 12.3867C152.184 12.1172 152.449 11.9102 152.758 11.7656C153.066 11.6172 153.41 11.543 153.789 11.543C154.094 11.543 154.369 11.5859 154.615 11.6719C154.865 11.7539 155.078 11.8887 155.254 12.0762C155.434 12.2637 155.57 12.5078 155.664 12.8086C155.758 13.1055 155.805 13.4707 155.805 13.9043V18H154.387V13.8984C154.387 13.5938 154.342 13.3535 154.252 13.1777C154.166 12.998 154.039 12.8711 153.871 12.7969C153.707 12.7188 153.502 12.6797 153.256 12.6797C153.014 12.6797 152.797 12.7305 152.605 12.832C152.414 12.9336 152.252 13.0723 152.119 13.248C151.99 13.4238 151.891 13.627 151.82 13.8574C151.75 14.0879 151.715 14.334 151.715 14.5957ZM160.152 11.6602V12.6914H156.578V11.6602H160.152ZM157.609 10.1074H159.021V16.248C159.021 16.4434 159.049 16.5938 159.104 16.6992C159.162 16.8008 159.242 16.8691 159.344 16.9043C159.445 16.9395 159.564 16.957 159.701 16.957C159.799 16.957 159.893 16.9512 159.982 16.9395C160.072 16.9277 160.145 16.916 160.199 16.9043L160.205 17.9824C160.088 18.0176 159.951 18.0488 159.795 18.0762C159.643 18.1035 159.467 18.1172 159.268 18.1172C158.943 18.1172 158.656 18.0605 158.406 17.9473C158.156 17.8301 157.961 17.6406 157.82 17.3789C157.68 17.1172 157.609 16.7695 157.609 16.3359V10.1074ZM164.799 16.2832C164.799 16.1426 164.764 16.0156 164.693 15.9023C164.623 15.7852 164.488 15.6797 164.289 15.5859C164.094 15.4922 163.805 15.4062 163.422 15.3281C163.086 15.2539 162.777 15.166 162.496 15.0645C162.219 14.959 161.98 14.832 161.781 14.6836C161.582 14.5352 161.428 14.3594 161.318 14.1562C161.209 13.9531 161.154 13.7188 161.154 13.4531C161.154 13.1953 161.211 12.9512 161.324 12.7207C161.438 12.4902 161.6 12.2871 161.811 12.1113C162.021 11.9355 162.277 11.7969 162.578 11.6953C162.883 11.5938 163.223 11.543 163.598 11.543C164.129 11.543 164.584 11.6328 164.963 11.8125C165.346 11.9883 165.639 12.2285 165.842 12.5332C166.045 12.834 166.146 13.1738 166.146 13.5527H164.734C164.734 13.3848 164.691 13.2285 164.605 13.084C164.523 12.9355 164.398 12.8164 164.23 12.7266C164.062 12.6328 163.852 12.5859 163.598 12.5859C163.355 12.5859 163.154 12.625 162.994 12.7031C162.838 12.7773 162.721 12.875 162.643 12.9961C162.568 13.1172 162.531 13.25 162.531 13.3945C162.531 13.5 162.551 13.5957 162.59 13.6816C162.633 13.7637 162.703 13.8398 162.801 13.9102C162.898 13.9766 163.031 14.0391 163.199 14.0977C163.371 14.1562 163.586 14.2129 163.844 14.2676C164.328 14.3691 164.744 14.5 165.092 14.6602C165.443 14.8164 165.713 15.0195 165.9 15.2695C166.088 15.5156 166.182 15.8281 166.182 16.207C166.182 16.4883 166.121 16.7461 166 16.9805C165.883 17.2109 165.711 17.4121 165.484 17.584C165.258 17.752 164.986 17.8828 164.67 17.9766C164.357 18.0703 164.006 18.1172 163.615 18.1172C163.041 18.1172 162.555 18.0156 162.156 17.8125C161.758 17.6055 161.455 17.3418 161.248 17.0215C161.045 16.6973 160.943 16.3613 160.943 16.0137H162.309C162.324 16.2754 162.396 16.4844 162.525 16.6406C162.658 16.793 162.822 16.9043 163.018 16.9746C163.217 17.041 163.422 17.0742 163.633 17.0742C163.887 17.0742 164.1 17.041 164.271 16.9746C164.443 16.9043 164.574 16.8105 164.664 16.6934C164.754 16.5723 164.799 16.4355 164.799 16.2832ZM174.221 16.5059V11.6602H175.639V18H174.303L174.221 16.5059ZM174.42 15.1875L174.895 15.1758C174.895 15.6016 174.848 15.9941 174.754 16.3535C174.66 16.709 174.516 17.0195 174.32 17.2852C174.125 17.5469 173.875 17.752 173.57 17.9004C173.266 18.0449 172.9 18.1172 172.475 18.1172C172.166 18.1172 171.883 18.0723 171.625 17.9824C171.367 17.8926 171.145 17.7539 170.957 17.5664C170.773 17.3789 170.631 17.1348 170.529 16.834C170.428 16.5332 170.377 16.1738 170.377 15.7559V11.6602H171.789V15.7676C171.789 15.998 171.816 16.1914 171.871 16.3477C171.926 16.5 172 16.623 172.094 16.7168C172.188 16.8105 172.297 16.877 172.422 16.916C172.547 16.9551 172.68 16.9746 172.82 16.9746C173.223 16.9746 173.539 16.8965 173.77 16.7402C174.004 16.5801 174.17 16.3652 174.268 16.0957C174.369 15.8262 174.42 15.5234 174.42 15.1875ZM178.504 12.8789V20.4375H177.092V11.6602H178.393L178.504 12.8789ZM182.635 14.7715V14.8945C182.635 15.3555 182.58 15.7832 182.471 16.1777C182.365 16.5684 182.207 16.9102 181.996 17.2031C181.789 17.4922 181.533 17.7168 181.229 17.877C180.924 18.0371 180.572 18.1172 180.174 18.1172C179.779 18.1172 179.434 18.0449 179.137 17.9004C178.844 17.752 178.596 17.543 178.393 17.2734C178.189 17.0039 178.025 16.6875 177.9 16.3242C177.779 15.957 177.693 15.5547 177.643 15.1172V14.6426C177.693 14.1777 177.779 13.7559 177.9 13.377C178.025 12.998 178.189 12.6719 178.393 12.3984C178.596 12.125 178.844 11.9141 179.137 11.7656C179.43 11.6172 179.771 11.543 180.162 11.543C180.561 11.543 180.914 11.6211 181.223 11.7773C181.531 11.9297 181.791 12.1484 182.002 12.4336C182.213 12.7148 182.371 13.0547 182.477 13.4531C182.582 13.8477 182.635 14.2871 182.635 14.7715ZM181.223 14.8945V14.7715C181.223 14.4785 181.195 14.207 181.141 13.957C181.086 13.7031 181 13.4805 180.883 13.2891C180.766 13.0977 180.615 12.9492 180.432 12.8438C180.252 12.7344 180.035 12.6797 179.781 12.6797C179.531 12.6797 179.316 12.7227 179.137 12.8086C178.957 12.8906 178.807 13.0059 178.686 13.1543C178.564 13.3027 178.471 13.4766 178.404 13.6758C178.338 13.8711 178.291 14.084 178.264 14.3145V15.4512C178.311 15.7324 178.391 15.9902 178.504 16.2246C178.617 16.459 178.777 16.6465 178.984 16.7871C179.195 16.9238 179.465 16.9922 179.793 16.9922C180.047 16.9922 180.264 16.9375 180.443 16.8281C180.623 16.7188 180.77 16.5684 180.883 16.377C181 16.1816 181.086 15.957 181.141 15.7031C181.195 15.4492 181.223 15.1797 181.223 14.8945ZM189.73 11.6602V12.6914H186.156V11.6602H189.73ZM187.188 10.1074H188.6V16.248C188.6 16.4434 188.627 16.5938 188.682 16.6992C188.74 16.8008 188.82 16.8691 188.922 16.9043C189.023 16.9395 189.143 16.957 189.279 16.957C189.377 16.957 189.471 16.9512 189.561 16.9395C189.65 16.9277 189.723 16.916 189.777 16.9043L189.783 17.9824C189.666 18.0176 189.529 18.0488 189.373 18.0762C189.221 18.1035 189.045 18.1172 188.846 18.1172C188.521 18.1172 188.234 18.0605 187.984 17.9473C187.734 17.8301 187.539 17.6406 187.398 17.3789C187.258 17.1172 187.188 16.7695 187.188 16.3359V10.1074ZM190.41 14.9004V14.7656C190.41 14.3086 190.477 13.8848 190.609 13.4941C190.742 13.0996 190.934 12.7578 191.184 12.4688C191.438 12.1758 191.746 11.9492 192.109 11.7891C192.477 11.625 192.891 11.543 193.352 11.543C193.816 11.543 194.23 11.625 194.594 11.7891C194.961 11.9492 195.271 12.1758 195.525 12.4688C195.779 12.7578 195.973 13.0996 196.105 13.4941C196.238 13.8848 196.305 14.3086 196.305 14.7656V14.9004C196.305 15.3574 196.238 15.7812 196.105 16.1719C195.973 16.5625 195.779 16.9043 195.525 17.1973C195.271 17.4863 194.963 17.7129 194.6 17.877C194.236 18.0371 193.824 18.1172 193.363 18.1172C192.898 18.1172 192.482 18.0371 192.115 17.877C191.752 17.7129 191.443 17.4863 191.189 17.1973C190.936 16.9043 190.742 16.5625 190.609 16.1719C190.477 15.7812 190.41 15.3574 190.41 14.9004ZM191.822 14.7656V14.9004C191.822 15.1855 191.852 15.4551 191.91 15.709C191.969 15.9629 192.061 16.1855 192.186 16.377C192.311 16.5684 192.471 16.7188 192.666 16.8281C192.861 16.9375 193.094 16.9922 193.363 16.9922C193.625 16.9922 193.852 16.9375 194.043 16.8281C194.238 16.7188 194.398 16.5684 194.523 16.377C194.648 16.1855 194.74 15.9629 194.799 15.709C194.861 15.4551 194.893 15.1855 194.893 14.9004V14.7656C194.893 14.4844 194.861 14.2188 194.799 13.9688C194.74 13.7148 194.646 13.4902 194.518 13.2949C194.393 13.0996 194.232 12.9473 194.037 12.8379C193.846 12.7246 193.617 12.668 193.352 12.668C193.086 12.668 192.855 12.7246 192.66 12.8379C192.469 12.9473 192.311 13.0996 192.186 13.2949C192.061 13.4902 191.969 13.7148 191.91 13.9688C191.852 14.2188 191.822 14.4844 191.822 14.7656Z" fill="white"/>
<path d="M202.568 13.793V14.918H199.469V13.793H202.568ZM209.6 14.959V16.084H203.447L203.4 15.2344L207.08 9.46875H208.211L206.986 11.5664L204.871 14.959H209.6ZM208.533 9.46875V18H207.121V9.46875H208.533ZM216.104 13.0195V14.4141C216.104 15.082 216.037 15.6523 215.904 16.125C215.775 16.5938 215.588 16.9746 215.342 17.2676C215.096 17.5605 214.801 17.7754 214.457 17.9121C214.117 18.0488 213.736 18.1172 213.314 18.1172C212.979 18.1172 212.666 18.0742 212.377 17.9883C212.092 17.9023 211.834 17.7676 211.604 17.584C211.373 17.4004 211.176 17.1641 211.012 16.875C210.852 16.582 210.727 16.2324 210.637 15.8262C210.551 15.4199 210.508 14.9492 210.508 14.4141V13.0195C210.508 12.3477 210.574 11.7812 210.707 11.3203C210.84 10.8555 211.029 10.4785 211.275 10.1895C211.521 9.89648 211.814 9.68359 212.154 9.55078C212.498 9.41797 212.881 9.35156 213.303 9.35156C213.643 9.35156 213.955 9.39453 214.24 9.48047C214.529 9.5625 214.787 9.69336 215.014 9.87305C215.244 10.0527 215.439 10.2871 215.6 10.5762C215.764 10.8613 215.889 11.207 215.975 11.6133C216.061 12.0156 216.104 12.4844 216.104 13.0195ZM214.691 14.6133V12.8086C214.691 12.4688 214.672 12.1699 214.633 11.9121C214.594 11.6504 214.535 11.4297 214.457 11.25C214.383 11.0664 214.289 10.918 214.176 10.8047C214.062 10.6875 213.934 10.6035 213.789 10.5527C213.645 10.498 213.482 10.4707 213.303 10.4707C213.084 10.4707 212.889 10.5137 212.717 10.5996C212.545 10.6816 212.4 10.8145 212.283 10.998C212.166 11.1816 212.076 11.4238 212.014 11.7246C211.955 12.0215 211.926 12.3828 211.926 12.8086V14.6133C211.926 14.957 211.945 15.2598 211.984 15.5215C212.023 15.7832 212.082 16.0078 212.16 16.1953C212.238 16.3789 212.332 16.5312 212.441 16.6523C212.555 16.7695 212.684 16.8555 212.828 16.9102C212.977 16.9648 213.139 16.9922 213.314 16.9922C213.537 16.9922 213.734 16.9492 213.906 16.8633C214.078 16.7773 214.223 16.6406 214.34 16.4531C214.457 16.2617 214.545 16.0137 214.604 15.709C214.662 15.4043 214.691 15.0391 214.691 14.6133ZM217.305 11.5605V11.1094C217.305 10.7852 217.375 10.4902 217.516 10.2246C217.656 9.95898 217.861 9.74609 218.131 9.58594C218.4 9.42578 218.725 9.3457 219.104 9.3457C219.494 9.3457 219.822 9.42578 220.088 9.58594C220.357 9.74609 220.562 9.95898 220.703 10.2246C220.844 10.4902 220.914 10.7852 220.914 11.1094V11.5605C220.914 11.877 220.844 12.168 220.703 12.4336C220.566 12.6992 220.363 12.9121 220.094 13.0723C219.828 13.2324 219.502 13.3125 219.115 13.3125C218.732 13.3125 218.404 13.2324 218.131 13.0723C217.861 12.9121 217.656 12.6992 217.516 12.4336C217.375 12.168 217.305 11.877 217.305 11.5605ZM218.283 11.1094V11.5605C218.283 11.7168 218.312 11.8652 218.371 12.0059C218.434 12.1465 218.527 12.2598 218.652 12.3457C218.777 12.4316 218.932 12.4746 219.115 12.4746C219.303 12.4746 219.455 12.4316 219.572 12.3457C219.693 12.2598 219.783 12.1465 219.842 12.0059C219.9 11.8652 219.93 11.7168 219.93 11.5605V11.1094C219.93 10.9492 219.898 10.7988 219.836 10.6582C219.777 10.5137 219.688 10.3984 219.566 10.3125C219.445 10.2266 219.291 10.1836 219.104 10.1836C218.924 10.1836 218.771 10.2266 218.646 10.3125C218.525 10.3984 218.434 10.5137 218.371 10.6582C218.312 10.7988 218.283 10.9492 218.283 11.1094ZM221.418 16.3652V15.9082C221.418 15.5879 221.488 15.2949 221.629 15.0293C221.773 14.7637 221.98 14.5508 222.25 14.3906C222.52 14.2305 222.844 14.1504 223.223 14.1504C223.613 14.1504 223.941 14.2305 224.207 14.3906C224.477 14.5508 224.68 14.7637 224.816 15.0293C224.957 15.2949 225.027 15.5879 225.027 15.9082V16.3652C225.027 16.6855 224.957 16.9785 224.816 17.2441C224.68 17.5098 224.479 17.7227 224.213 17.8828C223.947 18.043 223.621 18.123 223.234 18.123C222.852 18.123 222.523 18.043 222.25 17.8828C221.98 17.7227 221.773 17.5098 221.629 17.2441C221.488 16.9785 221.418 16.6855 221.418 16.3652ZM222.402 15.9082V16.3652C222.402 16.5215 222.434 16.6699 222.496 16.8105C222.562 16.9512 222.658 17.0664 222.783 17.1562C222.908 17.2422 223.059 17.2852 223.234 17.2852C223.434 17.2852 223.594 17.2422 223.715 17.1562C223.836 17.0664 223.922 16.9531 223.973 16.8164C224.027 16.6758 224.055 16.5254 224.055 16.3652V15.9082C224.055 15.748 224.023 15.5977 223.961 15.457C223.902 15.3164 223.811 15.2031 223.686 15.1172C223.564 15.0312 223.41 14.9883 223.223 14.9883C223.039 14.9883 222.887 15.0312 222.766 15.1172C222.645 15.2031 222.553 15.3164 222.49 15.457C222.432 15.5977 222.402 15.748 222.402 15.9082ZM223.574 10.6875L219.408 17.3555L218.688 16.9395L222.854 10.2715L223.574 10.6875ZM227.91 9.46875L227.77 15.4863H226.562L226.416 9.46875H227.91ZM226.375 17.332C226.375 17.1172 226.445 16.9375 226.586 16.793C226.73 16.6445 226.93 16.5703 227.184 16.5703C227.434 16.5703 227.631 16.6445 227.775 16.793C227.92 16.9375 227.992 17.1172 227.992 17.332C227.992 17.5391 227.92 17.7168 227.775 17.8652C227.631 18.0098 227.434 18.082 227.184 18.082C226.93 18.082 226.73 18.0098 226.586 17.8652C226.445 17.7168 226.375 17.5391 226.375 17.332Z" fill="url(#paint1_linear_26165_26805)"/>
<path d="M249.152 12.953C249.023 12.6979 248.866 12.4515 248.683 12.2503C248.555 12.1039 248.417 11.9666 248.298 11.8294C248.042 11.5549 247.74 11.3435 247.43 11.141C246.718 10.6626 245.927 10.4102 245.074 10.3113C244.556 10.261 244.039 10.2832 243.533 10.4053C243.433 10.4315 243.343 10.4669 243.234 10.484C243.324 10.4123 243.414 10.3407 243.495 10.278C243.811 10.0543 244.144 9.88522 244.506 9.76175C245.464 9.40824 246.433 9.29968 247.432 9.45438C248.222 9.57986 248.959 9.86806 249.634 10.2917C249.717 10.3378 249.79 10.3929 249.854 10.4389C249.908 10.4757 249.945 10.5123 250.017 10.513C250.036 10.5132 250.054 10.5315 250.063 10.5406C250.182 10.6415 250.319 10.7426 250.447 10.8526C250.456 10.8437 250.474 10.8257 250.483 10.8167C250.51 10.7716 250.546 10.7538 250.609 10.7635C250.664 10.764 250.7 10.7825 250.737 10.8192C250.792 10.8741 250.856 10.9382 250.911 10.9931C250.966 11.0481 251.002 11.1028 251.021 11.1755C251.04 11.2301 251.023 11.3025 251.059 11.3573C251.069 11.3664 251.051 11.3844 251.042 11.3934C251.105 11.4212 251.124 11.4939 251.07 11.5659C251.143 11.5304 251.143 11.5848 251.18 11.6214C251.226 11.6853 251.135 11.6844 251.126 11.7297C251.145 11.7299 251.154 11.7209 251.172 11.7211C251.208 11.7033 251.226 11.7035 251.254 11.7491C251.281 11.7947 251.272 11.8218 251.236 11.8577C251.227 11.8667 251.219 11.8938 251.21 11.9028L251.219 11.9119C251.228 11.903 251.246 11.9031 251.255 11.8942C251.291 11.8582 251.327 11.8767 251.346 11.9132C251.373 11.9588 251.374 11.9769 251.329 12.0037C251.32 12.0127 251.311 12.0216 251.302 12.0306C251.293 12.0396 251.293 12.0577 251.293 12.0577C251.302 12.0669 251.311 12.0579 251.32 12.0671C251.32 12.0671 251.329 12.0581 251.347 12.0583C251.437 12.0047 251.437 12.0047 251.493 12.1141C251.466 12.141 251.43 12.1588 251.403 12.1858L251.412 12.1949C251.448 12.1771 251.484 12.1593 251.52 12.1415C251.539 12.178 251.566 12.2055 251.576 12.2328C251.576 12.2509 251.531 12.2777 251.504 12.3046C251.504 12.3046 251.513 12.3138 251.504 12.3227C251.522 12.3229 251.54 12.305 251.558 12.3051C251.585 12.2963 251.603 12.2784 251.621 12.2604C251.649 12.2879 251.667 12.3243 251.695 12.3518C251.668 12.3787 251.632 12.3965 251.605 12.4235C251.632 12.4509 251.632 12.4509 251.749 12.3704C251.777 12.3979 251.795 12.4344 251.823 12.4618C251.796 12.4888 251.769 12.5157 251.733 12.5335C251.742 12.5427 251.742 12.5427 251.751 12.5518C251.796 12.525 251.823 12.4981 251.868 12.4713C251.896 12.4988 251.905 12.5261 251.932 12.5536C251.905 12.5805 251.887 12.5985 251.869 12.6164C251.869 12.6164 251.879 12.6256 251.87 12.6346C251.888 12.6347 251.906 12.6349 251.915 12.6259C251.996 12.5814 251.996 12.5814 252.06 12.6636C252.051 12.6726 252.033 12.6906 252.034 12.7087C252.034 12.7087 252.034 12.7087 252.043 12.7178C252.061 12.6999 252.079 12.7001 252.097 12.6821C252.142 12.6553 252.206 12.6831 252.215 12.7286C252.215 12.7467 252.206 12.7557 252.197 12.7828C252.197 12.7828 252.197 12.7828 252.207 12.792C252.252 12.7471 252.288 12.7655 252.316 12.8112C252.334 12.8295 252.37 12.848 252.398 12.8573C252.425 12.8666 252.452 12.8759 252.489 12.8763C252.561 12.877 252.625 12.9048 252.662 12.9777C252.671 12.9869 252.68 12.996 252.689 13.0052C252.735 13.0147 252.744 13.042 252.735 13.0872C252.817 13.1152 252.872 13.1883 252.855 13.2425C252.9 13.2339 252.937 13.2524 252.919 13.3066L252.928 13.3158C252.964 13.3343 252.983 13.3526 252.956 13.3977C253.001 13.4072 253.038 13.4257 253.02 13.4799C253.084 13.4896 253.093 13.5169 253.076 13.5711C253.121 13.5806 253.148 13.5899 253.149 13.6444C253.149 13.6444 253.149 13.6625 253.158 13.6535C253.203 13.663 253.204 13.6993 253.204 13.7356C253.259 13.7542 253.277 13.7725 253.259 13.8268C253.323 13.8365 253.341 13.8548 253.324 13.909C253.378 13.9277 253.443 14.0462 253.434 14.0914C253.443 14.1006 253.462 14.1008 253.462 14.1008C253.489 14.1464 253.517 14.2101 253.545 14.2557C253.563 14.2922 253.591 14.3196 253.609 14.3561C253.618 14.3834 253.628 14.4107 253.646 14.429C253.655 14.4381 253.674 14.4564 253.683 14.4837C253.702 14.5383 253.72 14.5929 253.748 14.6385C253.766 14.675 253.794 14.7206 253.812 14.757C253.84 14.8026 253.85 14.8481 253.877 14.8937C253.896 14.9483 253.933 15.003 253.951 15.0576C253.998 15.1759 254.053 15.2853 254.091 15.3945C254.119 15.4945 254.156 15.6036 254.193 15.6947C254.193 15.7128 254.203 15.722 254.203 15.7401C254.185 15.8125 254.213 15.8762 254.268 15.9312C254.296 15.9586 254.314 15.9951 254.333 16.0315C254.36 16.0771 254.361 16.1316 254.316 16.1765C254.289 16.2034 254.289 16.2397 254.335 16.2492C254.416 16.2772 254.463 16.3592 254.481 16.432C254.491 16.4593 254.455 16.4952 254.437 16.5313C254.428 16.5584 254.419 16.5674 254.401 16.5853C254.429 16.5947 254.438 16.6038 254.465 16.6132C254.583 16.6415 254.657 16.751 254.622 16.8595C254.622 16.8776 254.604 16.8956 254.595 16.9046C254.541 16.9403 254.541 16.9766 254.596 16.9953C254.65 17.0139 254.687 17.0506 254.724 17.1053C254.751 17.1509 254.743 17.1962 254.707 17.2502C254.662 17.3133 254.662 17.3314 254.726 17.3592C254.826 17.4237 254.854 17.4874 254.828 17.6232C254.802 17.7046 254.776 17.7859 254.749 17.8673C254.732 17.9215 254.686 17.9301 254.632 17.9115C254.641 17.9388 254.65 17.9661 254.66 17.9934C254.669 18.0388 254.679 18.0842 254.661 18.1203C254.599 18.2739 254.537 18.4274 254.475 18.581C254.351 18.8881 254.3 19.2141 254.248 19.54C254.231 19.6668 254.186 19.6754 254.077 19.62C253.986 19.5647 253.885 19.5003 253.794 19.445C253.776 19.4267 253.758 19.4265 253.721 19.4261C253.549 19.4154 253.386 19.4138 253.222 19.3941C253.122 19.3841 253.022 19.3378 252.922 19.2915C252.64 19.189 252.448 18.9786 252.282 18.7231C252.153 18.5224 252.096 18.2861 252.103 18.0413C252.102 17.8962 252.155 17.7516 252.171 17.6067C252.188 17.4799 252.232 17.3625 252.313 17.2635C252.385 17.1735 252.402 17.083 252.437 16.9745C252.473 16.866 252.453 16.757 252.443 16.6572C252.432 16.4667 252.34 16.3025 252.194 16.1742C252.112 16.1099 252.02 16.0365 251.938 15.9722C251.911 15.9448 251.892 15.9265 251.892 15.8902C251.891 15.8358 251.882 15.7903 251.89 15.7451C251.933 15.4825 251.868 15.2552 251.748 15.0273C251.692 14.918 251.619 14.8266 251.536 14.7261C251.426 14.598 251.289 14.5333 251.135 14.4864C251.062 14.4676 251.062 14.4676 251.07 14.3861C251.087 14.2774 251.105 14.1688 251.103 14.0599C251.101 13.8241 250.999 13.6146 250.835 13.4498C250.78 13.3949 250.707 13.3579 250.634 13.3209C250.406 13.219 250.17 13.1442 249.907 13.2051C249.735 13.2488 249.582 13.3108 249.447 13.4274C249.375 13.4811 249.33 13.4716 249.275 13.4167C249.192 13.298 249.109 13.1793 249.09 13.034C249.098 13.0069 249.098 12.9706 249.152 12.953ZM253.95 18.6848C253.977 18.6397 254.039 18.5587 254.084 18.4775C254.2 18.27 254.216 18.0344 254.159 17.7981C254.131 17.68 254.084 17.5616 253.993 17.4882C253.801 17.3141 253.591 17.2304 253.337 17.228C253.111 17.2349 252.912 17.3055 252.741 17.4399C252.489 17.6551 252.374 17.9351 252.395 18.2618C252.396 18.3343 252.415 18.407 252.452 18.4799C252.572 18.7078 252.755 18.8728 253 18.9386C253.337 19.0416 253.644 18.9539 253.95 18.6848Z" fill="#F41795"/>
<path d="M273.066 14.1445H270.893L270.881 13.0723H272.779C273.1 13.0723 273.371 13.0254 273.594 12.9316C273.82 12.834 273.992 12.6953 274.109 12.5156C274.227 12.332 274.285 12.1113 274.285 11.8535C274.285 11.5684 274.23 11.3359 274.121 11.1562C274.012 10.9766 273.844 10.8457 273.617 10.7637C273.395 10.6816 273.109 10.6406 272.762 10.6406H271.338V18H269.867V9.46875H272.762C273.23 9.46875 273.648 9.51367 274.016 9.60352C274.387 9.69336 274.701 9.83398 274.959 10.0254C275.221 10.2129 275.418 10.4512 275.551 10.7402C275.688 11.0293 275.756 11.373 275.756 11.7715C275.756 12.123 275.672 12.4453 275.504 12.7383C275.336 13.0273 275.088 13.2637 274.76 13.4473C274.432 13.6309 274.023 13.7402 273.535 13.7754L273.066 14.1445ZM273.002 18H270.43L271.092 16.834H273.002C273.334 16.834 273.611 16.7793 273.834 16.6699C274.057 16.5566 274.223 16.4023 274.332 16.207C274.445 16.0078 274.502 15.7754 274.502 15.5098C274.502 15.2324 274.453 14.9922 274.355 14.7891C274.258 14.582 274.104 14.4238 273.893 14.3145C273.682 14.2012 273.406 14.1445 273.066 14.1445H271.414L271.426 13.0723H273.576L273.91 13.4766C274.379 13.4922 274.764 13.5957 275.064 13.7871C275.369 13.9785 275.596 14.2266 275.744 14.5312C275.893 14.8359 275.967 15.1641 275.967 15.5156C275.967 16.0586 275.848 16.5137 275.609 16.8809C275.375 17.248 275.037 17.5273 274.596 17.7188C274.154 17.9062 273.623 18 273.002 18ZM281.123 16.5059V11.6602H282.541V18H281.205L281.123 16.5059ZM281.322 15.1875L281.797 15.1758C281.797 15.6016 281.75 15.9941 281.656 16.3535C281.562 16.709 281.418 17.0195 281.223 17.2852C281.027 17.5469 280.777 17.752 280.473 17.9004C280.168 18.0449 279.803 18.1172 279.377 18.1172C279.068 18.1172 278.785 18.0723 278.527 17.9824C278.27 17.8926 278.047 17.7539 277.859 17.5664C277.676 17.3789 277.533 17.1348 277.432 16.834C277.33 16.5332 277.279 16.1738 277.279 15.7559V11.6602H278.691V15.7676C278.691 15.998 278.719 16.1914 278.773 16.3477C278.828 16.5 278.902 16.623 278.996 16.7168C279.09 16.8105 279.199 16.877 279.324 16.916C279.449 16.9551 279.582 16.9746 279.723 16.9746C280.125 16.9746 280.441 16.8965 280.672 16.7402C280.906 16.5801 281.072 16.3652 281.17 16.0957C281.271 15.8262 281.322 15.5234 281.322 15.1875ZM285.828 17.3086L287.551 11.6602H289.062L286.52 18.9668C286.461 19.123 286.385 19.293 286.291 19.4766C286.197 19.6602 286.074 19.834 285.922 19.998C285.773 20.166 285.588 20.3008 285.365 20.4023C285.143 20.5078 284.873 20.5605 284.557 20.5605C284.432 20.5605 284.311 20.5488 284.193 20.5254C284.08 20.5059 283.973 20.4844 283.871 20.4609L283.865 19.3828C283.904 19.3867 283.951 19.3906 284.006 19.3945C284.064 19.3984 284.111 19.4004 284.146 19.4004C284.381 19.4004 284.576 19.3711 284.732 19.3125C284.889 19.2578 285.016 19.168 285.113 19.043C285.215 18.918 285.301 18.75 285.371 18.5391L285.828 17.3086ZM284.855 11.6602L286.361 16.4062L286.613 17.8945L285.635 18.1465L283.332 11.6602H284.855ZM296.416 16.2832C296.416 16.1426 296.381 16.0156 296.311 15.9023C296.24 15.7852 296.105 15.6797 295.906 15.5859C295.711 15.4922 295.422 15.4062 295.039 15.3281C294.703 15.2539 294.395 15.166 294.113 15.0645C293.836 14.959 293.598 14.832 293.398 14.6836C293.199 14.5352 293.045 14.3594 292.936 14.1562C292.826 13.9531 292.771 13.7188 292.771 13.4531C292.771 13.1953 292.828 12.9512 292.941 12.7207C293.055 12.4902 293.217 12.2871 293.428 12.1113C293.639 11.9355 293.895 11.7969 294.195 11.6953C294.5 11.5938 294.84 11.543 295.215 11.543C295.746 11.543 296.201 11.6328 296.58 11.8125C296.963 11.9883 297.256 12.2285 297.459 12.5332C297.662 12.834 297.764 13.1738 297.764 13.5527H296.352C296.352 13.3848 296.309 13.2285 296.223 13.084C296.141 12.9355 296.016 12.8164 295.848 12.7266C295.68 12.6328 295.469 12.5859 295.215 12.5859C294.973 12.5859 294.771 12.625 294.611 12.7031C294.455 12.7773 294.338 12.875 294.26 12.9961C294.186 13.1172 294.148 13.25 294.148 13.3945C294.148 13.5 294.168 13.5957 294.207 13.6816C294.25 13.7637 294.32 13.8398 294.418 13.9102C294.516 13.9766 294.648 14.0391 294.816 14.0977C294.988 14.1562 295.203 14.2129 295.461 14.2676C295.945 14.3691 296.361 14.5 296.709 14.6602C297.061 14.8164 297.33 15.0195 297.518 15.2695C297.705 15.5156 297.799 15.8281 297.799 16.207C297.799 16.4883 297.738 16.7461 297.617 16.9805C297.5 17.2109 297.328 17.4121 297.102 17.584C296.875 17.752 296.604 17.8828 296.287 17.9766C295.975 18.0703 295.623 18.1172 295.232 18.1172C294.658 18.1172 294.172 18.0156 293.773 17.8125C293.375 17.6055 293.072 17.3418 292.865 17.0215C292.662 16.6973 292.561 16.3613 292.561 16.0137H293.926C293.941 16.2754 294.014 16.4844 294.143 16.6406C294.275 16.793 294.439 16.9043 294.635 16.9746C294.834 17.041 295.039 17.0742 295.25 17.0742C295.504 17.0742 295.717 17.041 295.889 16.9746C296.061 16.9043 296.191 16.8105 296.281 16.6934C296.371 16.5723 296.416 16.4355 296.416 16.2832ZM300.459 9V18H299.041V9H300.459ZM304.396 11.6602L301.637 14.7188L300.125 16.2656L299.756 15.0703L300.898 13.6582L302.691 11.6602H304.396ZM302.996 18L300.939 15.0234L301.83 14.0332L304.631 18H302.996ZM306.805 11.6602V18H305.387V11.6602H306.805ZM305.293 9.99609C305.293 9.78125 305.363 9.60352 305.504 9.46289C305.648 9.31836 305.848 9.24609 306.102 9.24609C306.352 9.24609 306.549 9.31836 306.693 9.46289C306.838 9.60352 306.91 9.78125 306.91 9.99609C306.91 10.207 306.838 10.3828 306.693 10.5234C306.549 10.6641 306.352 10.7344 306.102 10.7344C305.848 10.7344 305.648 10.6641 305.504 10.5234C305.363 10.3828 305.293 10.207 305.293 9.99609ZM309.752 13.0137V18H308.34V11.6602H309.67L309.752 13.0137ZM309.5 14.5957L309.043 14.5898C309.047 14.1406 309.109 13.7285 309.23 13.3535C309.355 12.9785 309.527 12.6562 309.746 12.3867C309.969 12.1172 310.234 11.9102 310.543 11.7656C310.852 11.6172 311.195 11.543 311.574 11.543C311.879 11.543 312.154 11.5859 312.4 11.6719C312.65 11.7539 312.863 11.8887 313.039 12.0762C313.219 12.2637 313.355 12.5078 313.449 12.8086C313.543 13.1055 313.59 13.4707 313.59 13.9043V18H312.172V13.8984C312.172 13.5938 312.127 13.3535 312.037 13.1777C311.951 12.998 311.824 12.8711 311.656 12.7969C311.492 12.7188 311.287 12.6797 311.041 12.6797C310.799 12.6797 310.582 12.7305 310.391 12.832C310.199 12.9336 310.037 13.0723 309.904 13.248C309.775 13.4238 309.676 13.627 309.605 13.8574C309.535 14.0879 309.5 14.334 309.5 14.5957ZM318.588 16.2832C318.588 16.1426 318.553 16.0156 318.482 15.9023C318.412 15.7852 318.277 15.6797 318.078 15.5859C317.883 15.4922 317.594 15.4062 317.211 15.3281C316.875 15.2539 316.566 15.166 316.285 15.0645C316.008 14.959 315.77 14.832 315.57 14.6836C315.371 14.5352 315.217 14.3594 315.107 14.1562C314.998 13.9531 314.943 13.7188 314.943 13.4531C314.943 13.1953 315 12.9512 315.113 12.7207C315.227 12.4902 315.389 12.2871 315.6 12.1113C315.811 11.9355 316.066 11.7969 316.367 11.6953C316.672 11.5938 317.012 11.543 317.387 11.543C317.918 11.543 318.373 11.6328 318.752 11.8125C319.135 11.9883 319.428 12.2285 319.631 12.5332C319.834 12.834 319.936 13.1738 319.936 13.5527H318.523C318.523 13.3848 318.48 13.2285 318.395 13.084C318.312 12.9355 318.188 12.8164 318.02 12.7266C317.852 12.6328 317.641 12.5859 317.387 12.5859C317.145 12.5859 316.943 12.625 316.783 12.7031C316.627 12.7773 316.51 12.875 316.432 12.9961C316.357 13.1172 316.32 13.25 316.32 13.3945C316.32 13.5 316.34 13.5957 316.379 13.6816C316.422 13.7637 316.492 13.8398 316.59 13.9102C316.688 13.9766 316.82 14.0391 316.988 14.0977C317.16 14.1562 317.375 14.2129 317.633 14.2676C318.117 14.3691 318.533 14.5 318.881 14.6602C319.232 14.8164 319.502 15.0195 319.689 15.2695C319.877 15.5156 319.971 15.8281 319.971 16.207C319.971 16.4883 319.91 16.7461 319.789 16.9805C319.672 17.2109 319.5 17.4121 319.273 17.584C319.047 17.752 318.775 17.8828 318.459 17.9766C318.146 18.0703 317.795 18.1172 317.404 18.1172C316.83 18.1172 316.344 18.0156 315.945 17.8125C315.547 17.6055 315.244 17.3418 315.037 17.0215C314.834 16.6973 314.732 16.3613 314.732 16.0137H316.098C316.113 16.2754 316.186 16.4844 316.314 16.6406C316.447 16.793 316.611 16.9043 316.807 16.9746C317.006 17.041 317.211 17.0742 317.422 17.0742C317.676 17.0742 317.889 17.041 318.061 16.9746C318.232 16.9043 318.363 16.8105 318.453 16.6934C318.543 16.5723 318.588 16.4355 318.588 16.2832ZM325.918 16.5938L327.383 11.6602H328.285L328.039 13.1367L326.562 18H325.754L325.918 16.5938ZM325.057 11.6602L326.199 16.6172L326.293 18H325.391L323.674 11.6602H325.057ZM329.656 16.5586L330.764 11.6602H332.141L330.43 18H329.527L329.656 16.5586ZM328.438 11.6602L329.885 16.5352L330.066 18H329.258L327.764 13.1309L327.518 11.6602H328.438ZM334.613 11.6602V18H333.195V11.6602H334.613ZM333.102 9.99609C333.102 9.78125 333.172 9.60352 333.312 9.46289C333.457 9.31836 333.656 9.24609 333.91 9.24609C334.16 9.24609 334.357 9.31836 334.502 9.46289C334.646 9.60352 334.719 9.78125 334.719 9.99609C334.719 10.207 334.646 10.3828 334.502 10.5234C334.357 10.6641 334.16 10.7344 333.91 10.7344C333.656 10.7344 333.457 10.6641 333.312 10.5234C333.172 10.3828 333.102 10.207 333.102 9.99609ZM339.066 11.6602V12.6914H335.492V11.6602H339.066ZM336.523 10.1074H337.936V16.248C337.936 16.4434 337.963 16.5938 338.018 16.6992C338.076 16.8008 338.156 16.8691 338.258 16.9043C338.359 16.9395 338.479 16.957 338.615 16.957C338.713 16.957 338.807 16.9512 338.896 16.9395C338.986 16.9277 339.059 16.916 339.113 16.9043L339.119 17.9824C339.002 18.0176 338.865 18.0488 338.709 18.0762C338.557 18.1035 338.381 18.1172 338.182 18.1172C337.857 18.1172 337.57 18.0605 337.32 17.9473C337.07 17.8301 336.875 17.6406 336.734 17.3789C336.594 17.1172 336.523 16.7695 336.523 16.3359V10.1074ZM341.551 9V18H340.145V9H341.551ZM341.305 14.5957L340.848 14.5898C340.852 14.1523 340.912 13.748 341.029 13.377C341.15 13.0059 341.318 12.6836 341.533 12.4102C341.752 12.1328 342.014 11.9199 342.318 11.7715C342.623 11.6191 342.961 11.543 343.332 11.543C343.645 11.543 343.926 11.5859 344.176 11.6719C344.43 11.7578 344.648 11.8965 344.832 12.0879C345.016 12.2754 345.154 12.5215 345.248 12.8262C345.346 13.127 345.395 13.4941 345.395 13.9277V18H343.977V13.916C343.977 13.6113 343.932 13.3691 343.842 13.1895C343.756 13.0098 343.629 12.8809 343.461 12.8027C343.293 12.7207 343.088 12.6797 342.846 12.6797C342.592 12.6797 342.367 12.7305 342.172 12.832C341.98 12.9336 341.82 13.0723 341.691 13.248C341.562 13.4238 341.465 13.627 341.398 13.8574C341.336 14.0879 341.305 14.334 341.305 14.5957ZM353.68 16.6875V9H355.098V18H353.814L353.68 16.6875ZM349.555 14.9004V14.7773C349.555 14.2969 349.611 13.8594 349.725 13.4648C349.838 13.0664 350.002 12.7246 350.217 12.4395C350.432 12.1504 350.693 11.9297 351.002 11.7773C351.311 11.6211 351.658 11.543 352.045 11.543C352.428 11.543 352.764 11.6172 353.053 11.7656C353.342 11.9141 353.588 12.127 353.791 12.4043C353.994 12.6777 354.156 13.0059 354.277 13.3887C354.398 13.7676 354.484 14.1895 354.535 14.6543V15.0469C354.484 15.5 354.398 15.9141 354.277 16.2891C354.156 16.6641 353.994 16.9883 353.791 17.2617C353.588 17.5352 353.34 17.7461 353.047 17.8945C352.758 18.043 352.42 18.1172 352.033 18.1172C351.65 18.1172 351.305 18.0371 350.996 17.877C350.691 17.7168 350.432 17.4922 350.217 17.2031C350.002 16.9141 349.838 16.5742 349.725 16.1836C349.611 15.7891 349.555 15.3613 349.555 14.9004ZM350.967 14.7773V14.9004C350.967 15.1895 350.992 15.459 351.043 15.709C351.098 15.959 351.182 16.1797 351.295 16.3711C351.408 16.5586 351.555 16.707 351.734 16.8164C351.918 16.9219 352.137 16.9746 352.391 16.9746C352.711 16.9746 352.975 16.9043 353.182 16.7637C353.389 16.623 353.551 16.4336 353.668 16.1953C353.789 15.9531 353.871 15.6836 353.914 15.3867V14.3262C353.891 14.0957 353.842 13.8809 353.768 13.6816C353.697 13.4824 353.602 13.3086 353.48 13.1602C353.359 13.0078 353.209 12.8906 353.029 12.8086C352.854 12.7227 352.645 12.6797 352.402 12.6797C352.145 12.6797 351.926 12.7344 351.746 12.8438C351.566 12.9531 351.418 13.1035 351.301 13.2949C351.188 13.4863 351.104 13.709 351.049 13.9629C350.994 14.2168 350.967 14.4883 350.967 14.7773ZM358.086 11.6602V18H356.668V11.6602H358.086ZM356.574 9.99609C356.574 9.78125 356.645 9.60352 356.785 9.46289C356.93 9.31836 357.129 9.24609 357.383 9.24609C357.633 9.24609 357.83 9.31836 357.975 9.46289C358.119 9.60352 358.191 9.78125 358.191 9.99609C358.191 10.207 358.119 10.3828 357.975 10.5234C357.83 10.6641 357.633 10.7344 357.383 10.7344C357.129 10.7344 356.93 10.6641 356.785 10.5234C356.645 10.3828 356.574 10.207 356.574 9.99609ZM363.189 16.2832C363.189 16.1426 363.154 16.0156 363.084 15.9023C363.014 15.7852 362.879 15.6797 362.68 15.5859C362.484 15.4922 362.195 15.4062 361.812 15.3281C361.477 15.2539 361.168 15.166 360.887 15.0645C360.609 14.959 360.371 14.832 360.172 14.6836C359.973 14.5352 359.818 14.3594 359.709 14.1562C359.6 13.9531 359.545 13.7188 359.545 13.4531C359.545 13.1953 359.602 12.9512 359.715 12.7207C359.828 12.4902 359.99 12.2871 360.201 12.1113C360.412 11.9355 360.668 11.7969 360.969 11.6953C361.273 11.5938 361.613 11.543 361.988 11.543C362.52 11.543 362.975 11.6328 363.354 11.8125C363.736 11.9883 364.029 12.2285 364.232 12.5332C364.436 12.834 364.537 13.1738 364.537 13.5527H363.125C363.125 13.3848 363.082 13.2285 362.996 13.084C362.914 12.9355 362.789 12.8164 362.621 12.7266C362.453 12.6328 362.242 12.5859 361.988 12.5859C361.746 12.5859 361.545 12.625 361.385 12.7031C361.229 12.7773 361.111 12.875 361.033 12.9961C360.959 13.1172 360.922 13.25 360.922 13.3945C360.922 13.5 360.941 13.5957 360.98 13.6816C361.023 13.7637 361.094 13.8398 361.191 13.9102C361.289 13.9766 361.422 14.0391 361.59 14.0977C361.762 14.1562 361.977 14.2129 362.234 14.2676C362.719 14.3691 363.135 14.5 363.482 14.6602C363.834 14.8164 364.104 15.0195 364.291 15.2695C364.479 15.5156 364.572 15.8281 364.572 16.207C364.572 16.4883 364.512 16.7461 364.391 16.9805C364.273 17.2109 364.102 17.4121 363.875 17.584C363.648 17.752 363.377 17.8828 363.061 17.9766C362.748 18.0703 362.396 18.1172 362.006 18.1172C361.432 18.1172 360.945 18.0156 360.547 17.8125C360.148 17.6055 359.846 17.3418 359.639 17.0215C359.436 16.6973 359.334 16.3613 359.334 16.0137H360.699C360.715 16.2754 360.787 16.4844 360.916 16.6406C361.049 16.793 361.213 16.9043 361.408 16.9746C361.607 17.041 361.812 17.0742 362.023 17.0742C362.277 17.0742 362.49 17.041 362.662 16.9746C362.834 16.9043 362.965 16.8105 363.055 16.6934C363.145 16.5723 363.189 16.4355 363.189 16.2832ZM368.398 16.9922C368.629 16.9922 368.836 16.9473 369.02 16.8574C369.207 16.7637 369.357 16.6348 369.471 16.4707C369.588 16.3066 369.652 16.1172 369.664 15.9023H370.994C370.986 16.3125 370.865 16.6855 370.631 17.0215C370.396 17.3574 370.086 17.625 369.699 17.8242C369.312 18.0195 368.885 18.1172 368.416 18.1172C367.932 18.1172 367.51 18.0352 367.15 17.8711C366.791 17.7031 366.492 17.4727 366.254 17.1797C366.016 16.8867 365.836 16.5488 365.715 16.166C365.598 15.7832 365.539 15.373 365.539 14.9355V14.7305C365.539 14.293 365.598 13.8828 365.715 13.5C365.836 13.1133 366.016 12.7734 366.254 12.4805C366.492 12.1875 366.791 11.959 367.15 11.7949C367.51 11.627 367.93 11.543 368.41 11.543C368.918 11.543 369.363 11.6445 369.746 11.8477C370.129 12.0469 370.43 12.3262 370.648 12.6855C370.871 13.041 370.986 13.4551 370.994 13.9277H369.664C369.652 13.6934 369.594 13.4824 369.488 13.2949C369.387 13.1035 369.242 12.9512 369.055 12.8379C368.871 12.7246 368.65 12.668 368.393 12.668C368.107 12.668 367.871 12.7266 367.684 12.8438C367.496 12.957 367.35 13.1133 367.244 13.3125C367.139 13.5078 367.062 13.7285 367.016 13.9746C366.973 14.2168 366.951 14.4688 366.951 14.7305V14.9355C366.951 15.1973 366.973 15.4512 367.016 15.6973C367.059 15.9434 367.133 16.1641 367.238 16.3594C367.348 16.5508 367.496 16.7051 367.684 16.8223C367.871 16.9355 368.109 16.9922 368.398 16.9922ZM371.809 14.9004V14.7656C371.809 14.3086 371.875 13.8848 372.008 13.4941C372.141 13.0996 372.332 12.7578 372.582 12.4688C372.836 12.1758 373.145 11.9492 373.508 11.7891C373.875 11.625 374.289 11.543 374.75 11.543C375.215 11.543 375.629 11.625 375.992 11.7891C376.359 11.9492 376.67 12.1758 376.924 12.4688C377.178 12.7578 377.371 13.0996 377.504 13.4941C377.637 13.8848 377.703 14.3086 377.703 14.7656V14.9004C377.703 15.3574 377.637 15.7812 377.504 16.1719C377.371 16.5625 377.178 16.9043 376.924 17.1973C376.67 17.4863 376.361 17.7129 375.998 17.877C375.635 18.0371 375.223 18.1172 374.762 18.1172C374.297 18.1172 373.881 18.0371 373.514 17.877C373.15 17.7129 372.842 17.4863 372.588 17.1973C372.334 16.9043 372.141 16.5625 372.008 16.1719C371.875 15.7812 371.809 15.3574 371.809 14.9004ZM373.221 14.7656V14.9004C373.221 15.1855 373.25 15.4551 373.309 15.709C373.367 15.9629 373.459 16.1855 373.584 16.377C373.709 16.5684 373.869 16.7188 374.064 16.8281C374.26 16.9375 374.492 16.9922 374.762 16.9922C375.023 16.9922 375.25 16.9375 375.441 16.8281C375.637 16.7188 375.797 16.5684 375.922 16.377C376.047 16.1855 376.139 15.9629 376.197 15.709C376.26 15.4551 376.291 15.1855 376.291 14.9004V14.7656C376.291 14.4844 376.26 14.2188 376.197 13.9688C376.139 13.7148 376.045 13.4902 375.916 13.2949C375.791 13.0996 375.631 12.9473 375.436 12.8379C375.244 12.7246 375.016 12.668 374.75 12.668C374.484 12.668 374.254 12.7246 374.059 12.8379C373.867 12.9473 373.709 13.0996 373.584 13.2949C373.459 13.4902 373.367 13.7148 373.309 13.9688C373.25 14.2188 373.221 14.4844 373.221 14.7656ZM382.701 16.5059V11.6602H384.119V18H382.783L382.701 16.5059ZM382.9 15.1875L383.375 15.1758C383.375 15.6016 383.328 15.9941 383.234 16.3535C383.141 16.709 382.996 17.0195 382.801 17.2852C382.605 17.5469 382.355 17.752 382.051 17.9004C381.746 18.0449 381.381 18.1172 380.955 18.1172C380.646 18.1172 380.363 18.0723 380.105 17.9824C379.848 17.8926 379.625 17.7539 379.438 17.5664C379.254 17.3789 379.111 17.1348 379.01 16.834C378.908 16.5332 378.857 16.1738 378.857 15.7559V11.6602H380.27V15.7676C380.27 15.998 380.297 16.1914 380.352 16.3477C380.406 16.5 380.48 16.623 380.574 16.7168C380.668 16.8105 380.777 16.877 380.902 16.916C381.027 16.9551 381.16 16.9746 381.301 16.9746C381.703 16.9746 382.02 16.8965 382.25 16.7402C382.484 16.5801 382.65 16.3652 382.748 16.0957C382.85 15.8262 382.9 15.5234 382.9 15.1875ZM386.967 13.0137V18H385.555V11.6602H386.885L386.967 13.0137ZM386.715 14.5957L386.258 14.5898C386.262 14.1406 386.324 13.7285 386.445 13.3535C386.57 12.9785 386.742 12.6562 386.961 12.3867C387.184 12.1172 387.449 11.9102 387.758 11.7656C388.066 11.6172 388.41 11.543 388.789 11.543C389.094 11.543 389.369 11.5859 389.615 11.6719C389.865 11.7539 390.078 11.8887 390.254 12.0762C390.434 12.2637 390.57 12.5078 390.664 12.8086C390.758 13.1055 390.805 13.4707 390.805 13.9043V18H389.387V13.8984C389.387 13.5938 389.342 13.3535 389.252 13.1777C389.166 12.998 389.039 12.8711 388.871 12.7969C388.707 12.7188 388.502 12.6797 388.256 12.6797C388.014 12.6797 387.797 12.7305 387.605 12.832C387.414 12.9336 387.252 13.0723 387.119 13.248C386.99 13.4238 386.891 13.627 386.82 13.8574C386.75 14.0879 386.715 14.334 386.715 14.5957ZM395.152 11.6602V12.6914H391.578V11.6602H395.152ZM392.609 10.1074H394.021V16.248C394.021 16.4434 394.049 16.5938 394.104 16.6992C394.162 16.8008 394.242 16.8691 394.344 16.9043C394.445 16.9395 394.564 16.957 394.701 16.957C394.799 16.957 394.893 16.9512 394.982 16.9395C395.072 16.9277 395.145 16.916 395.199 16.9043L395.205 17.9824C395.088 18.0176 394.951 18.0488 394.795 18.0762C394.643 18.1035 394.467 18.1172 394.268 18.1172C393.943 18.1172 393.656 18.0605 393.406 17.9473C393.156 17.8301 392.961 17.6406 392.82 17.3789C392.68 17.1172 392.609 16.7695 392.609 16.3359V10.1074ZM399.799 16.2832C399.799 16.1426 399.764 16.0156 399.693 15.9023C399.623 15.7852 399.488 15.6797 399.289 15.5859C399.094 15.4922 398.805 15.4062 398.422 15.3281C398.086 15.2539 397.777 15.166 397.496 15.0645C397.219 14.959 396.98 14.832 396.781 14.6836C396.582 14.5352 396.428 14.3594 396.318 14.1562C396.209 13.9531 396.154 13.7188 396.154 13.4531C396.154 13.1953 396.211 12.9512 396.324 12.7207C396.438 12.4902 396.6 12.2871 396.811 12.1113C397.021 11.9355 397.277 11.7969 397.578 11.6953C397.883 11.5938 398.223 11.543 398.598 11.543C399.129 11.543 399.584 11.6328 399.963 11.8125C400.346 11.9883 400.639 12.2285 400.842 12.5332C401.045 12.834 401.146 13.1738 401.146 13.5527H399.734C399.734 13.3848 399.691 13.2285 399.605 13.084C399.523 12.9355 399.398 12.8164 399.23 12.7266C399.062 12.6328 398.852 12.5859 398.598 12.5859C398.355 12.5859 398.154 12.625 397.994 12.7031C397.838 12.7773 397.721 12.875 397.643 12.9961C397.568 13.1172 397.531 13.25 397.531 13.3945C397.531 13.5 397.551 13.5957 397.59 13.6816C397.633 13.7637 397.703 13.8398 397.801 13.9102C397.898 13.9766 398.031 14.0391 398.199 14.0977C398.371 14.1562 398.586 14.2129 398.844 14.2676C399.328 14.3691 399.744 14.5 400.092 14.6602C400.443 14.8164 400.713 15.0195 400.9 15.2695C401.088 15.5156 401.182 15.8281 401.182 16.207C401.182 16.4883 401.121 16.7461 401 16.9805C400.883 17.2109 400.711 17.4121 400.484 17.584C400.258 17.752 399.986 17.8828 399.67 17.9766C399.357 18.0703 399.006 18.1172 398.615 18.1172C398.041 18.1172 397.555 18.0156 397.156 17.8125C396.758 17.6055 396.455 17.3418 396.248 17.0215C396.045 16.6973 395.943 16.3613 395.943 16.0137H397.309C397.324 16.2754 397.396 16.4844 397.525 16.6406C397.658 16.793 397.822 16.9043 398.018 16.9746C398.217 17.041 398.422 17.0742 398.633 17.0742C398.887 17.0742 399.1 17.041 399.271 16.9746C399.443 16.9043 399.574 16.8105 399.664 16.6934C399.754 16.5723 399.799 16.4355 399.799 16.2832ZM409.221 16.5059V11.6602H410.639V18H409.303L409.221 16.5059ZM409.42 15.1875L409.895 15.1758C409.895 15.6016 409.848 15.9941 409.754 16.3535C409.66 16.709 409.516 17.0195 409.32 17.2852C409.125 17.5469 408.875 17.752 408.57 17.9004C408.266 18.0449 407.9 18.1172 407.475 18.1172C407.166 18.1172 406.883 18.0723 406.625 17.9824C406.367 17.8926 406.145 17.7539 405.957 17.5664C405.773 17.3789 405.631 17.1348 405.529 16.834C405.428 16.5332 405.377 16.1738 405.377 15.7559V11.6602H406.789V15.7676C406.789 15.998 406.816 16.1914 406.871 16.3477C406.926 16.5 407 16.623 407.094 16.7168C407.188 16.8105 407.297 16.877 407.422 16.916C407.547 16.9551 407.68 16.9746 407.82 16.9746C408.223 16.9746 408.539 16.8965 408.77 16.7402C409.004 16.5801 409.17 16.3652 409.268 16.0957C409.369 15.8262 409.42 15.5234 409.42 15.1875ZM413.504 12.8789V20.4375H412.092V11.6602H413.393L413.504 12.8789ZM417.635 14.7715V14.8945C417.635 15.3555 417.58 15.7832 417.471 16.1777C417.365 16.5684 417.207 16.9102 416.996 17.2031C416.789 17.4922 416.533 17.7168 416.229 17.877C415.924 18.0371 415.572 18.1172 415.174 18.1172C414.779 18.1172 414.434 18.0449 414.137 17.9004C413.844 17.752 413.596 17.543 413.393 17.2734C413.189 17.0039 413.025 16.6875 412.9 16.3242C412.779 15.957 412.693 15.5547 412.643 15.1172V14.6426C412.693 14.1777 412.779 13.7559 412.9 13.377C413.025 12.998 413.189 12.6719 413.393 12.3984C413.596 12.125 413.844 11.9141 414.137 11.7656C414.43 11.6172 414.771 11.543 415.162 11.543C415.561 11.543 415.914 11.6211 416.223 11.7773C416.531 11.9297 416.791 12.1484 417.002 12.4336C417.213 12.7148 417.371 13.0547 417.477 13.4531C417.582 13.8477 417.635 14.2871 417.635 14.7715ZM416.223 14.8945V14.7715C416.223 14.4785 416.195 14.207 416.141 13.957C416.086 13.7031 416 13.4805 415.883 13.2891C415.766 13.0977 415.615 12.9492 415.432 12.8438C415.252 12.7344 415.035 12.6797 414.781 12.6797C414.531 12.6797 414.316 12.7227 414.137 12.8086C413.957 12.8906 413.807 13.0059 413.686 13.1543C413.564 13.3027 413.471 13.4766 413.404 13.6758C413.338 13.8711 413.291 14.084 413.264 14.3145V15.4512C413.311 15.7324 413.391 15.9902 413.504 16.2246C413.617 16.459 413.777 16.6465 413.984 16.7871C414.195 16.9238 414.465 16.9922 414.793 16.9922C415.047 16.9922 415.264 16.9375 415.443 16.8281C415.623 16.7188 415.77 16.5684 415.883 16.377C416 16.1816 416.086 15.957 416.141 15.7031C416.195 15.4492 416.223 15.1797 416.223 14.8945ZM424.73 11.6602V12.6914H421.156V11.6602H424.73ZM422.188 10.1074H423.6V16.248C423.6 16.4434 423.627 16.5938 423.682 16.6992C423.74 16.8008 423.82 16.8691 423.922 16.9043C424.023 16.9395 424.143 16.957 424.279 16.957C424.377 16.957 424.471 16.9512 424.561 16.9395C424.65 16.9277 424.723 16.916 424.777 16.9043L424.783 17.9824C424.666 18.0176 424.529 18.0488 424.373 18.0762C424.221 18.1035 424.045 18.1172 423.846 18.1172C423.521 18.1172 423.234 18.0605 422.984 17.9473C422.734 17.8301 422.539 17.6406 422.398 17.3789C422.258 17.1172 422.188 16.7695 422.188 16.3359V10.1074ZM425.41 14.9004V14.7656C425.41 14.3086 425.477 13.8848 425.609 13.4941C425.742 13.0996 425.934 12.7578 426.184 12.4688C426.438 12.1758 426.746 11.9492 427.109 11.7891C427.477 11.625 427.891 11.543 428.352 11.543C428.816 11.543 429.23 11.625 429.594 11.7891C429.961 11.9492 430.271 12.1758 430.525 12.4688C430.779 12.7578 430.973 13.0996 431.105 13.4941C431.238 13.8848 431.305 14.3086 431.305 14.7656V14.9004C431.305 15.3574 431.238 15.7812 431.105 16.1719C430.973 16.5625 430.779 16.9043 430.525 17.1973C430.271 17.4863 429.963 17.7129 429.6 17.877C429.236 18.0371 428.824 18.1172 428.363 18.1172C427.898 18.1172 427.482 18.0371 427.115 17.877C426.752 17.7129 426.443 17.4863 426.189 17.1973C425.936 16.9043 425.742 16.5625 425.609 16.1719C425.477 15.7812 425.41 15.3574 425.41 14.9004ZM426.822 14.7656V14.9004C426.822 15.1855 426.852 15.4551 426.91 15.709C426.969 15.9629 427.061 16.1855 427.186 16.377C427.311 16.5684 427.471 16.7188 427.666 16.8281C427.861 16.9375 428.094 16.9922 428.363 16.9922C428.625 16.9922 428.852 16.9375 429.043 16.8281C429.238 16.7188 429.398 16.5684 429.523 16.377C429.648 16.1855 429.74 15.9629 429.799 15.709C429.861 15.4551 429.893 15.1855 429.893 14.9004V14.7656C429.893 14.4844 429.861 14.2188 429.799 13.9688C429.74 13.7148 429.646 13.4902 429.518 13.2949C429.393 13.0996 429.232 12.9473 429.037 12.8379C428.846 12.7246 428.617 12.668 428.352 12.668C428.086 12.668 427.855 12.7246 427.66 12.8379C427.469 12.9473 427.311 13.0996 427.186 13.2949C427.061 13.4902 426.969 13.7148 426.91 13.9688C426.852 14.2188 426.822 14.4844 426.822 14.7656Z" fill="white"/>
<path d="M437.568 13.793V14.918H434.469V13.793H437.568ZM444.6 14.959V16.084H438.447L438.4 15.2344L442.08 9.46875H443.211L441.986 11.5664L439.871 14.959H444.6ZM443.533 9.46875V18H442.121V9.46875H443.533ZM451.104 13.0195V14.4141C451.104 15.082 451.037 15.6523 450.904 16.125C450.775 16.5938 450.588 16.9746 450.342 17.2676C450.096 17.5605 449.801 17.7754 449.457 17.9121C449.117 18.0488 448.736 18.1172 448.314 18.1172C447.979 18.1172 447.666 18.0742 447.377 17.9883C447.092 17.9023 446.834 17.7676 446.604 17.584C446.373 17.4004 446.176 17.1641 446.012 16.875C445.852 16.582 445.727 16.2324 445.637 15.8262C445.551 15.4199 445.508 14.9492 445.508 14.4141V13.0195C445.508 12.3477 445.574 11.7812 445.707 11.3203C445.84 10.8555 446.029 10.4785 446.275 10.1895C446.521 9.89648 446.814 9.68359 447.154 9.55078C447.498 9.41797 447.881 9.35156 448.303 9.35156C448.643 9.35156 448.955 9.39453 449.24 9.48047C449.529 9.5625 449.787 9.69336 450.014 9.87305C450.244 10.0527 450.439 10.2871 450.6 10.5762C450.764 10.8613 450.889 11.207 450.975 11.6133C451.061 12.0156 451.104 12.4844 451.104 13.0195ZM449.691 14.6133V12.8086C449.691 12.4688 449.672 12.1699 449.633 11.9121C449.594 11.6504 449.535 11.4297 449.457 11.25C449.383 11.0664 449.289 10.918 449.176 10.8047C449.062 10.6875 448.934 10.6035 448.789 10.5527C448.645 10.498 448.482 10.4707 448.303 10.4707C448.084 10.4707 447.889 10.5137 447.717 10.5996C447.545 10.6816 447.4 10.8145 447.283 10.998C447.166 11.1816 447.076 11.4238 447.014 11.7246C446.955 12.0215 446.926 12.3828 446.926 12.8086V14.6133C446.926 14.957 446.945 15.2598 446.984 15.5215C447.023 15.7832 447.082 16.0078 447.16 16.1953C447.238 16.3789 447.332 16.5312 447.441 16.6523C447.555 16.7695 447.684 16.8555 447.828 16.9102C447.977 16.9648 448.139 16.9922 448.314 16.9922C448.537 16.9922 448.734 16.9492 448.906 16.8633C449.078 16.7773 449.223 16.6406 449.34 16.4531C449.457 16.2617 449.545 16.0137 449.604 15.709C449.662 15.4043 449.691 15.0391 449.691 14.6133ZM452.305 11.5605V11.1094C452.305 10.7852 452.375 10.4902 452.516 10.2246C452.656 9.95898 452.861 9.74609 453.131 9.58594C453.4 9.42578 453.725 9.3457 454.104 9.3457C454.494 9.3457 454.822 9.42578 455.088 9.58594C455.357 9.74609 455.562 9.95898 455.703 10.2246C455.844 10.4902 455.914 10.7852 455.914 11.1094V11.5605C455.914 11.877 455.844 12.168 455.703 12.4336C455.566 12.6992 455.363 12.9121 455.094 13.0723C454.828 13.2324 454.502 13.3125 454.115 13.3125C453.732 13.3125 453.404 13.2324 453.131 13.0723C452.861 12.9121 452.656 12.6992 452.516 12.4336C452.375 12.168 452.305 11.877 452.305 11.5605ZM453.283 11.1094V11.5605C453.283 11.7168 453.312 11.8652 453.371 12.0059C453.434 12.1465 453.527 12.2598 453.652 12.3457C453.777 12.4316 453.932 12.4746 454.115 12.4746C454.303 12.4746 454.455 12.4316 454.572 12.3457C454.693 12.2598 454.783 12.1465 454.842 12.0059C454.9 11.8652 454.93 11.7168 454.93 11.5605V11.1094C454.93 10.9492 454.898 10.7988 454.836 10.6582C454.777 10.5137 454.688 10.3984 454.566 10.3125C454.445 10.2266 454.291 10.1836 454.104 10.1836C453.924 10.1836 453.771 10.2266 453.646 10.3125C453.525 10.3984 453.434 10.5137 453.371 10.6582C453.312 10.7988 453.283 10.9492 453.283 11.1094ZM456.418 16.3652V15.9082C456.418 15.5879 456.488 15.2949 456.629 15.0293C456.773 14.7637 456.98 14.5508 457.25 14.3906C457.52 14.2305 457.844 14.1504 458.223 14.1504C458.613 14.1504 458.941 14.2305 459.207 14.3906C459.477 14.5508 459.68 14.7637 459.816 15.0293C459.957 15.2949 460.027 15.5879 460.027 15.9082V16.3652C460.027 16.6855 459.957 16.9785 459.816 17.2441C459.68 17.5098 459.479 17.7227 459.213 17.8828C458.947 18.043 458.621 18.123 458.234 18.123C457.852 18.123 457.523 18.043 457.25 17.8828C456.98 17.7227 456.773 17.5098 456.629 17.2441C456.488 16.9785 456.418 16.6855 456.418 16.3652ZM457.402 15.9082V16.3652C457.402 16.5215 457.434 16.6699 457.496 16.8105C457.562 16.9512 457.658 17.0664 457.783 17.1562C457.908 17.2422 458.059 17.2852 458.234 17.2852C458.434 17.2852 458.594 17.2422 458.715 17.1562C458.836 17.0664 458.922 16.9531 458.973 16.8164C459.027 16.6758 459.055 16.5254 459.055 16.3652V15.9082C459.055 15.748 459.023 15.5977 458.961 15.457C458.902 15.3164 458.811 15.2031 458.686 15.1172C458.564 15.0312 458.41 14.9883 458.223 14.9883C458.039 14.9883 457.887 15.0312 457.766 15.1172C457.645 15.2031 457.553 15.3164 457.49 15.457C457.432 15.5977 457.402 15.748 457.402 15.9082ZM458.574 10.6875L454.408 17.3555L453.688 16.9395L457.854 10.2715L458.574 10.6875ZM462.91 9.46875L462.77 15.4863H461.562L461.416 9.46875H462.91ZM461.375 17.332C461.375 17.1172 461.445 16.9375 461.586 16.793C461.73 16.6445 461.93 16.5703 462.184 16.5703C462.434 16.5703 462.631 16.6445 462.775 16.793C462.92 16.9375 462.992 17.1172 462.992 17.332C462.992 17.5391 462.92 17.7168 462.775 17.8652C462.631 18.0098 462.434 18.082 462.184 18.082C461.93 18.082 461.73 18.0098 461.586 17.8652C461.445 17.7168 461.375 17.5391 461.375 17.332Z" fill="url(#paint2_linear_26165_26805)"/>
<defs>
<linearGradient id="paint0_linear_26165_26805" x1="235" y1="0" x2="235" y2="28" gradientUnits="userSpaceOnUse">
<stop stop-color="#07051A"/>
<stop offset="1" stop-color="#020B34"/>
</linearGradient>
<linearGradient id="paint1_linear_26165_26805" x1="199" y1="14" x2="229.279" y2="15.5524" gradientUnits="userSpaceOnUse">
<stop stop-color="#F7FF01"/>
<stop offset="1" stop-color="#F89251"/>
</linearGradient>
<linearGradient id="paint2_linear_26165_26805" x1="434" y1="14" x2="464.279" y2="15.5524" gradientUnits="userSpaceOnUse">
<stop stop-color="#F7FF01"/>
<stop offset="1" stop-color="#F89251"/>
</linearGradient>
</defs>
</svg>
