<svg width="470" height="28" viewBox="0 0 470 28" fill="none" xmlns="http://www.w3.org/2000/svg">
<rect width="470" height="28" fill="url(#paint0_linear_26165_26787)"/>
<path d="M12.1523 12.953C12.0229 12.6979 11.8664 12.4515 11.6831 12.2503C11.5547 12.1039 11.4174 11.9666 11.2982 11.8294C11.0416 11.5549 10.7403 11.3435 10.4301 11.141C9.71819 10.6626 8.92685 10.4102 8.07351 10.3113C7.55615 10.261 7.0395 10.2832 6.53287 10.4053C6.43337 10.4315 6.34303 10.4669 6.23438 10.484C6.32437 10.4123 6.41436 10.3407 6.49537 10.278C6.81059 10.0543 7.14448 9.88522 7.50601 9.76175C8.46381 9.40824 9.43304 9.29968 10.432 9.45438C11.2221 9.57986 11.9594 9.86806 12.6345 10.2917C12.7166 10.3378 12.7896 10.3929 12.8535 10.4389C12.9083 10.4757 12.9449 10.5123 13.0175 10.513C13.0356 10.5132 13.0539 10.5315 13.0631 10.5406C13.1819 10.6415 13.3189 10.7426 13.4469 10.8526C13.4559 10.8437 13.4739 10.8257 13.4829 10.8167C13.5096 10.7716 13.5457 10.7538 13.6093 10.7635C13.6637 10.764 13.7002 10.7825 13.7368 10.8192C13.7917 10.8741 13.8558 10.9382 13.9108 10.9931C13.9657 11.0481 14.0025 11.1028 14.0213 11.1755C14.04 11.2301 14.0226 11.3025 14.0593 11.3573C14.0685 11.3664 14.0505 11.3844 14.0416 11.3934C14.1053 11.4212 14.1241 11.4939 14.0704 11.5659C14.1426 11.5304 14.1431 11.5848 14.1798 11.6214C14.2257 11.6853 14.135 11.6844 14.1264 11.7297C14.1445 11.7299 14.1535 11.7209 14.1717 11.7211C14.2078 11.7033 14.2259 11.7035 14.2535 11.7491C14.2812 11.7947 14.2724 11.8218 14.2365 11.8577C14.2275 11.8667 14.2187 11.8938 14.2097 11.9028L14.2188 11.9119C14.2278 11.903 14.246 11.9031 14.2549 11.8942C14.2909 11.8582 14.3273 11.8767 14.3458 11.9132C14.3734 11.9588 14.3736 11.9769 14.3285 12.0037C14.3196 12.0127 14.3106 12.0216 14.3016 12.0306C14.2926 12.0396 14.2928 12.0577 14.2928 12.0577C14.3019 12.0669 14.3109 12.0579 14.3201 12.0671C14.3201 12.0671 14.3291 12.0581 14.3472 12.0583C14.4374 12.0047 14.4374 12.0047 14.4928 12.1141C14.4659 12.141 14.4298 12.1588 14.4028 12.1858L14.412 12.1949C14.4481 12.1771 14.4842 12.1593 14.5203 12.1415C14.5388 12.178 14.5662 12.2055 14.5756 12.2328C14.5757 12.2509 14.5307 12.2777 14.5037 12.3046C14.5037 12.3046 14.5129 12.3138 14.5039 12.3227C14.522 12.3229 14.54 12.305 14.5581 12.3051C14.5853 12.2963 14.6032 12.2784 14.6212 12.2604C14.6486 12.2879 14.6671 12.3243 14.6946 12.3518C14.6677 12.3787 14.6316 12.3965 14.6046 12.4235C14.6321 12.4509 14.6321 12.4509 14.7492 12.3704C14.7767 12.3979 14.7951 12.4344 14.8226 12.4618C14.7957 12.4888 14.7687 12.5157 14.7326 12.5335C14.7418 12.5427 14.7418 12.5427 14.7509 12.5518C14.796 12.525 14.823 12.4981 14.868 12.4713C14.8955 12.4988 14.9048 12.5261 14.9323 12.5536C14.9054 12.5805 14.8874 12.5985 14.8694 12.6164C14.8694 12.6164 14.8786 12.6256 14.8696 12.6346C14.8878 12.6347 14.9059 12.6349 14.9149 12.6259C14.9961 12.5814 14.9961 12.5814 15.0603 12.6636C15.0513 12.6726 15.0334 12.6906 15.0336 12.7087C15.0336 12.7087 15.0336 12.7087 15.0427 12.7178C15.0607 12.6999 15.0788 12.7001 15.0968 12.6821C15.1419 12.6553 15.2056 12.6831 15.2151 12.7286C15.2153 12.7467 15.2063 12.7557 15.1975 12.7828C15.1975 12.7828 15.1975 12.7828 15.2066 12.792C15.2516 12.7471 15.288 12.7655 15.3156 12.8112C15.334 12.8295 15.3704 12.848 15.3977 12.8573C15.425 12.8666 15.4523 12.8759 15.4886 12.8763C15.5611 12.877 15.6249 12.9048 15.6618 12.9777C15.671 12.9869 15.6801 12.996 15.6893 13.0052C15.7347 13.0147 15.7441 13.042 15.7354 13.0872C15.8173 13.1152 15.8724 13.1883 15.8548 13.2425C15.9001 13.2339 15.9365 13.2524 15.9189 13.3066L15.928 13.3158C15.9645 13.3343 15.9828 13.3526 15.956 13.3977C16.0015 13.4072 16.0379 13.4257 16.0203 13.4799C16.0839 13.4896 16.0932 13.5169 16.0756 13.5711C16.121 13.5806 16.1483 13.5899 16.1488 13.6444C16.1488 13.6444 16.149 13.6625 16.158 13.6535C16.2034 13.663 16.2038 13.6993 16.2041 13.7356C16.2587 13.7542 16.277 13.7725 16.2594 13.8268C16.323 13.8365 16.3413 13.8548 16.3237 13.909C16.3783 13.9277 16.4429 14.0462 16.4342 14.0914C16.4434 14.1006 16.4615 14.1008 16.4615 14.1008C16.4892 14.1464 16.517 14.2101 16.5446 14.2557C16.5631 14.2922 16.5906 14.3196 16.6091 14.3561C16.6184 14.3834 16.6277 14.4107 16.6461 14.429C16.6552 14.4381 16.6735 14.4564 16.6829 14.4837C16.7015 14.5383 16.7202 14.5929 16.7478 14.6385C16.7663 14.675 16.7939 14.7206 16.8124 14.757C16.8401 14.8026 16.8496 14.8481 16.8772 14.8937C16.8959 14.9483 16.9327 15.003 16.9513 15.0576C16.9978 15.1759 17.0533 15.2853 17.0906 15.3945C17.1188 15.4945 17.1561 15.6036 17.1932 15.6947C17.1934 15.7128 17.2026 15.722 17.2027 15.7401C17.1853 15.8125 17.2131 15.8762 17.2681 15.9312C17.2955 15.9586 17.314 15.9951 17.3325 16.0315C17.3601 16.0771 17.3607 16.1316 17.3158 16.1765C17.2888 16.2034 17.2892 16.2397 17.3346 16.2492C17.4165 16.2772 17.4626 16.3592 17.4814 16.432C17.4908 16.4593 17.4548 16.4952 17.4371 16.5313C17.4282 16.5584 17.4193 16.5674 17.4013 16.5853C17.4286 16.5947 17.4378 16.6038 17.465 16.6132C17.5832 16.6415 17.6568 16.751 17.6216 16.8595C17.6217 16.8776 17.6038 16.8956 17.5948 16.9046C17.5407 16.9403 17.5411 16.9766 17.5957 16.9953C17.6503 17.0139 17.6869 17.0506 17.7237 17.1053C17.7513 17.1509 17.7427 17.1962 17.7069 17.2502C17.6622 17.3133 17.6624 17.3314 17.7261 17.3592C17.8265 17.4237 17.8543 17.4874 17.8284 17.6232C17.802 17.7046 17.7756 17.7859 17.7491 17.8673C17.7315 17.9215 17.6863 17.9301 17.6317 17.9115C17.641 17.9388 17.6504 17.9661 17.6597 17.9934C17.6692 18.0388 17.6787 18.0842 17.6609 18.1203C17.5989 18.2739 17.5369 18.4274 17.4749 18.581C17.3509 18.8881 17.2996 19.2141 17.2484 19.54C17.2315 19.6668 17.1862 19.6754 17.0768 19.62C16.9856 19.5647 16.8853 19.5003 16.7941 19.445C16.7757 19.4267 16.7576 19.4265 16.7213 19.4261C16.5489 19.4154 16.3857 19.4138 16.2223 19.3941C16.1224 19.3841 16.0222 19.3378 15.9221 19.2915C15.64 19.189 15.4475 18.9786 15.2818 18.7231C15.153 18.5224 15.0963 18.2861 15.103 18.0413C15.1016 17.8962 15.1546 17.7516 15.1713 17.6067C15.1883 17.4799 15.2325 17.3625 15.3131 17.2635C15.3848 17.1735 15.4021 17.083 15.4373 16.9745C15.4725 16.866 15.4533 16.757 15.4433 16.6572C15.4324 16.4667 15.3402 16.3025 15.1938 16.1742C15.1116 16.1099 15.0202 16.0365 14.938 15.9722C14.9105 15.9448 14.8922 15.9265 14.8919 15.8902C14.8913 15.8358 14.8818 15.7903 14.8905 15.7451C14.9333 15.4825 14.8676 15.2552 14.7475 15.0273C14.6921 14.918 14.6187 14.8266 14.5361 14.7261C14.426 14.598 14.2894 14.5333 14.1348 14.4864C14.0621 14.4676 14.0621 14.4676 14.0703 14.3861C14.0874 14.2774 14.1045 14.1688 14.1035 14.0599C14.1012 13.8241 13.9995 13.6146 13.8346 13.4498C13.7797 13.3949 13.7068 13.3579 13.6339 13.3209C13.4062 13.219 13.1697 13.1442 12.9074 13.2051C12.7355 13.2488 12.5819 13.3108 12.447 13.4274C12.375 13.4811 12.3296 13.4716 12.2746 13.4167C12.1919 13.298 12.1091 13.1793 12.0896 13.034C12.0984 13.0069 12.0981 12.9706 12.1523 12.953ZM16.95 18.6848C16.9767 18.6397 17.0394 18.5587 17.084 18.4775C17.1999 18.27 17.2157 18.0344 17.1591 17.7981C17.1307 17.68 17.0842 17.5616 16.9929 17.4882C16.8008 17.3141 16.5914 17.2304 16.3375 17.228C16.1108 17.2349 15.912 17.3055 15.741 17.4399C15.4892 17.6551 15.374 17.9351 15.3953 18.2618C15.396 18.3343 15.4148 18.407 15.4518 18.4799C15.5719 18.7078 15.7548 18.8728 16.0003 18.9386C16.3368 19.0416 16.6442 18.9539 16.95 18.6848Z" fill="#F41795"/>
<path d="M35.6172 8.46875V17H34.1523V9.64062H30.3613V17H28.8965V8.46875H35.6172ZM36.9766 13.9004V13.7656C36.9766 13.3086 37.043 12.8848 37.1758 12.4941C37.3086 12.0996 37.5 11.7578 37.75 11.4688C38.0039 11.1758 38.3125 10.9492 38.6758 10.7891C39.043 10.625 39.457 10.543 39.918 10.543C40.3828 10.543 40.7969 10.625 41.1602 10.7891C41.5273 10.9492 41.8379 11.1758 42.0918 11.4688C42.3457 11.7578 42.5391 12.0996 42.6719 12.4941C42.8047 12.8848 42.8711 13.3086 42.8711 13.7656V13.9004C42.8711 14.3574 42.8047 14.7812 42.6719 15.1719C42.5391 15.5625 42.3457 15.9043 42.0918 16.1973C41.8379 16.4863 41.5293 16.7129 41.166 16.877C40.8027 17.0371 40.3906 17.1172 39.9297 17.1172C39.4648 17.1172 39.0488 17.0371 38.6816 16.877C38.3184 16.7129 38.0098 16.4863 37.7559 16.1973C37.502 15.9043 37.3086 15.5625 37.1758 15.1719C37.043 14.7812 36.9766 14.3574 36.9766 13.9004ZM38.3887 13.7656V13.9004C38.3887 14.1855 38.418 14.4551 38.4766 14.709C38.5352 14.9629 38.627 15.1855 38.752 15.377C38.877 15.5684 39.0371 15.7188 39.2324 15.8281C39.4277 15.9375 39.6602 15.9922 39.9297 15.9922C40.1914 15.9922 40.418 15.9375 40.6094 15.8281C40.8047 15.7188 40.9648 15.5684 41.0898 15.377C41.2148 15.1855 41.3066 14.9629 41.3652 14.709C41.4277 14.4551 41.459 14.1855 41.459 13.9004V13.7656C41.459 13.4844 41.4277 13.2188 41.3652 12.9688C41.3066 12.7148 41.2129 12.4902 41.084 12.2949C40.959 12.0996 40.7988 11.9473 40.6035 11.8379C40.4121 11.7246 40.1836 11.668 39.918 11.668C39.6523 11.668 39.4219 11.7246 39.2266 11.8379C39.0352 11.9473 38.877 12.0996 38.752 12.2949C38.627 12.4902 38.5352 12.7148 38.4766 12.9688C38.418 13.2188 38.3887 13.4844 38.3887 13.7656ZM45.5781 10.6602V17H44.166V10.6602H45.5781ZM49.7148 10.6602L46.8613 14.4746H45.25L45.0625 13.1973H46.2402L47.9512 10.6602H49.7148ZM48.0625 17L46.1523 14.2344L47.2656 13.4316L49.9199 17H48.0625ZM52.5273 16.3086L54.25 10.6602H55.7617L53.2188 17.9668C53.1602 18.123 53.084 18.293 52.9902 18.4766C52.8965 18.6602 52.7734 18.834 52.6211 18.998C52.4727 19.166 52.2871 19.3008 52.0645 19.4023C51.8418 19.5078 51.5723 19.5605 51.2559 19.5605C51.1309 19.5605 51.0098 19.5488 50.8926 19.5254C50.7793 19.5059 50.6719 19.4844 50.5703 19.4609L50.5645 18.3828C50.6035 18.3867 50.6504 18.3906 50.7051 18.3945C50.7637 18.3984 50.8105 18.4004 50.8457 18.4004C51.0801 18.4004 51.2754 18.3711 51.4316 18.3125C51.5879 18.2578 51.7148 18.168 51.8125 18.043C51.9141 17.918 52 17.75 52.0703 17.5391L52.5273 16.3086ZM51.5547 10.6602L53.0605 15.4062L53.3125 16.8945L52.334 17.1465L50.0312 10.6602H51.5547ZM60.8242 10.6602V11.7852H57.6953V10.6602H60.8242ZM58.0293 10.6602V17H56.6172V10.6602H58.0293ZM61.9316 10.6602V17H60.5137V10.6602H61.9316ZM67 15.7285V12.7051C67 12.4785 66.959 12.2832 66.877 12.1191C66.7949 11.9551 66.6699 11.8281 66.502 11.7383C66.3379 11.6484 66.1309 11.6035 65.8809 11.6035C65.6504 11.6035 65.4512 11.6426 65.2832 11.7207C65.1152 11.7988 64.9844 11.9043 64.8906 12.0371C64.7969 12.1699 64.75 12.3203 64.75 12.4883H63.3438C63.3438 12.2383 63.4043 11.9961 63.5254 11.7617C63.6465 11.5273 63.8223 11.3184 64.0527 11.1348C64.2832 10.9512 64.5586 10.8066 64.8789 10.7012C65.1992 10.5957 65.5586 10.543 65.957 10.543C66.4336 10.543 66.8555 10.623 67.2227 10.7832C67.5938 10.9434 67.8848 11.1855 68.0957 11.5098C68.3105 11.8301 68.418 12.2324 68.418 12.7168V15.5352C68.418 15.8242 68.4375 16.084 68.4766 16.3145C68.5195 16.541 68.5801 16.7383 68.6582 16.9062V17H67.2109C67.1445 16.8477 67.0918 16.6543 67.0527 16.4199C67.0176 16.1816 67 15.9512 67 15.7285ZM67.2051 13.1445L67.2168 14.0176H66.2031C65.9414 14.0176 65.7109 14.043 65.5117 14.0938C65.3125 14.1406 65.1465 14.2109 65.0137 14.3047C64.8809 14.3984 64.7812 14.5117 64.7148 14.6445C64.6484 14.7773 64.6152 14.9277 64.6152 15.0957C64.6152 15.2637 64.6543 15.418 64.7324 15.5586C64.8105 15.6953 64.9238 15.8027 65.0723 15.8809C65.2246 15.959 65.4082 15.998 65.623 15.998C65.9121 15.998 66.1641 15.9395 66.3789 15.8223C66.5977 15.7012 66.7695 15.5547 66.8945 15.3828C67.0195 15.207 67.0859 15.041 67.0938 14.8848L67.5508 15.5117C67.5039 15.6719 67.4238 15.8438 67.3105 16.0273C67.1973 16.2109 67.0488 16.3867 66.8652 16.5547C66.6855 16.7188 66.4688 16.8535 66.2148 16.959C65.9648 17.0645 65.6758 17.1172 65.3477 17.1172C64.9336 17.1172 64.5645 17.0352 64.2402 16.8711C63.916 16.7031 63.6621 16.4785 63.4785 16.1973C63.2949 15.9121 63.2031 15.5898 63.2031 15.2305C63.2031 14.8945 63.2656 14.5977 63.3906 14.3398C63.5195 14.0781 63.707 13.8594 63.9531 13.6836C64.2031 13.5078 64.5078 13.375 64.8672 13.2852C65.2266 13.1914 65.6367 13.1445 66.0977 13.1445H67.2051ZM71.3535 14.9375L73.8438 10.6602H75.2559V17H73.8438V12.7168L71.3535 17H69.9414V10.6602H71.3535V14.9375ZM73.4688 8.22266H74.5176C74.5176 8.54688 74.4395 8.83398 74.2832 9.08398C74.1309 9.33008 73.9121 9.52344 73.627 9.66406C73.3457 9.80469 73.0098 9.875 72.6191 9.875C72.0293 9.875 71.5625 9.72266 71.2188 9.41797C70.8789 9.10938 70.709 8.71094 70.709 8.22266H71.7578C71.7578 8.44141 71.8223 8.63477 71.9512 8.80273C72.084 8.9668 72.3066 9.04883 72.6191 9.04883C72.9277 9.04883 73.1465 8.9668 73.2754 8.80273C73.4043 8.63477 73.4688 8.44141 73.4688 8.22266ZM82.3281 15.9922C82.5586 15.9922 82.7656 15.9473 82.9492 15.8574C83.1367 15.7637 83.2871 15.6348 83.4004 15.4707C83.5176 15.3066 83.582 15.1172 83.5938 14.9023H84.9238C84.916 15.3125 84.7949 15.6855 84.5605 16.0215C84.3262 16.3574 84.0156 16.625 83.6289 16.8242C83.2422 17.0195 82.8145 17.1172 82.3457 17.1172C81.8613 17.1172 81.4395 17.0352 81.0801 16.8711C80.7207 16.7031 80.4219 16.4727 80.1836 16.1797C79.9453 15.8867 79.7656 15.5488 79.6445 15.166C79.5273 14.7832 79.4688 14.373 79.4688 13.9355V13.7305C79.4688 13.293 79.5273 12.8828 79.6445 12.5C79.7656 12.1133 79.9453 11.7734 80.1836 11.4805C80.4219 11.1875 80.7207 10.959 81.0801 10.7949C81.4395 10.627 81.8594 10.543 82.3398 10.543C82.8477 10.543 83.293 10.6445 83.6758 10.8477C84.0586 11.0469 84.3594 11.3262 84.5781 11.6855C84.8008 12.041 84.916 12.4551 84.9238 12.9277H83.5938C83.582 12.6934 83.5234 12.4824 83.418 12.2949C83.3164 12.1035 83.1719 11.9512 82.9844 11.8379C82.8008 11.7246 82.5801 11.668 82.3223 11.668C82.0371 11.668 81.8008 11.7266 81.6133 11.8438C81.4258 11.957 81.2793 12.1133 81.1738 12.3125C81.0684 12.5078 80.9922 12.7285 80.9453 12.9746C80.9023 13.2168 80.8809 13.4688 80.8809 13.7305V13.9355C80.8809 14.1973 80.9023 14.4512 80.9453 14.6973C80.9883 14.9434 81.0625 15.1641 81.168 15.3594C81.2773 15.5508 81.4258 15.7051 81.6133 15.8223C81.8008 15.9355 82.0391 15.9922 82.3281 15.9922ZM87.5312 10.6602V17H86.1191V10.6602H87.5312ZM91.668 10.6602L88.8145 14.4746H87.2031L87.0156 13.1973H88.1934L89.9043 10.6602H91.668ZM90.0156 17L88.1055 14.2344L89.2188 13.4316L91.873 17H90.0156ZM94.0996 14.9375L96.5898 10.6602H98.002V17H96.5898V12.7168L94.0996 17H92.6875V10.6602H94.0996V14.9375ZM103.826 13.3086V14.4219H100.545V13.3086H103.826ZM100.955 10.6602V17H99.543V10.6602H100.955ZM104.846 10.6602V17H103.434V10.6602H104.846ZM107.4 12.6758H109.27C109.816 12.6758 110.281 12.7676 110.664 12.9512C111.047 13.1348 111.338 13.3906 111.537 13.7188C111.74 14.043 111.842 14.4141 111.842 14.832C111.842 15.1406 111.785 15.4277 111.672 15.6934C111.559 15.9551 111.391 16.1836 111.168 16.3789C110.949 16.5742 110.68 16.7266 110.359 16.8359C110.043 16.9453 109.68 17 109.27 17H106.463V10.6602H107.881V15.8809H109.27C109.551 15.8809 109.775 15.832 109.943 15.7344C110.111 15.6367 110.232 15.5098 110.307 15.3535C110.385 15.1973 110.424 15.0312 110.424 14.8555C110.424 14.6758 110.385 14.5059 110.307 14.3457C110.232 14.1855 110.111 14.0547 109.943 13.9531C109.775 13.8516 109.551 13.8008 109.27 13.8008H107.4V12.6758ZM114.338 10.6602V17H112.926V10.6602H114.338ZM121.586 15.9922C121.816 15.9922 122.023 15.9473 122.207 15.8574C122.395 15.7637 122.545 15.6348 122.658 15.4707C122.775 15.3066 122.84 15.1172 122.852 14.9023H124.182C124.174 15.3125 124.053 15.6855 123.818 16.0215C123.584 16.3574 123.273 16.625 122.887 16.8242C122.5 17.0195 122.072 17.1172 121.604 17.1172C121.119 17.1172 120.697 17.0352 120.338 16.8711C119.979 16.7031 119.68 16.4727 119.441 16.1797C119.203 15.8867 119.023 15.5488 118.902 15.166C118.785 14.7832 118.727 14.373 118.727 13.9355V13.7305C118.727 13.293 118.785 12.8828 118.902 12.5C119.023 12.1133 119.203 11.7734 119.441 11.4805C119.68 11.1875 119.979 10.959 120.338 10.7949C120.697 10.627 121.117 10.543 121.598 10.543C122.105 10.543 122.551 10.6445 122.934 10.8477C123.316 11.0469 123.617 11.3262 123.836 11.6855C124.059 12.041 124.174 12.4551 124.182 12.9277H122.852C122.84 12.6934 122.781 12.4824 122.676 12.2949C122.574 12.1035 122.43 11.9512 122.242 11.8379C122.059 11.7246 121.838 11.668 121.58 11.668C121.295 11.668 121.059 11.7266 120.871 11.8438C120.684 11.957 120.537 12.1133 120.432 12.3125C120.326 12.5078 120.25 12.7285 120.203 12.9746C120.16 13.2168 120.139 13.4688 120.139 13.7305V13.9355C120.139 14.1973 120.16 14.4512 120.203 14.6973C120.246 14.9434 120.32 15.1641 120.426 15.3594C120.535 15.5508 120.684 15.7051 120.871 15.8223C121.059 15.9355 121.297 15.9922 121.586 15.9922ZM124.996 13.9004V13.7656C124.996 13.3086 125.062 12.8848 125.195 12.4941C125.328 12.0996 125.52 11.7578 125.77 11.4688C126.023 11.1758 126.332 10.9492 126.695 10.7891C127.062 10.625 127.477 10.543 127.938 10.543C128.402 10.543 128.816 10.625 129.18 10.7891C129.547 10.9492 129.857 11.1758 130.111 11.4688C130.365 11.7578 130.559 12.0996 130.691 12.4941C130.824 12.8848 130.891 13.3086 130.891 13.7656V13.9004C130.891 14.3574 130.824 14.7812 130.691 15.1719C130.559 15.5625 130.365 15.9043 130.111 16.1973C129.857 16.4863 129.549 16.7129 129.186 16.877C128.822 17.0371 128.41 17.1172 127.949 17.1172C127.484 17.1172 127.068 17.0371 126.701 16.877C126.338 16.7129 126.029 16.4863 125.775 16.1973C125.521 15.9043 125.328 15.5625 125.195 15.1719C125.062 14.7812 124.996 14.3574 124.996 13.9004ZM126.408 13.7656V13.9004C126.408 14.1855 126.438 14.4551 126.496 14.709C126.555 14.9629 126.646 15.1855 126.771 15.377C126.896 15.5684 127.057 15.7188 127.252 15.8281C127.447 15.9375 127.68 15.9922 127.949 15.9922C128.211 15.9922 128.438 15.9375 128.629 15.8281C128.824 15.7188 128.984 15.5684 129.109 15.377C129.234 15.1855 129.326 14.9629 129.385 14.709C129.447 14.4551 129.479 14.1855 129.479 13.9004V13.7656C129.479 13.4844 129.447 13.2188 129.385 12.9688C129.326 12.7148 129.232 12.4902 129.104 12.2949C128.979 12.0996 128.818 11.9473 128.623 11.8379C128.432 11.7246 128.203 11.668 127.938 11.668C127.672 11.668 127.441 11.7246 127.246 11.8379C127.055 11.9473 126.896 12.0996 126.771 12.2949C126.646 12.4902 126.555 12.7148 126.496 12.9688C126.438 13.2188 126.408 13.4844 126.408 13.7656ZM137.652 15.9922C137.883 15.9922 138.09 15.9473 138.273 15.8574C138.461 15.7637 138.611 15.6348 138.725 15.4707C138.842 15.3066 138.906 15.1172 138.918 14.9023H140.248C140.24 15.3125 140.119 15.6855 139.885 16.0215C139.65 16.3574 139.34 16.625 138.953 16.8242C138.566 17.0195 138.139 17.1172 137.67 17.1172C137.186 17.1172 136.764 17.0352 136.404 16.8711C136.045 16.7031 135.746 16.4727 135.508 16.1797C135.27 15.8867 135.09 15.5488 134.969 15.166C134.852 14.7832 134.793 14.373 134.793 13.9355V13.7305C134.793 13.293 134.852 12.8828 134.969 12.5C135.09 12.1133 135.27 11.7734 135.508 11.4805C135.746 11.1875 136.045 10.959 136.404 10.7949C136.764 10.627 137.184 10.543 137.664 10.543C138.172 10.543 138.617 10.6445 139 10.8477C139.383 11.0469 139.684 11.3262 139.902 11.6855C140.125 12.041 140.24 12.4551 140.248 12.9277H138.918C138.906 12.6934 138.848 12.4824 138.742 12.2949C138.641 12.1035 138.496 11.9512 138.309 11.8379C138.125 11.7246 137.904 11.668 137.646 11.668C137.361 11.668 137.125 11.7266 136.938 11.8438C136.75 11.957 136.604 12.1133 136.498 12.3125C136.393 12.5078 136.316 12.7285 136.27 12.9746C136.227 13.2168 136.205 13.4688 136.205 13.7305V13.9355C136.205 14.1973 136.227 14.4512 136.27 14.6973C136.312 14.9434 136.387 15.1641 136.492 15.3594C136.602 15.5508 136.75 15.7051 136.938 15.8223C137.125 15.9355 137.363 15.9922 137.652 15.9922ZM142.855 10.6602V17H141.443V10.6602H142.855ZM146.992 10.6602L144.139 14.4746H142.527L142.34 13.1973H143.518L145.229 10.6602H146.992ZM145.34 17L143.43 14.2344L144.543 13.4316L147.197 17H145.34ZM149.424 14.9375L151.914 10.6602H153.326V17H151.914V12.7168L149.424 17H148.012V10.6602H149.424V14.9375ZM155.969 10.6602H157.381L157.311 12.8926C157.291 13.541 157.217 14.0977 157.088 14.5625C156.959 15.0273 156.791 15.4199 156.584 15.7402C156.377 16.0566 156.143 16.3164 155.881 16.5195C155.623 16.7227 155.352 16.8828 155.066 17H154.65V15.8867L154.85 15.875C155.018 15.6953 155.162 15.5156 155.283 15.3359C155.408 15.1523 155.514 14.9512 155.6 14.7324C155.686 14.5098 155.752 14.25 155.799 13.9531C155.85 13.6562 155.883 13.3027 155.898 12.8926L155.969 10.6602ZM156.344 10.6602H160.363V17H158.957V11.8555H156.344V10.6602ZM154.328 15.875H161.23V18.8867H159.818V17H155.758V18.8867H154.322L154.328 15.875ZM163.727 10.6602V17H162.314V10.6602H163.727ZM167.863 10.6602L165.01 14.4746H163.398L163.211 13.1973H164.389L166.1 10.6602H167.863ZM166.211 17L164.301 14.2344L165.414 13.4316L168.068 17H166.211ZM168.355 13.9004V13.7656C168.355 13.3086 168.422 12.8848 168.555 12.4941C168.688 12.0996 168.879 11.7578 169.129 11.4688C169.383 11.1758 169.691 10.9492 170.055 10.7891C170.422 10.625 170.836 10.543 171.297 10.543C171.762 10.543 172.176 10.625 172.539 10.7891C172.906 10.9492 173.217 11.1758 173.471 11.4688C173.725 11.7578 173.918 12.0996 174.051 12.4941C174.184 12.8848 174.25 13.3086 174.25 13.7656V13.9004C174.25 14.3574 174.184 14.7812 174.051 15.1719C173.918 15.5625 173.725 15.9043 173.471 16.1973C173.217 16.4863 172.908 16.7129 172.545 16.877C172.182 17.0371 171.77 17.1172 171.309 17.1172C170.844 17.1172 170.428 17.0371 170.061 16.877C169.697 16.7129 169.389 16.4863 169.135 16.1973C168.881 15.9043 168.688 15.5625 168.555 15.1719C168.422 14.7812 168.355 14.3574 168.355 13.9004ZM169.768 13.7656V13.9004C169.768 14.1855 169.797 14.4551 169.855 14.709C169.914 14.9629 170.006 15.1855 170.131 15.377C170.256 15.5684 170.416 15.7188 170.611 15.8281C170.807 15.9375 171.039 15.9922 171.309 15.9922C171.57 15.9922 171.797 15.9375 171.988 15.8281C172.184 15.7188 172.344 15.5684 172.469 15.377C172.594 15.1855 172.686 14.9629 172.744 14.709C172.807 14.4551 172.838 14.1855 172.838 13.9004V13.7656C172.838 13.4844 172.807 13.2188 172.744 12.9688C172.686 12.7148 172.592 12.4902 172.463 12.2949C172.338 12.0996 172.178 11.9473 171.982 11.8379C171.791 11.7246 171.562 11.668 171.297 11.668C171.031 11.668 170.801 11.7246 170.605 11.8379C170.414 11.9473 170.256 12.0996 170.131 12.2949C170.006 12.4902 169.914 12.7148 169.855 12.9688C169.797 13.2188 169.768 13.4844 169.768 13.7656ZM176.893 14.9375L179.383 10.6602H180.795V17H179.383V12.7168L176.893 17H175.48V10.6602H176.893V14.9375ZM179.008 8.22266H180.057C180.057 8.54688 179.979 8.83398 179.822 9.08398C179.67 9.33008 179.451 9.52344 179.166 9.66406C178.885 9.80469 178.549 9.875 178.158 9.875C177.568 9.875 177.102 9.72266 176.758 9.41797C176.418 9.10938 176.248 8.71094 176.248 8.22266H177.297C177.297 8.44141 177.361 8.63477 177.49 8.80273C177.623 8.9668 177.846 9.04883 178.158 9.04883C178.467 9.04883 178.686 8.9668 178.814 8.80273C178.943 8.63477 179.008 8.44141 179.008 8.22266ZM186.426 10.6602H187.838L187.768 12.8926C187.748 13.541 187.674 14.0977 187.545 14.5625C187.416 15.0273 187.248 15.4199 187.041 15.7402C186.834 16.0566 186.6 16.3164 186.338 16.5195C186.08 16.7227 185.809 16.8828 185.523 17H185.107V15.8867L185.307 15.875C185.475 15.6953 185.619 15.5156 185.74 15.3359C185.865 15.1523 185.971 14.9512 186.057 14.7324C186.143 14.5098 186.209 14.25 186.256 13.9531C186.307 13.6562 186.34 13.3027 186.355 12.8926L186.426 10.6602ZM186.801 10.6602H190.82V17H189.414V11.8555H186.801V10.6602ZM184.785 15.875H191.688V18.8867H190.275V17H186.215V18.8867H184.779L184.785 15.875ZM192.426 13.9004V13.7656C192.426 13.3086 192.492 12.8848 192.625 12.4941C192.758 12.0996 192.949 11.7578 193.199 11.4688C193.453 11.1758 193.762 10.9492 194.125 10.7891C194.492 10.625 194.906 10.543 195.367 10.543C195.832 10.543 196.246 10.625 196.609 10.7891C196.977 10.9492 197.287 11.1758 197.541 11.4688C197.795 11.7578 197.988 12.0996 198.121 12.4941C198.254 12.8848 198.32 13.3086 198.32 13.7656V13.9004C198.32 14.3574 198.254 14.7812 198.121 15.1719C197.988 15.5625 197.795 15.9043 197.541 16.1973C197.287 16.4863 196.979 16.7129 196.615 16.877C196.252 17.0371 195.84 17.1172 195.379 17.1172C194.914 17.1172 194.498 17.0371 194.131 16.877C193.768 16.7129 193.459 16.4863 193.205 16.1973C192.951 15.9043 192.758 15.5625 192.625 15.1719C192.492 14.7812 192.426 14.3574 192.426 13.9004ZM193.838 13.7656V13.9004C193.838 14.1855 193.867 14.4551 193.926 14.709C193.984 14.9629 194.076 15.1855 194.201 15.377C194.326 15.5684 194.486 15.7188 194.682 15.8281C194.877 15.9375 195.109 15.9922 195.379 15.9922C195.641 15.9922 195.867 15.9375 196.059 15.8281C196.254 15.7188 196.414 15.5684 196.539 15.377C196.664 15.1855 196.756 14.9629 196.814 14.709C196.877 14.4551 196.908 14.1855 196.908 13.9004V13.7656C196.908 13.4844 196.877 13.2188 196.814 12.9688C196.756 12.7148 196.662 12.4902 196.533 12.2949C196.408 12.0996 196.248 11.9473 196.053 11.8379C195.861 11.7246 195.633 11.668 195.367 11.668C195.102 11.668 194.871 11.7246 194.676 11.8379C194.484 11.9473 194.326 12.0996 194.201 12.2949C194.076 12.4902 193.984 12.7148 193.926 12.9688C193.867 13.2188 193.838 13.4844 193.838 13.7656Z" fill="white"/>
<path d="M204.568 12.793V13.918H201.469V12.793H204.568ZM211.6 13.959V15.084H205.447L205.4 14.2344L209.08 8.46875H210.211L208.986 10.5664L206.871 13.959H211.6ZM210.533 8.46875V17H209.121V8.46875H210.533ZM218.104 12.0195V13.4141C218.104 14.082 218.037 14.6523 217.904 15.125C217.775 15.5938 217.588 15.9746 217.342 16.2676C217.096 16.5605 216.801 16.7754 216.457 16.9121C216.117 17.0488 215.736 17.1172 215.314 17.1172C214.979 17.1172 214.666 17.0742 214.377 16.9883C214.092 16.9023 213.834 16.7676 213.604 16.584C213.373 16.4004 213.176 16.1641 213.012 15.875C212.852 15.582 212.727 15.2324 212.637 14.8262C212.551 14.4199 212.508 13.9492 212.508 13.4141V12.0195C212.508 11.3477 212.574 10.7812 212.707 10.3203C212.84 9.85547 213.029 9.47852 213.275 9.18945C213.521 8.89648 213.814 8.68359 214.154 8.55078C214.498 8.41797 214.881 8.35156 215.303 8.35156C215.643 8.35156 215.955 8.39453 216.24 8.48047C216.529 8.5625 216.787 8.69336 217.014 8.87305C217.244 9.05273 217.439 9.28711 217.6 9.57617C217.764 9.86133 217.889 10.207 217.975 10.6133C218.061 11.0156 218.104 11.4844 218.104 12.0195ZM216.691 13.6133V11.8086C216.691 11.4688 216.672 11.1699 216.633 10.9121C216.594 10.6504 216.535 10.4297 216.457 10.25C216.383 10.0664 216.289 9.91797 216.176 9.80469C216.062 9.6875 215.934 9.60352 215.789 9.55273C215.645 9.49805 215.482 9.4707 215.303 9.4707C215.084 9.4707 214.889 9.51367 214.717 9.59961C214.545 9.68164 214.4 9.81445 214.283 9.99805C214.166 10.1816 214.076 10.4238 214.014 10.7246C213.955 11.0215 213.926 11.3828 213.926 11.8086V13.6133C213.926 13.957 213.945 14.2598 213.984 14.5215C214.023 14.7832 214.082 15.0078 214.16 15.1953C214.238 15.3789 214.332 15.5312 214.441 15.6523C214.555 15.7695 214.684 15.8555 214.828 15.9102C214.977 15.9648 215.139 15.9922 215.314 15.9922C215.537 15.9922 215.734 15.9492 215.906 15.8633C216.078 15.7773 216.223 15.6406 216.34 15.4531C216.457 15.2617 216.545 15.0137 216.604 14.709C216.662 14.4043 216.691 14.0391 216.691 13.6133ZM219.305 10.5605V10.1094C219.305 9.78516 219.375 9.49023 219.516 9.22461C219.656 8.95898 219.861 8.74609 220.131 8.58594C220.4 8.42578 220.725 8.3457 221.104 8.3457C221.494 8.3457 221.822 8.42578 222.088 8.58594C222.357 8.74609 222.562 8.95898 222.703 9.22461C222.844 9.49023 222.914 9.78516 222.914 10.1094V10.5605C222.914 10.877 222.844 11.168 222.703 11.4336C222.566 11.6992 222.363 11.9121 222.094 12.0723C221.828 12.2324 221.502 12.3125 221.115 12.3125C220.732 12.3125 220.404 12.2324 220.131 12.0723C219.861 11.9121 219.656 11.6992 219.516 11.4336C219.375 11.168 219.305 10.877 219.305 10.5605ZM220.283 10.1094V10.5605C220.283 10.7168 220.312 10.8652 220.371 11.0059C220.434 11.1465 220.527 11.2598 220.652 11.3457C220.777 11.4316 220.932 11.4746 221.115 11.4746C221.303 11.4746 221.455 11.4316 221.572 11.3457C221.693 11.2598 221.783 11.1465 221.842 11.0059C221.9 10.8652 221.93 10.7168 221.93 10.5605V10.1094C221.93 9.94922 221.898 9.79883 221.836 9.6582C221.777 9.51367 221.688 9.39844 221.566 9.3125C221.445 9.22656 221.291 9.18359 221.104 9.18359C220.924 9.18359 220.771 9.22656 220.646 9.3125C220.525 9.39844 220.434 9.51367 220.371 9.6582C220.312 9.79883 220.283 9.94922 220.283 10.1094ZM223.418 15.3652V14.9082C223.418 14.5879 223.488 14.2949 223.629 14.0293C223.773 13.7637 223.98 13.5508 224.25 13.3906C224.52 13.2305 224.844 13.1504 225.223 13.1504C225.613 13.1504 225.941 13.2305 226.207 13.3906C226.477 13.5508 226.68 13.7637 226.816 14.0293C226.957 14.2949 227.027 14.5879 227.027 14.9082V15.3652C227.027 15.6855 226.957 15.9785 226.816 16.2441C226.68 16.5098 226.479 16.7227 226.213 16.8828C225.947 17.043 225.621 17.123 225.234 17.123C224.852 17.123 224.523 17.043 224.25 16.8828C223.98 16.7227 223.773 16.5098 223.629 16.2441C223.488 15.9785 223.418 15.6855 223.418 15.3652ZM224.402 14.9082V15.3652C224.402 15.5215 224.434 15.6699 224.496 15.8105C224.562 15.9512 224.658 16.0664 224.783 16.1562C224.908 16.2422 225.059 16.2852 225.234 16.2852C225.434 16.2852 225.594 16.2422 225.715 16.1562C225.836 16.0664 225.922 15.9531 225.973 15.8164C226.027 15.6758 226.055 15.5254 226.055 15.3652V14.9082C226.055 14.748 226.023 14.5977 225.961 14.457C225.902 14.3164 225.811 14.2031 225.686 14.1172C225.564 14.0312 225.41 13.9883 225.223 13.9883C225.039 13.9883 224.887 14.0312 224.766 14.1172C224.645 14.2031 224.553 14.3164 224.49 14.457C224.432 14.5977 224.402 14.748 224.402 14.9082ZM225.574 9.6875L221.408 16.3555L220.688 15.9395L224.854 9.27148L225.574 9.6875ZM229.91 8.46875L229.77 14.4863H228.562L228.416 8.46875H229.91ZM228.375 16.332C228.375 16.1172 228.445 15.9375 228.586 15.793C228.73 15.6445 228.93 15.5703 229.184 15.5703C229.434 15.5703 229.631 15.6445 229.775 15.793C229.92 15.9375 229.992 16.1172 229.992 16.332C229.992 16.5391 229.92 16.7168 229.775 16.8652C229.631 17.0098 229.434 17.082 229.184 17.082C228.93 17.082 228.73 17.0098 228.586 16.8652C228.445 16.7168 228.375 16.5391 228.375 16.332Z" fill="url(#paint1_linear_26165_26787)"/>
<path d="M247.152 12.953C247.023 12.6979 246.866 12.4515 246.683 12.2503C246.555 12.1039 246.417 11.9666 246.298 11.8294C246.042 11.5549 245.74 11.3435 245.43 11.141C244.718 10.6626 243.927 10.4102 243.074 10.3113C242.556 10.261 242.039 10.2832 241.533 10.4053C241.433 10.4315 241.343 10.4669 241.234 10.484C241.324 10.4123 241.414 10.3407 241.495 10.278C241.811 10.0543 242.144 9.88522 242.506 9.76175C243.464 9.40824 244.433 9.29968 245.432 9.45438C246.222 9.57986 246.959 9.86806 247.634 10.2917C247.717 10.3378 247.79 10.3929 247.854 10.4389C247.908 10.4757 247.945 10.5123 248.017 10.513C248.036 10.5132 248.054 10.5315 248.063 10.5406C248.182 10.6415 248.319 10.7426 248.447 10.8526C248.456 10.8437 248.474 10.8257 248.483 10.8167C248.51 10.7716 248.546 10.7538 248.609 10.7635C248.664 10.764 248.7 10.7825 248.737 10.8192C248.792 10.8741 248.856 10.9382 248.911 10.9931C248.966 11.0481 249.002 11.1028 249.021 11.1755C249.04 11.2301 249.023 11.3025 249.059 11.3573C249.069 11.3664 249.051 11.3844 249.042 11.3934C249.105 11.4212 249.124 11.4939 249.07 11.5659C249.143 11.5304 249.143 11.5848 249.18 11.6214C249.226 11.6853 249.135 11.6844 249.126 11.7297C249.145 11.7299 249.154 11.7209 249.172 11.7211C249.208 11.7033 249.226 11.7035 249.254 11.7491C249.281 11.7947 249.272 11.8218 249.236 11.8577C249.227 11.8667 249.219 11.8938 249.21 11.9028L249.219 11.9119C249.228 11.903 249.246 11.9031 249.255 11.8942C249.291 11.8582 249.327 11.8767 249.346 11.9132C249.373 11.9588 249.374 11.9769 249.329 12.0037C249.32 12.0127 249.311 12.0216 249.302 12.0306C249.293 12.0396 249.293 12.0577 249.293 12.0577C249.302 12.0669 249.311 12.0579 249.32 12.0671C249.32 12.0671 249.329 12.0581 249.347 12.0583C249.437 12.0047 249.437 12.0047 249.493 12.1141C249.466 12.141 249.43 12.1588 249.403 12.1858L249.412 12.1949C249.448 12.1771 249.484 12.1593 249.52 12.1415C249.539 12.178 249.566 12.2055 249.576 12.2328C249.576 12.2509 249.531 12.2777 249.504 12.3046C249.504 12.3046 249.513 12.3138 249.504 12.3227C249.522 12.3229 249.54 12.305 249.558 12.3051C249.585 12.2963 249.603 12.2784 249.621 12.2604C249.649 12.2879 249.667 12.3243 249.695 12.3518C249.668 12.3787 249.632 12.3965 249.605 12.4235C249.632 12.4509 249.632 12.4509 249.749 12.3704C249.777 12.3979 249.795 12.4344 249.823 12.4618C249.796 12.4888 249.769 12.5157 249.733 12.5335C249.742 12.5427 249.742 12.5427 249.751 12.5518C249.796 12.525 249.823 12.4981 249.868 12.4713C249.896 12.4988 249.905 12.5261 249.932 12.5536C249.905 12.5805 249.887 12.5985 249.869 12.6164C249.869 12.6164 249.879 12.6256 249.87 12.6346C249.888 12.6347 249.906 12.6349 249.915 12.6259C249.996 12.5814 249.996 12.5814 250.06 12.6636C250.051 12.6726 250.033 12.6906 250.034 12.7087C250.034 12.7087 250.034 12.7087 250.043 12.7178C250.061 12.6999 250.079 12.7001 250.097 12.6821C250.142 12.6553 250.206 12.6831 250.215 12.7286C250.215 12.7467 250.206 12.7557 250.197 12.7828C250.197 12.7828 250.197 12.7828 250.207 12.792C250.252 12.7471 250.288 12.7655 250.316 12.8112C250.334 12.8295 250.37 12.848 250.398 12.8573C250.425 12.8666 250.452 12.8759 250.489 12.8763C250.561 12.877 250.625 12.9048 250.662 12.9777C250.671 12.9869 250.68 12.996 250.689 13.0052C250.735 13.0147 250.744 13.042 250.735 13.0872C250.817 13.1152 250.872 13.1883 250.855 13.2425C250.9 13.2339 250.937 13.2524 250.919 13.3066L250.928 13.3158C250.964 13.3343 250.983 13.3526 250.956 13.3977C251.001 13.4072 251.038 13.4257 251.02 13.4799C251.084 13.4896 251.093 13.5169 251.076 13.5711C251.121 13.5806 251.148 13.5899 251.149 13.6444C251.149 13.6444 251.149 13.6625 251.158 13.6535C251.203 13.663 251.204 13.6993 251.204 13.7356C251.259 13.7542 251.277 13.7725 251.259 13.8268C251.323 13.8365 251.341 13.8548 251.324 13.909C251.378 13.9277 251.443 14.0462 251.434 14.0914C251.443 14.1006 251.462 14.1008 251.462 14.1008C251.489 14.1464 251.517 14.2101 251.545 14.2557C251.563 14.2922 251.591 14.3196 251.609 14.3561C251.618 14.3834 251.628 14.4107 251.646 14.429C251.655 14.4381 251.674 14.4564 251.683 14.4837C251.702 14.5383 251.72 14.5929 251.748 14.6385C251.766 14.675 251.794 14.7206 251.812 14.757C251.84 14.8026 251.85 14.8481 251.877 14.8937C251.896 14.9483 251.933 15.003 251.951 15.0576C251.998 15.1759 252.053 15.2853 252.091 15.3945C252.119 15.4945 252.156 15.6036 252.193 15.6947C252.193 15.7128 252.203 15.722 252.203 15.7401C252.185 15.8125 252.213 15.8762 252.268 15.9312C252.296 15.9586 252.314 15.9951 252.333 16.0315C252.36 16.0771 252.361 16.1316 252.316 16.1765C252.289 16.2034 252.289 16.2397 252.335 16.2492C252.416 16.2772 252.463 16.3592 252.481 16.432C252.491 16.4593 252.455 16.4952 252.437 16.5313C252.428 16.5584 252.419 16.5674 252.401 16.5853C252.429 16.5947 252.438 16.6038 252.465 16.6132C252.583 16.6415 252.657 16.751 252.622 16.8595C252.622 16.8776 252.604 16.8956 252.595 16.9046C252.541 16.9403 252.541 16.9766 252.596 16.9953C252.65 17.0139 252.687 17.0506 252.724 17.1053C252.751 17.1509 252.743 17.1962 252.707 17.2502C252.662 17.3133 252.662 17.3314 252.726 17.3592C252.826 17.4237 252.854 17.4874 252.828 17.6232C252.802 17.7046 252.776 17.7859 252.749 17.8673C252.732 17.9215 252.686 17.9301 252.632 17.9115C252.641 17.9388 252.65 17.9661 252.66 17.9934C252.669 18.0388 252.679 18.0842 252.661 18.1203C252.599 18.2739 252.537 18.4274 252.475 18.581C252.351 18.8881 252.3 19.2141 252.248 19.54C252.231 19.6668 252.186 19.6754 252.077 19.62C251.986 19.5647 251.885 19.5003 251.794 19.445C251.776 19.4267 251.758 19.4265 251.721 19.4261C251.549 19.4154 251.386 19.4138 251.222 19.3941C251.122 19.3841 251.022 19.3378 250.922 19.2915C250.64 19.189 250.448 18.9786 250.282 18.7231C250.153 18.5224 250.096 18.2861 250.103 18.0413C250.102 17.8962 250.155 17.7516 250.171 17.6067C250.188 17.4799 250.232 17.3625 250.313 17.2635C250.385 17.1735 250.402 17.083 250.437 16.9745C250.473 16.866 250.453 16.757 250.443 16.6572C250.432 16.4667 250.34 16.3025 250.194 16.1742C250.112 16.1099 250.02 16.0365 249.938 15.9722C249.911 15.9448 249.892 15.9265 249.892 15.8902C249.891 15.8358 249.882 15.7903 249.89 15.7451C249.933 15.4825 249.868 15.2552 249.748 15.0273C249.692 14.918 249.619 14.8266 249.536 14.7261C249.426 14.598 249.289 14.5333 249.135 14.4864C249.062 14.4676 249.062 14.4676 249.07 14.3861C249.087 14.2774 249.105 14.1688 249.103 14.0599C249.101 13.8241 248.999 13.6146 248.835 13.4498C248.78 13.3949 248.707 13.3579 248.634 13.3209C248.406 13.219 248.17 13.1442 247.907 13.2051C247.735 13.2488 247.582 13.3108 247.447 13.4274C247.375 13.4811 247.33 13.4716 247.275 13.4167C247.192 13.298 247.109 13.1793 247.09 13.034C247.098 13.0069 247.098 12.9706 247.152 12.953ZM251.95 18.6848C251.977 18.6397 252.039 18.5587 252.084 18.4775C252.2 18.27 252.216 18.0344 252.159 17.7981C252.131 17.68 252.084 17.5616 251.993 17.4882C251.801 17.3141 251.591 17.2304 251.337 17.228C251.111 17.2349 250.912 17.3055 250.741 17.4399C250.489 17.6551 250.374 17.9351 250.395 18.2618C250.396 18.3343 250.415 18.407 250.452 18.4799C250.572 18.7078 250.755 18.8728 251 18.9386C251.337 19.0416 251.644 18.9539 251.95 18.6848Z" fill="#F41795"/>
<path d="M270.617 8.46875V17H269.152V9.64062H265.361V17H263.896V8.46875H270.617ZM271.977 13.9004V13.7656C271.977 13.3086 272.043 12.8848 272.176 12.4941C272.309 12.0996 272.5 11.7578 272.75 11.4688C273.004 11.1758 273.312 10.9492 273.676 10.7891C274.043 10.625 274.457 10.543 274.918 10.543C275.383 10.543 275.797 10.625 276.16 10.7891C276.527 10.9492 276.838 11.1758 277.092 11.4688C277.346 11.7578 277.539 12.0996 277.672 12.4941C277.805 12.8848 277.871 13.3086 277.871 13.7656V13.9004C277.871 14.3574 277.805 14.7812 277.672 15.1719C277.539 15.5625 277.346 15.9043 277.092 16.1973C276.838 16.4863 276.529 16.7129 276.166 16.877C275.803 17.0371 275.391 17.1172 274.93 17.1172C274.465 17.1172 274.049 17.0371 273.682 16.877C273.318 16.7129 273.01 16.4863 272.756 16.1973C272.502 15.9043 272.309 15.5625 272.176 15.1719C272.043 14.7812 271.977 14.3574 271.977 13.9004ZM273.389 13.7656V13.9004C273.389 14.1855 273.418 14.4551 273.477 14.709C273.535 14.9629 273.627 15.1855 273.752 15.377C273.877 15.5684 274.037 15.7188 274.232 15.8281C274.428 15.9375 274.66 15.9922 274.93 15.9922C275.191 15.9922 275.418 15.9375 275.609 15.8281C275.805 15.7188 275.965 15.5684 276.09 15.377C276.215 15.1855 276.307 14.9629 276.365 14.709C276.428 14.4551 276.459 14.1855 276.459 13.9004V13.7656C276.459 13.4844 276.428 13.2188 276.365 12.9688C276.307 12.7148 276.213 12.4902 276.084 12.2949C275.959 12.0996 275.799 11.9473 275.604 11.8379C275.412 11.7246 275.184 11.668 274.918 11.668C274.652 11.668 274.422 11.7246 274.227 11.8379C274.035 11.9473 273.877 12.0996 273.752 12.2949C273.627 12.4902 273.535 12.7148 273.477 12.9688C273.418 13.2188 273.389 13.4844 273.389 13.7656ZM280.578 10.6602V17H279.166V10.6602H280.578ZM284.715 10.6602L281.861 14.4746H280.25L280.062 13.1973H281.24L282.951 10.6602H284.715ZM283.062 17L281.152 14.2344L282.266 13.4316L284.92 17H283.062ZM287.527 16.3086L289.25 10.6602H290.762L288.219 17.9668C288.16 18.123 288.084 18.293 287.99 18.4766C287.896 18.6602 287.773 18.834 287.621 18.998C287.473 19.166 287.287 19.3008 287.064 19.4023C286.842 19.5078 286.572 19.5605 286.256 19.5605C286.131 19.5605 286.01 19.5488 285.893 19.5254C285.779 19.5059 285.672 19.4844 285.57 19.4609L285.564 18.3828C285.604 18.3867 285.65 18.3906 285.705 18.3945C285.764 18.3984 285.811 18.4004 285.846 18.4004C286.08 18.4004 286.275 18.3711 286.432 18.3125C286.588 18.2578 286.715 18.168 286.812 18.043C286.914 17.918 287 17.75 287.07 17.5391L287.527 16.3086ZM286.555 10.6602L288.061 15.4062L288.312 16.8945L287.334 17.1465L285.031 10.6602H286.555ZM295.824 10.6602V11.7852H292.695V10.6602H295.824ZM293.029 10.6602V17H291.617V10.6602H293.029ZM296.932 10.6602V17H295.514V10.6602H296.932ZM302 15.7285V12.7051C302 12.4785 301.959 12.2832 301.877 12.1191C301.795 11.9551 301.67 11.8281 301.502 11.7383C301.338 11.6484 301.131 11.6035 300.881 11.6035C300.65 11.6035 300.451 11.6426 300.283 11.7207C300.115 11.7988 299.984 11.9043 299.891 12.0371C299.797 12.1699 299.75 12.3203 299.75 12.4883H298.344C298.344 12.2383 298.404 11.9961 298.525 11.7617C298.646 11.5273 298.822 11.3184 299.053 11.1348C299.283 10.9512 299.559 10.8066 299.879 10.7012C300.199 10.5957 300.559 10.543 300.957 10.543C301.434 10.543 301.855 10.623 302.223 10.7832C302.594 10.9434 302.885 11.1855 303.096 11.5098C303.311 11.8301 303.418 12.2324 303.418 12.7168V15.5352C303.418 15.8242 303.438 16.084 303.477 16.3145C303.52 16.541 303.58 16.7383 303.658 16.9062V17H302.211C302.145 16.8477 302.092 16.6543 302.053 16.4199C302.018 16.1816 302 15.9512 302 15.7285ZM302.205 13.1445L302.217 14.0176H301.203C300.941 14.0176 300.711 14.043 300.512 14.0938C300.312 14.1406 300.146 14.2109 300.014 14.3047C299.881 14.3984 299.781 14.5117 299.715 14.6445C299.648 14.7773 299.615 14.9277 299.615 15.0957C299.615 15.2637 299.654 15.418 299.732 15.5586C299.811 15.6953 299.924 15.8027 300.072 15.8809C300.225 15.959 300.408 15.998 300.623 15.998C300.912 15.998 301.164 15.9395 301.379 15.8223C301.598 15.7012 301.77 15.5547 301.895 15.3828C302.02 15.207 302.086 15.041 302.094 14.8848L302.551 15.5117C302.504 15.6719 302.424 15.8438 302.311 16.0273C302.197 16.2109 302.049 16.3867 301.865 16.5547C301.686 16.7188 301.469 16.8535 301.215 16.959C300.965 17.0645 300.676 17.1172 300.348 17.1172C299.934 17.1172 299.564 17.0352 299.24 16.8711C298.916 16.7031 298.662 16.4785 298.479 16.1973C298.295 15.9121 298.203 15.5898 298.203 15.2305C298.203 14.8945 298.266 14.5977 298.391 14.3398C298.52 14.0781 298.707 13.8594 298.953 13.6836C299.203 13.5078 299.508 13.375 299.867 13.2852C300.227 13.1914 300.637 13.1445 301.098 13.1445H302.205ZM306.354 14.9375L308.844 10.6602H310.256V17H308.844V12.7168L306.354 17H304.941V10.6602H306.354V14.9375ZM308.469 8.22266H309.518C309.518 8.54688 309.439 8.83398 309.283 9.08398C309.131 9.33008 308.912 9.52344 308.627 9.66406C308.346 9.80469 308.01 9.875 307.619 9.875C307.029 9.875 306.562 9.72266 306.219 9.41797C305.879 9.10938 305.709 8.71094 305.709 8.22266H306.758C306.758 8.44141 306.822 8.63477 306.951 8.80273C307.084 8.9668 307.307 9.04883 307.619 9.04883C307.928 9.04883 308.146 8.9668 308.275 8.80273C308.404 8.63477 308.469 8.44141 308.469 8.22266ZM317.328 15.9922C317.559 15.9922 317.766 15.9473 317.949 15.8574C318.137 15.7637 318.287 15.6348 318.4 15.4707C318.518 15.3066 318.582 15.1172 318.594 14.9023H319.924C319.916 15.3125 319.795 15.6855 319.561 16.0215C319.326 16.3574 319.016 16.625 318.629 16.8242C318.242 17.0195 317.814 17.1172 317.346 17.1172C316.861 17.1172 316.439 17.0352 316.08 16.8711C315.721 16.7031 315.422 16.4727 315.184 16.1797C314.945 15.8867 314.766 15.5488 314.645 15.166C314.527 14.7832 314.469 14.373 314.469 13.9355V13.7305C314.469 13.293 314.527 12.8828 314.645 12.5C314.766 12.1133 314.945 11.7734 315.184 11.4805C315.422 11.1875 315.721 10.959 316.08 10.7949C316.439 10.627 316.859 10.543 317.34 10.543C317.848 10.543 318.293 10.6445 318.676 10.8477C319.059 11.0469 319.359 11.3262 319.578 11.6855C319.801 12.041 319.916 12.4551 319.924 12.9277H318.594C318.582 12.6934 318.523 12.4824 318.418 12.2949C318.316 12.1035 318.172 11.9512 317.984 11.8379C317.801 11.7246 317.58 11.668 317.322 11.668C317.037 11.668 316.801 11.7266 316.613 11.8438C316.426 11.957 316.279 12.1133 316.174 12.3125C316.068 12.5078 315.992 12.7285 315.945 12.9746C315.902 13.2168 315.881 13.4688 315.881 13.7305V13.9355C315.881 14.1973 315.902 14.4512 315.945 14.6973C315.988 14.9434 316.062 15.1641 316.168 15.3594C316.277 15.5508 316.426 15.7051 316.613 15.8223C316.801 15.9355 317.039 15.9922 317.328 15.9922ZM322.531 10.6602V17H321.119V10.6602H322.531ZM326.668 10.6602L323.814 14.4746H322.203L322.016 13.1973H323.193L324.904 10.6602H326.668ZM325.016 17L323.105 14.2344L324.219 13.4316L326.873 17H325.016ZM329.1 14.9375L331.59 10.6602H333.002V17H331.59V12.7168L329.1 17H327.688V10.6602H329.1V14.9375ZM338.826 13.3086V14.4219H335.545V13.3086H338.826ZM335.955 10.6602V17H334.543V10.6602H335.955ZM339.846 10.6602V17H338.434V10.6602H339.846ZM342.4 12.6758H344.27C344.816 12.6758 345.281 12.7676 345.664 12.9512C346.047 13.1348 346.338 13.3906 346.537 13.7188C346.74 14.043 346.842 14.4141 346.842 14.832C346.842 15.1406 346.785 15.4277 346.672 15.6934C346.559 15.9551 346.391 16.1836 346.168 16.3789C345.949 16.5742 345.68 16.7266 345.359 16.8359C345.043 16.9453 344.68 17 344.27 17H341.463V10.6602H342.881V15.8809H344.27C344.551 15.8809 344.775 15.832 344.943 15.7344C345.111 15.6367 345.232 15.5098 345.307 15.3535C345.385 15.1973 345.424 15.0312 345.424 14.8555C345.424 14.6758 345.385 14.5059 345.307 14.3457C345.232 14.1855 345.111 14.0547 344.943 13.9531C344.775 13.8516 344.551 13.8008 344.27 13.8008H342.4V12.6758ZM349.338 10.6602V17H347.926V10.6602H349.338ZM356.586 15.9922C356.816 15.9922 357.023 15.9473 357.207 15.8574C357.395 15.7637 357.545 15.6348 357.658 15.4707C357.775 15.3066 357.84 15.1172 357.852 14.9023H359.182C359.174 15.3125 359.053 15.6855 358.818 16.0215C358.584 16.3574 358.273 16.625 357.887 16.8242C357.5 17.0195 357.072 17.1172 356.604 17.1172C356.119 17.1172 355.697 17.0352 355.338 16.8711C354.979 16.7031 354.68 16.4727 354.441 16.1797C354.203 15.8867 354.023 15.5488 353.902 15.166C353.785 14.7832 353.727 14.373 353.727 13.9355V13.7305C353.727 13.293 353.785 12.8828 353.902 12.5C354.023 12.1133 354.203 11.7734 354.441 11.4805C354.68 11.1875 354.979 10.959 355.338 10.7949C355.697 10.627 356.117 10.543 356.598 10.543C357.105 10.543 357.551 10.6445 357.934 10.8477C358.316 11.0469 358.617 11.3262 358.836 11.6855C359.059 12.041 359.174 12.4551 359.182 12.9277H357.852C357.84 12.6934 357.781 12.4824 357.676 12.2949C357.574 12.1035 357.43 11.9512 357.242 11.8379C357.059 11.7246 356.838 11.668 356.58 11.668C356.295 11.668 356.059 11.7266 355.871 11.8438C355.684 11.957 355.537 12.1133 355.432 12.3125C355.326 12.5078 355.25 12.7285 355.203 12.9746C355.16 13.2168 355.139 13.4688 355.139 13.7305V13.9355C355.139 14.1973 355.16 14.4512 355.203 14.6973C355.246 14.9434 355.32 15.1641 355.426 15.3594C355.535 15.5508 355.684 15.7051 355.871 15.8223C356.059 15.9355 356.297 15.9922 356.586 15.9922ZM359.996 13.9004V13.7656C359.996 13.3086 360.062 12.8848 360.195 12.4941C360.328 12.0996 360.52 11.7578 360.77 11.4688C361.023 11.1758 361.332 10.9492 361.695 10.7891C362.062 10.625 362.477 10.543 362.938 10.543C363.402 10.543 363.816 10.625 364.18 10.7891C364.547 10.9492 364.857 11.1758 365.111 11.4688C365.365 11.7578 365.559 12.0996 365.691 12.4941C365.824 12.8848 365.891 13.3086 365.891 13.7656V13.9004C365.891 14.3574 365.824 14.7812 365.691 15.1719C365.559 15.5625 365.365 15.9043 365.111 16.1973C364.857 16.4863 364.549 16.7129 364.186 16.877C363.822 17.0371 363.41 17.1172 362.949 17.1172C362.484 17.1172 362.068 17.0371 361.701 16.877C361.338 16.7129 361.029 16.4863 360.775 16.1973C360.521 15.9043 360.328 15.5625 360.195 15.1719C360.062 14.7812 359.996 14.3574 359.996 13.9004ZM361.408 13.7656V13.9004C361.408 14.1855 361.438 14.4551 361.496 14.709C361.555 14.9629 361.646 15.1855 361.771 15.377C361.896 15.5684 362.057 15.7188 362.252 15.8281C362.447 15.9375 362.68 15.9922 362.949 15.9922C363.211 15.9922 363.438 15.9375 363.629 15.8281C363.824 15.7188 363.984 15.5684 364.109 15.377C364.234 15.1855 364.326 14.9629 364.385 14.709C364.447 14.4551 364.479 14.1855 364.479 13.9004V13.7656C364.479 13.4844 364.447 13.2188 364.385 12.9688C364.326 12.7148 364.232 12.4902 364.104 12.2949C363.979 12.0996 363.818 11.9473 363.623 11.8379C363.432 11.7246 363.203 11.668 362.938 11.668C362.672 11.668 362.441 11.7246 362.246 11.8379C362.055 11.9473 361.896 12.0996 361.771 12.2949C361.646 12.4902 361.555 12.7148 361.496 12.9688C361.438 13.2188 361.408 13.4844 361.408 13.7656ZM372.652 15.9922C372.883 15.9922 373.09 15.9473 373.273 15.8574C373.461 15.7637 373.611 15.6348 373.725 15.4707C373.842 15.3066 373.906 15.1172 373.918 14.9023H375.248C375.24 15.3125 375.119 15.6855 374.885 16.0215C374.65 16.3574 374.34 16.625 373.953 16.8242C373.566 17.0195 373.139 17.1172 372.67 17.1172C372.186 17.1172 371.764 17.0352 371.404 16.8711C371.045 16.7031 370.746 16.4727 370.508 16.1797C370.27 15.8867 370.09 15.5488 369.969 15.166C369.852 14.7832 369.793 14.373 369.793 13.9355V13.7305C369.793 13.293 369.852 12.8828 369.969 12.5C370.09 12.1133 370.27 11.7734 370.508 11.4805C370.746 11.1875 371.045 10.959 371.404 10.7949C371.764 10.627 372.184 10.543 372.664 10.543C373.172 10.543 373.617 10.6445 374 10.8477C374.383 11.0469 374.684 11.3262 374.902 11.6855C375.125 12.041 375.24 12.4551 375.248 12.9277H373.918C373.906 12.6934 373.848 12.4824 373.742 12.2949C373.641 12.1035 373.496 11.9512 373.309 11.8379C373.125 11.7246 372.904 11.668 372.646 11.668C372.361 11.668 372.125 11.7266 371.938 11.8438C371.75 11.957 371.604 12.1133 371.498 12.3125C371.393 12.5078 371.316 12.7285 371.27 12.9746C371.227 13.2168 371.205 13.4688 371.205 13.7305V13.9355C371.205 14.1973 371.227 14.4512 371.27 14.6973C371.312 14.9434 371.387 15.1641 371.492 15.3594C371.602 15.5508 371.75 15.7051 371.938 15.8223C372.125 15.9355 372.363 15.9922 372.652 15.9922ZM377.855 10.6602V17H376.443V10.6602H377.855ZM381.992 10.6602L379.139 14.4746H377.527L377.34 13.1973H378.518L380.229 10.6602H381.992ZM380.34 17L378.43 14.2344L379.543 13.4316L382.197 17H380.34ZM384.424 14.9375L386.914 10.6602H388.326V17H386.914V12.7168L384.424 17H383.012V10.6602H384.424V14.9375ZM390.969 10.6602H392.381L392.311 12.8926C392.291 13.541 392.217 14.0977 392.088 14.5625C391.959 15.0273 391.791 15.4199 391.584 15.7402C391.377 16.0566 391.143 16.3164 390.881 16.5195C390.623 16.7227 390.352 16.8828 390.066 17H389.65V15.8867L389.85 15.875C390.018 15.6953 390.162 15.5156 390.283 15.3359C390.408 15.1523 390.514 14.9512 390.6 14.7324C390.686 14.5098 390.752 14.25 390.799 13.9531C390.85 13.6562 390.883 13.3027 390.898 12.8926L390.969 10.6602ZM391.344 10.6602H395.363V17H393.957V11.8555H391.344V10.6602ZM389.328 15.875H396.23V18.8867H394.818V17H390.758V18.8867H389.322L389.328 15.875ZM398.727 10.6602V17H397.314V10.6602H398.727ZM402.863 10.6602L400.01 14.4746H398.398L398.211 13.1973H399.389L401.1 10.6602H402.863ZM401.211 17L399.301 14.2344L400.414 13.4316L403.068 17H401.211ZM403.355 13.9004V13.7656C403.355 13.3086 403.422 12.8848 403.555 12.4941C403.688 12.0996 403.879 11.7578 404.129 11.4688C404.383 11.1758 404.691 10.9492 405.055 10.7891C405.422 10.625 405.836 10.543 406.297 10.543C406.762 10.543 407.176 10.625 407.539 10.7891C407.906 10.9492 408.217 11.1758 408.471 11.4688C408.725 11.7578 408.918 12.0996 409.051 12.4941C409.184 12.8848 409.25 13.3086 409.25 13.7656V13.9004C409.25 14.3574 409.184 14.7812 409.051 15.1719C408.918 15.5625 408.725 15.9043 408.471 16.1973C408.217 16.4863 407.908 16.7129 407.545 16.877C407.182 17.0371 406.77 17.1172 406.309 17.1172C405.844 17.1172 405.428 17.0371 405.061 16.877C404.697 16.7129 404.389 16.4863 404.135 16.1973C403.881 15.9043 403.688 15.5625 403.555 15.1719C403.422 14.7812 403.355 14.3574 403.355 13.9004ZM404.768 13.7656V13.9004C404.768 14.1855 404.797 14.4551 404.855 14.709C404.914 14.9629 405.006 15.1855 405.131 15.377C405.256 15.5684 405.416 15.7188 405.611 15.8281C405.807 15.9375 406.039 15.9922 406.309 15.9922C406.57 15.9922 406.797 15.9375 406.988 15.8281C407.184 15.7188 407.344 15.5684 407.469 15.377C407.594 15.1855 407.686 14.9629 407.744 14.709C407.807 14.4551 407.838 14.1855 407.838 13.9004V13.7656C407.838 13.4844 407.807 13.2188 407.744 12.9688C407.686 12.7148 407.592 12.4902 407.463 12.2949C407.338 12.0996 407.178 11.9473 406.982 11.8379C406.791 11.7246 406.562 11.668 406.297 11.668C406.031 11.668 405.801 11.7246 405.605 11.8379C405.414 11.9473 405.256 12.0996 405.131 12.2949C405.006 12.4902 404.914 12.7148 404.855 12.9688C404.797 13.2188 404.768 13.4844 404.768 13.7656ZM411.893 14.9375L414.383 10.6602H415.795V17H414.383V12.7168L411.893 17H410.48V10.6602H411.893V14.9375ZM414.008 8.22266H415.057C415.057 8.54688 414.979 8.83398 414.822 9.08398C414.67 9.33008 414.451 9.52344 414.166 9.66406C413.885 9.80469 413.549 9.875 413.158 9.875C412.568 9.875 412.102 9.72266 411.758 9.41797C411.418 9.10938 411.248 8.71094 411.248 8.22266H412.297C412.297 8.44141 412.361 8.63477 412.49 8.80273C412.623 8.9668 412.846 9.04883 413.158 9.04883C413.467 9.04883 413.686 8.9668 413.814 8.80273C413.943 8.63477 414.008 8.44141 414.008 8.22266ZM421.426 10.6602H422.838L422.768 12.8926C422.748 13.541 422.674 14.0977 422.545 14.5625C422.416 15.0273 422.248 15.4199 422.041 15.7402C421.834 16.0566 421.6 16.3164 421.338 16.5195C421.08 16.7227 420.809 16.8828 420.523 17H420.107V15.8867L420.307 15.875C420.475 15.6953 420.619 15.5156 420.74 15.3359C420.865 15.1523 420.971 14.9512 421.057 14.7324C421.143 14.5098 421.209 14.25 421.256 13.9531C421.307 13.6562 421.34 13.3027 421.355 12.8926L421.426 10.6602ZM421.801 10.6602H425.82V17H424.414V11.8555H421.801V10.6602ZM419.785 15.875H426.688V18.8867H425.275V17H421.215V18.8867H419.779L419.785 15.875ZM427.426 13.9004V13.7656C427.426 13.3086 427.492 12.8848 427.625 12.4941C427.758 12.0996 427.949 11.7578 428.199 11.4688C428.453 11.1758 428.762 10.9492 429.125 10.7891C429.492 10.625 429.906 10.543 430.367 10.543C430.832 10.543 431.246 10.625 431.609 10.7891C431.977 10.9492 432.287 11.1758 432.541 11.4688C432.795 11.7578 432.988 12.0996 433.121 12.4941C433.254 12.8848 433.32 13.3086 433.32 13.7656V13.9004C433.32 14.3574 433.254 14.7812 433.121 15.1719C432.988 15.5625 432.795 15.9043 432.541 16.1973C432.287 16.4863 431.979 16.7129 431.615 16.877C431.252 17.0371 430.84 17.1172 430.379 17.1172C429.914 17.1172 429.498 17.0371 429.131 16.877C428.768 16.7129 428.459 16.4863 428.205 16.1973C427.951 15.9043 427.758 15.5625 427.625 15.1719C427.492 14.7812 427.426 14.3574 427.426 13.9004ZM428.838 13.7656V13.9004C428.838 14.1855 428.867 14.4551 428.926 14.709C428.984 14.9629 429.076 15.1855 429.201 15.377C429.326 15.5684 429.486 15.7188 429.682 15.8281C429.877 15.9375 430.109 15.9922 430.379 15.9922C430.641 15.9922 430.867 15.9375 431.059 15.8281C431.254 15.7188 431.414 15.5684 431.539 15.377C431.664 15.1855 431.756 14.9629 431.814 14.709C431.877 14.4551 431.908 14.1855 431.908 13.9004V13.7656C431.908 13.4844 431.877 13.2188 431.814 12.9688C431.756 12.7148 431.662 12.4902 431.533 12.2949C431.408 12.0996 431.248 11.9473 431.053 11.8379C430.861 11.7246 430.633 11.668 430.367 11.668C430.102 11.668 429.871 11.7246 429.676 11.8379C429.484 11.9473 429.326 12.0996 429.201 12.2949C429.076 12.4902 428.984 12.7148 428.926 12.9688C428.867 13.2188 428.838 13.4844 428.838 13.7656Z" fill="white"/>
<path d="M439.568 12.793V13.918H436.469V12.793H439.568ZM446.6 13.959V15.084H440.447L440.4 14.2344L444.08 8.46875H445.211L443.986 10.5664L441.871 13.959H446.6ZM445.533 8.46875V17H444.121V8.46875H445.533ZM453.104 12.0195V13.4141C453.104 14.082 453.037 14.6523 452.904 15.125C452.775 15.5938 452.588 15.9746 452.342 16.2676C452.096 16.5605 451.801 16.7754 451.457 16.9121C451.117 17.0488 450.736 17.1172 450.314 17.1172C449.979 17.1172 449.666 17.0742 449.377 16.9883C449.092 16.9023 448.834 16.7676 448.604 16.584C448.373 16.4004 448.176 16.1641 448.012 15.875C447.852 15.582 447.727 15.2324 447.637 14.8262C447.551 14.4199 447.508 13.9492 447.508 13.4141V12.0195C447.508 11.3477 447.574 10.7812 447.707 10.3203C447.84 9.85547 448.029 9.47852 448.275 9.18945C448.521 8.89648 448.814 8.68359 449.154 8.55078C449.498 8.41797 449.881 8.35156 450.303 8.35156C450.643 8.35156 450.955 8.39453 451.24 8.48047C451.529 8.5625 451.787 8.69336 452.014 8.87305C452.244 9.05273 452.439 9.28711 452.6 9.57617C452.764 9.86133 452.889 10.207 452.975 10.6133C453.061 11.0156 453.104 11.4844 453.104 12.0195ZM451.691 13.6133V11.8086C451.691 11.4688 451.672 11.1699 451.633 10.9121C451.594 10.6504 451.535 10.4297 451.457 10.25C451.383 10.0664 451.289 9.91797 451.176 9.80469C451.062 9.6875 450.934 9.60352 450.789 9.55273C450.645 9.49805 450.482 9.4707 450.303 9.4707C450.084 9.4707 449.889 9.51367 449.717 9.59961C449.545 9.68164 449.4 9.81445 449.283 9.99805C449.166 10.1816 449.076 10.4238 449.014 10.7246C448.955 11.0215 448.926 11.3828 448.926 11.8086V13.6133C448.926 13.957 448.945 14.2598 448.984 14.5215C449.023 14.7832 449.082 15.0078 449.16 15.1953C449.238 15.3789 449.332 15.5312 449.441 15.6523C449.555 15.7695 449.684 15.8555 449.828 15.9102C449.977 15.9648 450.139 15.9922 450.314 15.9922C450.537 15.9922 450.734 15.9492 450.906 15.8633C451.078 15.7773 451.223 15.6406 451.34 15.4531C451.457 15.2617 451.545 15.0137 451.604 14.709C451.662 14.4043 451.691 14.0391 451.691 13.6133ZM454.305 10.5605V10.1094C454.305 9.78516 454.375 9.49023 454.516 9.22461C454.656 8.95898 454.861 8.74609 455.131 8.58594C455.4 8.42578 455.725 8.3457 456.104 8.3457C456.494 8.3457 456.822 8.42578 457.088 8.58594C457.357 8.74609 457.562 8.95898 457.703 9.22461C457.844 9.49023 457.914 9.78516 457.914 10.1094V10.5605C457.914 10.877 457.844 11.168 457.703 11.4336C457.566 11.6992 457.363 11.9121 457.094 12.0723C456.828 12.2324 456.502 12.3125 456.115 12.3125C455.732 12.3125 455.404 12.2324 455.131 12.0723C454.861 11.9121 454.656 11.6992 454.516 11.4336C454.375 11.168 454.305 10.877 454.305 10.5605ZM455.283 10.1094V10.5605C455.283 10.7168 455.312 10.8652 455.371 11.0059C455.434 11.1465 455.527 11.2598 455.652 11.3457C455.777 11.4316 455.932 11.4746 456.115 11.4746C456.303 11.4746 456.455 11.4316 456.572 11.3457C456.693 11.2598 456.783 11.1465 456.842 11.0059C456.9 10.8652 456.93 10.7168 456.93 10.5605V10.1094C456.93 9.94922 456.898 9.79883 456.836 9.6582C456.777 9.51367 456.688 9.39844 456.566 9.3125C456.445 9.22656 456.291 9.18359 456.104 9.18359C455.924 9.18359 455.771 9.22656 455.646 9.3125C455.525 9.39844 455.434 9.51367 455.371 9.6582C455.312 9.79883 455.283 9.94922 455.283 10.1094ZM458.418 15.3652V14.9082C458.418 14.5879 458.488 14.2949 458.629 14.0293C458.773 13.7637 458.98 13.5508 459.25 13.3906C459.52 13.2305 459.844 13.1504 460.223 13.1504C460.613 13.1504 460.941 13.2305 461.207 13.3906C461.477 13.5508 461.68 13.7637 461.816 14.0293C461.957 14.2949 462.027 14.5879 462.027 14.9082V15.3652C462.027 15.6855 461.957 15.9785 461.816 16.2441C461.68 16.5098 461.479 16.7227 461.213 16.8828C460.947 17.043 460.621 17.123 460.234 17.123C459.852 17.123 459.523 17.043 459.25 16.8828C458.98 16.7227 458.773 16.5098 458.629 16.2441C458.488 15.9785 458.418 15.6855 458.418 15.3652ZM459.402 14.9082V15.3652C459.402 15.5215 459.434 15.6699 459.496 15.8105C459.562 15.9512 459.658 16.0664 459.783 16.1562C459.908 16.2422 460.059 16.2852 460.234 16.2852C460.434 16.2852 460.594 16.2422 460.715 16.1562C460.836 16.0664 460.922 15.9531 460.973 15.8164C461.027 15.6758 461.055 15.5254 461.055 15.3652V14.9082C461.055 14.748 461.023 14.5977 460.961 14.457C460.902 14.3164 460.811 14.2031 460.686 14.1172C460.564 14.0312 460.41 13.9883 460.223 13.9883C460.039 13.9883 459.887 14.0312 459.766 14.1172C459.645 14.2031 459.553 14.3164 459.49 14.457C459.432 14.5977 459.402 14.748 459.402 14.9082ZM460.574 9.6875L456.408 16.3555L455.688 15.9395L459.854 9.27148L460.574 9.6875ZM464.91 8.46875L464.77 14.4863H463.562L463.416 8.46875H464.91ZM463.375 16.332C463.375 16.1172 463.445 15.9375 463.586 15.793C463.73 15.6445 463.93 15.5703 464.184 15.5703C464.434 15.5703 464.631 15.6445 464.775 15.793C464.92 15.9375 464.992 16.1172 464.992 16.332C464.992 16.5391 464.92 16.7168 464.775 16.8652C464.631 17.0098 464.434 17.082 464.184 17.082C463.93 17.082 463.73 17.0098 463.586 16.8652C463.445 16.7168 463.375 16.5391 463.375 16.332Z" fill="url(#paint2_linear_26165_26787)"/>
<defs>
<linearGradient id="paint0_linear_26165_26787" x1="235" y1="0" x2="235" y2="28" gradientUnits="userSpaceOnUse">
<stop stop-color="#07051A"/>
<stop offset="1" stop-color="#020B34"/>
</linearGradient>
<linearGradient id="paint1_linear_26165_26787" x1="201" y1="13" x2="231.279" y2="14.5524" gradientUnits="userSpaceOnUse">
<stop stop-color="#F7FF01"/>
<stop offset="1" stop-color="#F89251"/>
</linearGradient>
<linearGradient id="paint2_linear_26165_26787" x1="436" y1="13" x2="466.279" y2="14.5524" gradientUnits="userSpaceOnUse">
<stop stop-color="#F7FF01"/>
<stop offset="1" stop-color="#F89251"/>
</linearGradient>
</defs>
</svg>
