<svg
  width="456"
  height="28"
  viewBox="0 0 456 28"
  fill="none"
  xmlns="http://www.w3.org/2000/svg"
>
  <g clip-path="url(#clip0_26007_26957)">
    <rect width="456" height="28" fill="url(#paint0_linear_26007_26957)" />
    <path
      d="M18.1523 12.953C18.0229 12.6979 17.8664 12.4515 17.6831 12.2503C17.5547 12.1039 17.4174 11.9666 17.2982 11.8294C17.0416 11.5549 16.7403 11.3435 16.4301 11.141C15.7182 10.6626 14.9268 10.4102 14.0735 10.3113C13.5562 10.261 13.0395 10.2832 12.5329 10.4053C12.4334 10.4315 12.343 10.4669 12.2344 10.484C12.3244 10.4123 12.4144 10.3407 12.4954 10.278C12.8106 10.0543 13.1445 9.88522 13.506 9.76175C14.4638 9.40824 15.433 9.29968 16.432 9.45438C17.2221 9.57986 17.9594 9.86806 18.6345 10.2917C18.7166 10.3378 18.7896 10.3929 18.8535 10.4389C18.9083 10.4757 18.9449 10.5123 19.0175 10.513C19.0356 10.5132 19.0539 10.5315 19.0631 10.5406C19.1819 10.6415 19.3189 10.7426 19.4469 10.8526C19.4559 10.8437 19.4739 10.8257 19.4829 10.8167C19.5096 10.7716 19.5457 10.7538 19.6093 10.7635C19.6637 10.764 19.7002 10.7825 19.7368 10.8192C19.7917 10.8741 19.8558 10.9382 19.9108 10.9931C19.9657 11.0481 20.0025 11.1028 20.0213 11.1755C20.04 11.2301 20.0226 11.3025 20.0593 11.3573C20.0685 11.3664 20.0505 11.3844 20.0416 11.3934C20.1053 11.4212 20.1241 11.4939 20.0704 11.5659C20.1426 11.5304 20.1431 11.5848 20.1798 11.6214C20.2257 11.6853 20.135 11.6844 20.1264 11.7297C20.1445 11.7299 20.1535 11.7209 20.1717 11.7211C20.2078 11.7033 20.2259 11.7035 20.2535 11.7491C20.2812 11.7947 20.2724 11.8218 20.2365 11.8577C20.2275 11.8667 20.2187 11.8938 20.2097 11.9028L20.2188 11.9119C20.2278 11.903 20.246 11.9031 20.2549 11.8942C20.2909 11.8582 20.3273 11.8767 20.3458 11.9132C20.3734 11.9588 20.3736 11.9769 20.3285 12.0037C20.3196 12.0127 20.3106 12.0216 20.3016 12.0306C20.2926 12.0396 20.2928 12.0577 20.2928 12.0577C20.3019 12.0669 20.3109 12.0579 20.3201 12.0671C20.3201 12.0671 20.3291 12.0581 20.3472 12.0583C20.4374 12.0047 20.4374 12.0047 20.4928 12.1141C20.4659 12.141 20.4298 12.1588 20.4028 12.1858L20.412 12.1949C20.4481 12.1771 20.4842 12.1593 20.5203 12.1415C20.5388 12.178 20.5662 12.2055 20.5756 12.2328C20.5757 12.2509 20.5307 12.2777 20.5037 12.3046C20.5037 12.3046 20.5129 12.3138 20.5039 12.3227C20.522 12.3229 20.54 12.305 20.5581 12.3051C20.5853 12.2963 20.6032 12.2784 20.6212 12.2604C20.6486 12.2879 20.6671 12.3243 20.6946 12.3518C20.6677 12.3787 20.6316 12.3965 20.6046 12.4235C20.6321 12.4509 20.6321 12.4509 20.7492 12.3704C20.7767 12.3979 20.7951 12.4344 20.8226 12.4618C20.7957 12.4888 20.7687 12.5157 20.7326 12.5335C20.7418 12.5427 20.7418 12.5427 20.7509 12.5518C20.796 12.525 20.823 12.4981 20.868 12.4713C20.8955 12.4988 20.9048 12.5261 20.9323 12.5536C20.9054 12.5805 20.8874 12.5985 20.8694 12.6164C20.8694 12.6164 20.8786 12.6256 20.8696 12.6346C20.8878 12.6347 20.9059 12.6349 20.9149 12.6259C20.9961 12.5814 20.9961 12.5814 21.0603 12.6636C21.0513 12.6726 21.0334 12.6906 21.0336 12.7087C21.0336 12.7087 21.0336 12.7087 21.0427 12.7178C21.0607 12.6999 21.0788 12.7001 21.0968 12.6821C21.1419 12.6553 21.2056 12.6831 21.2151 12.7286C21.2153 12.7467 21.2063 12.7557 21.1975 12.7828C21.1975 12.7828 21.1975 12.7828 21.2066 12.792C21.2516 12.7471 21.288 12.7655 21.3156 12.8112C21.334 12.8295 21.3704 12.848 21.3977 12.8573C21.425 12.8666 21.4523 12.8759 21.4886 12.8763C21.5611 12.877 21.6249 12.9048 21.6618 12.9777C21.671 12.9869 21.6801 12.996 21.6893 13.0052C21.7347 13.0147 21.7441 13.042 21.7354 13.0872C21.8173 13.1152 21.8724 13.1883 21.8548 13.2425C21.9001 13.2339 21.9365 13.2524 21.9189 13.3066L21.928 13.3158C21.9645 13.3343 21.9828 13.3526 21.956 13.3977C22.0015 13.4072 22.0379 13.4257 22.0203 13.4799C22.0839 13.4896 22.0932 13.5169 22.0756 13.5711C22.121 13.5806 22.1483 13.5899 22.1488 13.6444C22.1488 13.6444 22.149 13.6625 22.158 13.6535C22.2034 13.663 22.2038 13.6993 22.2041 13.7356C22.2587 13.7542 22.277 13.7725 22.2594 13.8268C22.323 13.8365 22.3413 13.8548 22.3237 13.909C22.3783 13.9277 22.4429 14.0462 22.4342 14.0914C22.4434 14.1006 22.4615 14.1008 22.4615 14.1008C22.4892 14.1464 22.517 14.2101 22.5446 14.2557C22.5631 14.2922 22.5906 14.3196 22.6091 14.3561C22.6184 14.3834 22.6277 14.4107 22.6461 14.429C22.6552 14.4381 22.6735 14.4564 22.6829 14.4837C22.7015 14.5383 22.7202 14.5929 22.7478 14.6385C22.7663 14.675 22.7939 14.7206 22.8124 14.757C22.8401 14.8026 22.8496 14.8481 22.8772 14.8937C22.8959 14.9483 22.9327 15.003 22.9513 15.0576C22.9978 15.1759 23.0533 15.2853 23.0906 15.3945C23.1188 15.4945 23.1561 15.6036 23.1932 15.6947C23.1934 15.7128 23.2026 15.722 23.2027 15.7401C23.1853 15.8125 23.2131 15.8762 23.2681 15.9312C23.2955 15.9586 23.314 15.9951 23.3325 16.0315C23.3601 16.0771 23.3607 16.1316 23.3158 16.1765C23.2888 16.2034 23.2892 16.2397 23.3346 16.2492C23.4165 16.2772 23.4626 16.3592 23.4814 16.432C23.4908 16.4593 23.4548 16.4952 23.4371 16.5313C23.4282 16.5584 23.4193 16.5674 23.4013 16.5853C23.4286 16.5947 23.4378 16.6038 23.465 16.6132C23.5832 16.6415 23.6568 16.751 23.6216 16.8595C23.6217 16.8776 23.6038 16.8956 23.5948 16.9046C23.5407 16.9403 23.5411 16.9766 23.5957 16.9953C23.6503 17.0139 23.6869 17.0506 23.7237 17.1053C23.7513 17.1509 23.7427 17.1962 23.7069 17.2502C23.6622 17.3133 23.6624 17.3314 23.7261 17.3592C23.8265 17.4237 23.8543 17.4874 23.8284 17.6232C23.802 17.7046 23.7756 17.7859 23.7491 17.8673C23.7315 17.9215 23.6863 17.9301 23.6317 17.9115C23.641 17.9388 23.6504 17.9661 23.6597 17.9934C23.6692 18.0388 23.6787 18.0842 23.6609 18.1203C23.5989 18.2739 23.5369 18.4274 23.4749 18.581C23.3509 18.8881 23.2996 19.2141 23.2484 19.54C23.2315 19.6668 23.1862 19.6754 23.0768 19.62C22.9856 19.5647 22.8853 19.5003 22.7941 19.445C22.7757 19.4267 22.7576 19.4265 22.7213 19.4261C22.5489 19.4154 22.3857 19.4138 22.2223 19.3941C22.1224 19.3841 22.0222 19.3378 21.9221 19.2915C21.64 19.189 21.4475 18.9786 21.2818 18.7231C21.153 18.5224 21.0963 18.2861 21.103 18.0413C21.1016 17.8962 21.1546 17.7516 21.1713 17.6067C21.1883 17.4799 21.2325 17.3625 21.3131 17.2635C21.3848 17.1735 21.4021 17.083 21.4373 16.9745C21.4725 16.866 21.4533 16.757 21.4433 16.6572C21.4324 16.4667 21.3402 16.3025 21.1938 16.1742C21.1116 16.1099 21.0202 16.0365 20.938 15.9722C20.9105 15.9448 20.8922 15.9265 20.8919 15.8902C20.8913 15.8358 20.8818 15.7903 20.8905 15.7451C20.9333 15.4825 20.8676 15.2552 20.7475 15.0273C20.6921 14.918 20.6187 14.8266 20.5361 14.7261C20.426 14.598 20.2894 14.5333 20.1348 14.4864C20.0621 14.4676 20.0621 14.4676 20.0703 14.3861C20.0874 14.2774 20.1045 14.1688 20.1035 14.0599C20.1012 13.8241 19.9995 13.6146 19.8346 13.4498C19.7797 13.3949 19.7068 13.3579 19.6339 13.3209C19.4062 13.219 19.1697 13.1442 18.9074 13.2051C18.7355 13.2488 18.5819 13.3108 18.447 13.4274C18.375 13.4811 18.3296 13.4716 18.2746 13.4167C18.1919 13.298 18.1091 13.1793 18.0896 13.034C18.0984 13.0069 18.0981 12.9706 18.1523 12.953ZM22.95 18.6848C22.9767 18.6397 23.0394 18.5587 23.084 18.4775C23.1999 18.27 23.2157 18.0344 23.1591 17.7981C23.1307 17.68 23.0842 17.5616 22.9929 17.4882C22.8008 17.3141 22.5914 17.2304 22.3375 17.228C22.1108 17.2349 21.912 17.3055 21.741 17.4399C21.4892 17.6551 21.374 17.9351 21.3953 18.2618C21.396 18.3343 21.4148 18.407 21.4518 18.4799C21.5719 18.7078 21.7548 18.8728 22.0003 18.9386C22.3368 19.0416 22.6442 18.9539 22.95 18.6848Z"
      fill="#F41795"
    />
    <path
      d="M43.4648 9.46875H44.7773L47.2441 16.0488L49.7051 9.46875H51.0176L47.7598 18H46.7168L43.4648 9.46875ZM42.8672 9.46875H44.1152L44.332 15.1641V18H42.8672V9.46875ZM50.3672 9.46875H51.6211V18H50.1504V15.1641L50.3672 9.46875ZM56.0215 18.1172C55.5527 18.1172 55.1289 18.041 54.75 17.8887C54.375 17.7324 54.0547 17.5156 53.7891 17.2383C53.5273 16.9609 53.3262 16.6348 53.1855 16.2598C53.0449 15.8848 52.9746 15.4805 52.9746 15.0469V14.8125C52.9746 14.3164 53.0469 13.8672 53.1914 13.4648C53.3359 13.0625 53.5371 12.7188 53.7949 12.4336C54.0527 12.1445 54.3574 11.9238 54.709 11.7715C55.0605 11.6191 55.4414 11.543 55.8516 11.543C56.3047 11.543 56.7012 11.6191 57.041 11.7715C57.3809 11.9238 57.6621 12.1387 57.8848 12.416C58.1113 12.6895 58.2793 13.0156 58.3887 13.3945C58.502 13.7734 58.5586 14.1914 58.5586 14.6484V15.252H53.6602V14.2383H57.1641V14.127C57.1562 13.873 57.1055 13.6348 57.0117 13.4121C56.9219 13.1895 56.7832 13.0098 56.5957 12.873C56.4082 12.7363 56.1582 12.668 55.8457 12.668C55.6113 12.668 55.4023 12.7188 55.2188 12.8203C55.0391 12.918 54.8887 13.0605 54.7676 13.248C54.6465 13.4355 54.5527 13.6621 54.4863 13.9277C54.4238 14.1895 54.3926 14.4844 54.3926 14.8125V15.0469C54.3926 15.3242 54.4297 15.582 54.5039 15.8203C54.582 16.0547 54.6953 16.2598 54.8438 16.4355C54.9922 16.6113 55.1719 16.75 55.3828 16.8516C55.5938 16.9492 55.834 16.998 56.1035 16.998C56.4434 16.998 56.7461 16.9297 57.0117 16.793C57.2773 16.6562 57.5078 16.4629 57.7031 16.2129L58.4473 16.9336C58.3105 17.1328 58.1328 17.3242 57.9141 17.5078C57.6953 17.6875 57.4277 17.834 57.1113 17.9473C56.7988 18.0605 56.4355 18.1172 56.0215 18.1172ZM63.9902 14.3086V15.4219H60.709V14.3086H63.9902ZM61.1191 11.6602V18H59.707V11.6602H61.1191ZM65.0098 11.6602V18H63.5977V11.6602H65.0098ZM67.8516 14.9004H69.3164L67.5176 18H66.0586L67.8516 14.9004ZM68.8828 11.6602H71.6016V18H70.1953V12.7734H68.8828C68.6172 12.7734 68.3984 12.8203 68.2266 12.9141C68.0547 13.0039 67.9277 13.123 67.8457 13.2715C67.7637 13.416 67.7227 13.5645 67.7227 13.7168C67.7227 13.8691 67.7598 14.0156 67.834 14.1562C67.9121 14.2969 68.0312 14.4121 68.1914 14.502C68.3555 14.5918 68.5605 14.6367 68.8066 14.6367H70.6699V15.668H68.8066C68.416 15.668 68.0664 15.6191 67.7578 15.5215C67.4492 15.4199 67.1875 15.2812 66.9727 15.1055C66.7578 14.9258 66.5938 14.7168 66.4805 14.4785C66.3672 14.2363 66.3105 13.9727 66.3105 13.6875C66.3105 13.3945 66.3691 13.125 66.4863 12.8789C66.6035 12.6328 66.7715 12.418 66.9902 12.2344C67.2129 12.0508 67.4824 11.9102 67.7988 11.8125C68.1191 11.7109 68.4805 11.6602 68.8828 11.6602ZM74.6309 15.9375L77.1211 11.6602H78.5332V18H77.1211V13.7168L74.6309 18H73.2188V11.6602H74.6309V15.9375ZM76.7461 9.22266H77.7949C77.7949 9.54688 77.7168 9.83398 77.5605 10.084C77.4082 10.3301 77.1895 10.5234 76.9043 10.6641C76.623 10.8047 76.2871 10.875 75.8965 10.875C75.3066 10.875 74.8398 10.7227 74.4961 10.418C74.1562 10.1094 73.9863 9.71094 73.9863 9.22266H75.0352C75.0352 9.44141 75.0996 9.63477 75.2285 9.80273C75.3613 9.9668 75.584 10.0488 75.8965 10.0488C76.2051 10.0488 76.4238 9.9668 76.5527 9.80273C76.6816 9.63477 76.7461 9.44141 76.7461 9.22266ZM85.6055 16.9922C85.8359 16.9922 86.043 16.9473 86.2266 16.8574C86.4141 16.7637 86.5645 16.6348 86.6777 16.4707C86.7949 16.3066 86.8594 16.1172 86.8711 15.9023H88.2012C88.1934 16.3125 88.0723 16.6855 87.8379 17.0215C87.6035 17.3574 87.293 17.625 86.9062 17.8242C86.5195 18.0195 86.0918 18.1172 85.623 18.1172C85.1387 18.1172 84.7168 18.0352 84.3574 17.8711C83.998 17.7031 83.6992 17.4727 83.4609 17.1797C83.2227 16.8867 83.043 16.5488 82.9219 16.166C82.8047 15.7832 82.7461 15.373 82.7461 14.9355V14.7305C82.7461 14.293 82.8047 13.8828 82.9219 13.5C83.043 13.1133 83.2227 12.7734 83.4609 12.4805C83.6992 12.1875 83.998 11.959 84.3574 11.7949C84.7168 11.627 85.1367 11.543 85.6172 11.543C86.125 11.543 86.5703 11.6445 86.9531 11.8477C87.3359 12.0469 87.6367 12.3262 87.8555 12.6855C88.0781 13.041 88.1934 13.4551 88.2012 13.9277H86.8711C86.8594 13.6934 86.8008 13.4824 86.6953 13.2949C86.5938 13.1035 86.4492 12.9512 86.2617 12.8379C86.0781 12.7246 85.8574 12.668 85.5996 12.668C85.3145 12.668 85.0781 12.7266 84.8906 12.8438C84.7031 12.957 84.5566 13.1133 84.4512 13.3125C84.3457 13.5078 84.2695 13.7285 84.2227 13.9746C84.1797 14.2168 84.1582 14.4688 84.1582 14.7305V14.9355C84.1582 15.1973 84.1797 15.4512 84.2227 15.6973C84.2656 15.9434 84.3398 16.1641 84.4453 16.3594C84.5547 16.5508 84.7031 16.7051 84.8906 16.8223C85.0781 16.9355 85.3164 16.9922 85.6055 16.9922ZM90.8086 11.6602V18H89.3965V11.6602H90.8086ZM94.9453 11.6602L92.0918 15.4746H90.4805L90.293 14.1973H91.4707L93.1816 11.6602H94.9453ZM93.293 18L91.3828 15.2344L92.4961 14.4316L95.1504 18H93.293ZM97.377 15.9375L99.8672 11.6602H101.279V18H99.8672V13.7168L97.377 18H95.9648V11.6602H97.377V15.9375ZM107.104 14.3086V15.4219H103.822V14.3086H107.104ZM104.232 11.6602V18H102.82V11.6602H104.232ZM108.123 11.6602V18H106.711V11.6602H108.123ZM110.678 13.6758H112.547C113.094 13.6758 113.559 13.7676 113.941 13.9512C114.324 14.1348 114.615 14.3906 114.814 14.7188C115.018 15.043 115.119 15.4141 115.119 15.832C115.119 16.1406 115.062 16.4277 114.949 16.6934C114.836 16.9551 114.668 17.1836 114.445 17.3789C114.227 17.5742 113.957 17.7266 113.637 17.8359C113.32 17.9453 112.957 18 112.547 18H109.74V11.6602H111.158V16.8809H112.547C112.828 16.8809 113.053 16.832 113.221 16.7344C113.389 16.6367 113.51 16.5098 113.584 16.3535C113.662 16.1973 113.701 16.0312 113.701 15.8555C113.701 15.6758 113.662 15.5059 113.584 15.3457C113.51 15.1855 113.389 15.0547 113.221 14.9531C113.053 14.8516 112.828 14.8008 112.547 14.8008H110.678V13.6758ZM117.615 11.6602V18H116.203V11.6602H117.615Z"
      fill="white"
    />
    <path d="M135.695 13.2129V14.3438H127.721V13.2129H135.695Z" fill="white" />
    <path
      d="M149.705 8.88281H150.848C150.848 9.23047 150.799 9.51758 150.701 9.74414C150.607 9.9668 150.467 10.1504 150.279 10.2949C150.096 10.4355 149.867 10.5488 149.594 10.6348C149.324 10.7207 149.012 10.7988 148.656 10.8691C148.328 10.9395 148.031 11.0508 147.766 11.2031C147.504 11.3516 147.283 11.5605 147.104 11.8301C146.928 12.0957 146.801 12.4375 146.723 12.8555C146.645 13.2734 146.621 13.7832 146.652 14.3848V14.7832L145.533 14.8828V14.4844C145.533 13.7383 145.602 13.0879 145.738 12.5332C145.875 11.9785 146.068 11.5117 146.318 11.1328C146.572 10.75 146.873 10.4453 147.221 10.2188C147.572 9.99219 147.963 9.83594 148.393 9.75C148.686 9.6875 148.93 9.625 149.125 9.5625C149.32 9.49609 149.465 9.41211 149.559 9.31055C149.656 9.20508 149.705 9.0625 149.705 8.88281ZM148.715 12.0176C149.137 12.0176 149.512 12.0918 149.84 12.2402C150.168 12.3848 150.445 12.5879 150.672 12.8496C150.898 13.1113 151.07 13.4199 151.188 13.7754C151.309 14.1309 151.369 14.5176 151.369 14.9355V15.0645C151.369 15.502 151.305 15.9062 151.176 16.2773C151.047 16.6484 150.857 16.9727 150.607 17.25C150.357 17.5234 150.051 17.7383 149.688 17.8945C149.328 18.0469 148.916 18.123 148.451 18.123C147.99 18.123 147.578 18.043 147.215 17.8828C146.852 17.7227 146.545 17.5 146.295 17.2148C146.045 16.9258 145.855 16.5879 145.727 16.2012C145.598 15.8145 145.533 15.3926 145.533 14.9355V14.8066C145.529 14.7246 145.551 14.6445 145.598 14.5664C145.648 14.4883 145.709 14.4043 145.779 14.3145C145.85 14.2246 145.912 14.1211 145.967 14.0039C146.162 13.6094 146.393 13.2637 146.658 12.9668C146.924 12.6699 147.227 12.4375 147.566 12.2695C147.91 12.1016 148.293 12.0176 148.715 12.0176ZM148.439 13.1367C148.088 13.1367 147.801 13.2207 147.578 13.3887C147.359 13.5527 147.197 13.7715 147.092 14.0449C146.99 14.3184 146.939 14.6152 146.939 14.9355V15.0645C146.939 15.3262 146.969 15.5742 147.027 15.8086C147.086 16.043 147.174 16.25 147.291 16.4297C147.412 16.6055 147.568 16.7441 147.76 16.8457C147.955 16.9473 148.186 16.998 148.451 16.998C148.721 16.998 148.949 16.9473 149.137 16.8457C149.328 16.7441 149.482 16.6055 149.6 16.4297C149.721 16.25 149.809 16.043 149.863 15.8086C149.922 15.5742 149.951 15.3262 149.951 15.0645V14.9355C149.951 14.6934 149.922 14.4648 149.863 14.25C149.809 14.0352 149.721 13.8457 149.6 13.6816C149.479 13.5137 149.322 13.3809 149.131 13.2832C148.939 13.1855 148.709 13.1367 148.439 13.1367ZM155.271 18.1172C154.803 18.1172 154.379 18.041 154 17.8887C153.625 17.7324 153.305 17.5156 153.039 17.2383C152.777 16.9609 152.576 16.6348 152.436 16.2598C152.295 15.8848 152.225 15.4805 152.225 15.0469V14.8125C152.225 14.3164 152.297 13.8672 152.441 13.4648C152.586 13.0625 152.787 12.7188 153.045 12.4336C153.303 12.1445 153.607 11.9238 153.959 11.7715C154.311 11.6191 154.691 11.543 155.102 11.543C155.555 11.543 155.951 11.6191 156.291 11.7715C156.631 11.9238 156.912 12.1387 157.135 12.416C157.361 12.6895 157.529 13.0156 157.639 13.3945C157.752 13.7734 157.809 14.1914 157.809 14.6484V15.252H152.91V14.2383H156.414V14.127C156.406 13.873 156.355 13.6348 156.262 13.4121C156.172 13.1895 156.033 13.0098 155.846 12.873C155.658 12.7363 155.408 12.668 155.096 12.668C154.861 12.668 154.652 12.7188 154.469 12.8203C154.289 12.918 154.139 13.0605 154.018 13.248C153.896 13.4355 153.803 13.6621 153.736 13.9277C153.674 14.1895 153.643 14.4844 153.643 14.8125V15.0469C153.643 15.3242 153.68 15.582 153.754 15.8203C153.832 16.0547 153.945 16.2598 154.094 16.4355C154.242 16.6113 154.422 16.75 154.633 16.8516C154.844 16.9492 155.084 16.998 155.354 16.998C155.693 16.998 155.996 16.9297 156.262 16.793C156.527 16.6562 156.758 16.4629 156.953 16.2129L157.697 16.9336C157.561 17.1328 157.383 17.3242 157.164 17.5078C156.945 17.6875 156.678 17.834 156.361 17.9473C156.049 18.0605 155.686 18.1172 155.271 18.1172ZM161.535 14.9707H160.316V14.2559H161.301C161.551 14.2559 161.75 14.2227 161.898 14.1562C162.051 14.0898 162.158 13.998 162.221 13.8809C162.287 13.7598 162.32 13.6191 162.32 13.459C162.32 13.3184 162.287 13.1855 162.221 13.0605C162.158 12.9316 162.051 12.8262 161.898 12.7441C161.746 12.6621 161.539 12.6211 161.277 12.6211C161.062 12.6211 160.869 12.6562 160.697 12.7266C160.529 12.7969 160.396 12.8945 160.299 13.0195C160.201 13.1445 160.152 13.2891 160.152 13.4531H158.74C158.74 13.0586 158.852 12.7188 159.074 12.4336C159.301 12.1484 159.604 11.9297 159.982 11.7773C160.361 11.625 160.777 11.5488 161.23 11.5488C161.617 11.5488 161.965 11.5898 162.273 11.6719C162.582 11.75 162.844 11.8672 163.059 12.0234C163.277 12.1758 163.443 12.3672 163.557 12.5977C163.674 12.8242 163.732 13.0879 163.732 13.3887C163.732 13.6035 163.682 13.8066 163.58 13.998C163.479 14.1895 163.332 14.3594 163.141 14.5078C162.949 14.6523 162.717 14.7656 162.443 14.8477C162.174 14.9297 161.871 14.9707 161.535 14.9707ZM160.316 14.5605H161.535C161.91 14.5605 162.242 14.5977 162.531 14.6719C162.82 14.7422 163.062 14.8477 163.258 14.9883C163.453 15.1289 163.6 15.3027 163.697 15.5098C163.799 15.7129 163.85 15.9473 163.85 16.2129C163.85 16.5098 163.785 16.7773 163.656 17.0156C163.531 17.25 163.352 17.4492 163.117 17.6133C162.887 17.7773 162.611 17.9023 162.291 17.9883C161.971 18.0742 161.617 18.1172 161.23 18.1172C160.809 18.1172 160.398 18.0469 160 17.9062C159.605 17.7656 159.279 17.5488 159.021 17.2559C158.768 16.959 158.641 16.582 158.641 16.125H160.053C160.053 16.2852 160.102 16.4355 160.199 16.5762C160.297 16.7168 160.438 16.832 160.621 16.9219C160.805 17.0078 161.025 17.0508 161.283 17.0508C161.549 17.0508 161.766 17.0098 161.934 16.9277C162.102 16.8418 162.227 16.7305 162.309 16.5938C162.391 16.4531 162.432 16.3047 162.432 16.1484C162.432 15.9375 162.391 15.7676 162.309 15.6387C162.227 15.5098 162.102 15.416 161.934 15.3574C161.766 15.2949 161.555 15.2637 161.301 15.2637H160.316V14.5605ZM172.293 11.6602V12.7852H169.164V11.6602H172.293ZM169.498 11.6602V18H168.086V11.6602H169.498ZM173.4 11.6602V18H171.982V11.6602H173.4ZM176.312 12.8789V20.4375H174.9V11.6602H176.201L176.312 12.8789ZM180.443 14.7715V14.8945C180.443 15.3555 180.389 15.7832 180.279 16.1777C180.174 16.5684 180.016 16.9102 179.805 17.2031C179.598 17.4922 179.342 17.7168 179.037 17.877C178.732 18.0371 178.381 18.1172 177.982 18.1172C177.588 18.1172 177.242 18.0449 176.945 17.9004C176.652 17.752 176.404 17.543 176.201 17.2734C175.998 17.0039 175.834 16.6875 175.709 16.3242C175.588 15.957 175.502 15.5547 175.451 15.1172V14.6426C175.502 14.1777 175.588 13.7559 175.709 13.377C175.834 12.998 175.998 12.6719 176.201 12.3984C176.404 12.125 176.652 11.9141 176.945 11.7656C177.238 11.6172 177.58 11.543 177.971 11.543C178.369 11.543 178.723 11.6211 179.031 11.7773C179.34 11.9297 179.6 12.1484 179.811 12.4336C180.021 12.7148 180.18 13.0547 180.285 13.4531C180.391 13.8477 180.443 14.2871 180.443 14.7715ZM179.031 14.8945V14.7715C179.031 14.4785 179.004 14.207 178.949 13.957C178.895 13.7031 178.809 13.4805 178.691 13.2891C178.574 13.0977 178.424 12.9492 178.24 12.8438C178.061 12.7344 177.844 12.6797 177.59 12.6797C177.34 12.6797 177.125 12.7227 176.945 12.8086C176.766 12.8906 176.615 13.0059 176.494 13.1543C176.373 13.3027 176.279 13.4766 176.213 13.6758C176.146 13.8711 176.1 14.084 176.072 14.3145V15.4512C176.119 15.7324 176.199 15.9902 176.312 16.2246C176.426 16.459 176.586 16.6465 176.793 16.7871C177.004 16.9238 177.273 16.9922 177.602 16.9922C177.855 16.9922 178.072 16.9375 178.252 16.8281C178.432 16.7188 178.578 16.5684 178.691 16.377C178.809 16.1816 178.895 15.957 178.949 15.7031C179.004 15.4492 179.031 15.1797 179.031 14.8945ZM181.375 14.9004V14.7656C181.375 14.3086 181.441 13.8848 181.574 13.4941C181.707 13.0996 181.898 12.7578 182.148 12.4688C182.402 12.1758 182.711 11.9492 183.074 11.7891C183.441 11.625 183.855 11.543 184.316 11.543C184.781 11.543 185.195 11.625 185.559 11.7891C185.926 11.9492 186.236 12.1758 186.49 12.4688C186.744 12.7578 186.938 13.0996 187.07 13.4941C187.203 13.8848 187.27 14.3086 187.27 14.7656V14.9004C187.27 15.3574 187.203 15.7812 187.07 16.1719C186.938 16.5625 186.744 16.9043 186.49 17.1973C186.236 17.4863 185.928 17.7129 185.564 17.877C185.201 18.0371 184.789 18.1172 184.328 18.1172C183.863 18.1172 183.447 18.0371 183.08 17.877C182.717 17.7129 182.408 17.4863 182.154 17.1973C181.9 16.9043 181.707 16.5625 181.574 16.1719C181.441 15.7812 181.375 15.3574 181.375 14.9004ZM182.787 14.7656V14.9004C182.787 15.1855 182.816 15.4551 182.875 15.709C182.934 15.9629 183.025 16.1855 183.15 16.377C183.275 16.5684 183.436 16.7188 183.631 16.8281C183.826 16.9375 184.059 16.9922 184.328 16.9922C184.59 16.9922 184.816 16.9375 185.008 16.8281C185.203 16.7188 185.363 16.5684 185.488 16.377C185.613 16.1855 185.705 15.9629 185.764 15.709C185.826 15.4551 185.857 15.1855 185.857 14.9004V14.7656C185.857 14.4844 185.826 14.2188 185.764 13.9688C185.705 13.7148 185.611 13.4902 185.482 13.2949C185.357 13.0996 185.197 12.9473 185.002 12.8379C184.811 12.7246 184.582 12.668 184.316 12.668C184.051 12.668 183.82 12.7246 183.625 12.8379C183.434 12.9473 183.275 13.0996 183.15 13.2949C183.025 13.4902 182.934 13.7148 182.875 13.9688C182.816 14.2188 182.787 14.4844 182.787 14.7656ZM192.432 8.88281H193.574C193.574 9.23047 193.525 9.51758 193.428 9.74414C193.334 9.9668 193.193 10.1504 193.006 10.2949C192.822 10.4355 192.594 10.5488 192.32 10.6348C192.051 10.7207 191.738 10.7988 191.383 10.8691C191.055 10.9395 190.758 11.0508 190.492 11.2031C190.23 11.3516 190.01 11.5605 189.83 11.8301C189.654 12.0957 189.527 12.4375 189.449 12.8555C189.371 13.2734 189.348 13.7832 189.379 14.3848V14.7832L188.26 14.8828V14.4844C188.26 13.7383 188.328 13.0879 188.465 12.5332C188.602 11.9785 188.795 11.5117 189.045 11.1328C189.299 10.75 189.6 10.4453 189.947 10.2188C190.299 9.99219 190.689 9.83594 191.119 9.75C191.412 9.6875 191.656 9.625 191.852 9.5625C192.047 9.49609 192.191 9.41211 192.285 9.31055C192.383 9.20508 192.432 9.0625 192.432 8.88281ZM191.441 12.0176C191.863 12.0176 192.238 12.0918 192.566 12.2402C192.895 12.3848 193.172 12.5879 193.398 12.8496C193.625 13.1113 193.797 13.4199 193.914 13.7754C194.035 14.1309 194.096 14.5176 194.096 14.9355V15.0645C194.096 15.502 194.031 15.9062 193.902 16.2773C193.773 16.6484 193.584 16.9727 193.334 17.25C193.084 17.5234 192.777 17.7383 192.414 17.8945C192.055 18.0469 191.643 18.123 191.178 18.123C190.717 18.123 190.305 18.043 189.941 17.8828C189.578 17.7227 189.271 17.5 189.021 17.2148C188.771 16.9258 188.582 16.5879 188.453 16.2012C188.324 15.8145 188.26 15.3926 188.26 14.9355V14.8066C188.256 14.7246 188.277 14.6445 188.324 14.5664C188.375 14.4883 188.436 14.4043 188.506 14.3145C188.576 14.2246 188.639 14.1211 188.693 14.0039C188.889 13.6094 189.119 13.2637 189.385 12.9668C189.65 12.6699 189.953 12.4375 190.293 12.2695C190.637 12.1016 191.02 12.0176 191.441 12.0176ZM191.166 13.1367C190.814 13.1367 190.527 13.2207 190.305 13.3887C190.086 13.5527 189.924 13.7715 189.818 14.0449C189.717 14.3184 189.666 14.6152 189.666 14.9355V15.0645C189.666 15.3262 189.695 15.5742 189.754 15.8086C189.812 16.043 189.9 16.25 190.018 16.4297C190.139 16.6055 190.295 16.7441 190.486 16.8457C190.682 16.9473 190.912 16.998 191.178 16.998C191.447 16.998 191.676 16.9473 191.863 16.8457C192.055 16.7441 192.209 16.6055 192.326 16.4297C192.447 16.25 192.535 16.043 192.59 15.8086C192.648 15.5742 192.678 15.3262 192.678 15.0645V14.9355C192.678 14.6934 192.648 14.4648 192.59 14.25C192.535 14.0352 192.447 13.8457 192.326 13.6816C192.205 13.5137 192.049 13.3809 191.857 13.2832C191.666 13.1855 191.436 13.1367 191.166 13.1367ZM199.463 11.6602V12.7852H196.369V11.6602H199.463ZM200.57 11.6602V18H199.158V11.6602H200.57ZM196.023 11.6602H197.418L197.248 14.7949C197.225 15.2598 197.178 15.6699 197.107 16.0254C197.041 16.377 196.951 16.6797 196.838 16.9336C196.725 17.1836 196.586 17.3867 196.422 17.543C196.258 17.6992 196.066 17.8145 195.848 17.8887C195.629 17.9629 195.383 18 195.109 18H194.67L194.664 16.8398L194.887 16.8223C195.031 16.8105 195.156 16.7734 195.262 16.7109C195.367 16.6445 195.457 16.5508 195.531 16.4297C195.609 16.3086 195.672 16.1523 195.719 15.9609C195.77 15.7695 195.809 15.543 195.836 15.2812C195.867 15.0195 195.891 14.7148 195.906 14.3672L196.023 11.6602ZM204.865 18.1172C204.396 18.1172 203.973 18.041 203.594 17.8887C203.219 17.7324 202.898 17.5156 202.633 17.2383C202.371 16.9609 202.17 16.6348 202.029 16.2598C201.889 15.8848 201.818 15.4805 201.818 15.0469V14.8125C201.818 14.3164 201.891 13.8672 202.035 13.4648C202.18 13.0625 202.381 12.7188 202.639 12.4336C202.896 12.1445 203.201 11.9238 203.553 11.7715C203.904 11.6191 204.285 11.543 204.695 11.543C205.148 11.543 205.545 11.6191 205.885 11.7715C206.225 11.9238 206.506 12.1387 206.729 12.416C206.955 12.6895 207.123 13.0156 207.232 13.3945C207.346 13.7734 207.402 14.1914 207.402 14.6484V15.252H202.504V14.2383H206.008V14.127C206 13.873 205.949 13.6348 205.855 13.4121C205.766 13.1895 205.627 13.0098 205.439 12.873C205.252 12.7363 205.002 12.668 204.689 12.668C204.455 12.668 204.246 12.7188 204.062 12.8203C203.883 12.918 203.732 13.0605 203.611 13.248C203.49 13.4355 203.396 13.6621 203.33 13.9277C203.268 14.1895 203.236 14.4844 203.236 14.8125V15.0469C203.236 15.3242 203.273 15.582 203.348 15.8203C203.426 16.0547 203.539 16.2598 203.688 16.4355C203.836 16.6113 204.016 16.75 204.227 16.8516C204.438 16.9492 204.678 16.998 204.947 16.998C205.287 16.998 205.59 16.9297 205.855 16.793C206.121 16.6562 206.352 16.4629 206.547 16.2129L207.291 16.9336C207.154 17.1328 206.977 17.3242 206.758 17.5078C206.539 17.6875 206.271 17.834 205.955 17.9473C205.643 18.0605 205.279 18.1172 204.865 18.1172ZM212.271 16.2891L214.158 11.6602H215.383L212.752 18H211.791L209.166 11.6602H210.391L212.271 16.2891ZM210.027 11.6602V18H208.615V11.6602H210.027ZM214.516 18V11.6602H215.934V18H214.516Z"
      fill="url(#paint1_linear_26007_26957)"
    />
    <path
      d="M241.152 12.953C241.023 12.6979 240.866 12.4515 240.683 12.2503C240.555 12.1039 240.417 11.9666 240.298 11.8294C240.042 11.5549 239.74 11.3435 239.43 11.141C238.718 10.6626 237.927 10.4102 237.074 10.3113C236.556 10.261 236.039 10.2832 235.533 10.4053C235.433 10.4315 235.343 10.4669 235.234 10.484C235.324 10.4123 235.414 10.3407 235.495 10.278C235.811 10.0543 236.144 9.88522 236.506 9.76175C237.464 9.40824 238.433 9.29968 239.432 9.45438C240.222 9.57986 240.959 9.86806 241.634 10.2917C241.717 10.3378 241.79 10.3929 241.854 10.4389C241.908 10.4757 241.945 10.5123 242.017 10.513C242.036 10.5132 242.054 10.5315 242.063 10.5406C242.182 10.6415 242.319 10.7426 242.447 10.8526C242.456 10.8437 242.474 10.8257 242.483 10.8167C242.51 10.7716 242.546 10.7538 242.609 10.7635C242.664 10.764 242.7 10.7825 242.737 10.8192C242.792 10.8741 242.856 10.9382 242.911 10.9931C242.966 11.0481 243.002 11.1028 243.021 11.1755C243.04 11.2301 243.023 11.3025 243.059 11.3573C243.069 11.3664 243.051 11.3844 243.042 11.3934C243.105 11.4212 243.124 11.4939 243.07 11.5659C243.143 11.5304 243.143 11.5848 243.18 11.6214C243.226 11.6853 243.135 11.6844 243.126 11.7297C243.145 11.7299 243.154 11.7209 243.172 11.7211C243.208 11.7033 243.226 11.7035 243.254 11.7491C243.281 11.7947 243.272 11.8218 243.236 11.8577C243.227 11.8667 243.219 11.8938 243.21 11.9028L243.219 11.9119C243.228 11.903 243.246 11.9031 243.255 11.8942C243.291 11.8582 243.327 11.8767 243.346 11.9132C243.373 11.9588 243.374 11.9769 243.329 12.0037C243.32 12.0127 243.311 12.0216 243.302 12.0306C243.293 12.0396 243.293 12.0577 243.293 12.0577C243.302 12.0669 243.311 12.0579 243.32 12.0671C243.32 12.0671 243.329 12.0581 243.347 12.0583C243.437 12.0047 243.437 12.0047 243.493 12.1141C243.466 12.141 243.43 12.1588 243.403 12.1858L243.412 12.1949C243.448 12.1771 243.484 12.1593 243.52 12.1415C243.539 12.178 243.566 12.2055 243.576 12.2328C243.576 12.2509 243.531 12.2777 243.504 12.3046C243.504 12.3046 243.513 12.3138 243.504 12.3227C243.522 12.3229 243.54 12.305 243.558 12.3051C243.585 12.2963 243.603 12.2784 243.621 12.2604C243.649 12.2879 243.667 12.3243 243.695 12.3518C243.668 12.3787 243.632 12.3965 243.605 12.4235C243.632 12.4509 243.632 12.4509 243.749 12.3704C243.777 12.3979 243.795 12.4344 243.823 12.4618C243.796 12.4888 243.769 12.5157 243.733 12.5335C243.742 12.5427 243.742 12.5427 243.751 12.5518C243.796 12.525 243.823 12.4981 243.868 12.4713C243.896 12.4988 243.905 12.5261 243.932 12.5536C243.905 12.5805 243.887 12.5985 243.869 12.6164C243.869 12.6164 243.879 12.6256 243.87 12.6346C243.888 12.6347 243.906 12.6349 243.915 12.6259C243.996 12.5814 243.996 12.5814 244.06 12.6636C244.051 12.6726 244.033 12.6906 244.034 12.7087C244.034 12.7087 244.034 12.7087 244.043 12.7178C244.061 12.6999 244.079 12.7001 244.097 12.6821C244.142 12.6553 244.206 12.6831 244.215 12.7286C244.215 12.7467 244.206 12.7557 244.197 12.7828C244.197 12.7828 244.197 12.7828 244.207 12.792C244.252 12.7471 244.288 12.7655 244.316 12.8112C244.334 12.8295 244.37 12.848 244.398 12.8573C244.425 12.8666 244.452 12.8759 244.489 12.8763C244.561 12.877 244.625 12.9048 244.662 12.9777C244.671 12.9869 244.68 12.996 244.689 13.0052C244.735 13.0147 244.744 13.042 244.735 13.0872C244.817 13.1152 244.872 13.1883 244.855 13.2425C244.9 13.2339 244.937 13.2524 244.919 13.3066L244.928 13.3158C244.964 13.3343 244.983 13.3526 244.956 13.3977C245.001 13.4072 245.038 13.4257 245.02 13.4799C245.084 13.4896 245.093 13.5169 245.076 13.5711C245.121 13.5806 245.148 13.5899 245.149 13.6444C245.149 13.6444 245.149 13.6625 245.158 13.6535C245.203 13.663 245.204 13.6993 245.204 13.7356C245.259 13.7542 245.277 13.7725 245.259 13.8268C245.323 13.8365 245.341 13.8548 245.324 13.909C245.378 13.9277 245.443 14.0462 245.434 14.0914C245.443 14.1006 245.462 14.1008 245.462 14.1008C245.489 14.1464 245.517 14.2101 245.545 14.2557C245.563 14.2922 245.591 14.3196 245.609 14.3561C245.618 14.3834 245.628 14.4107 245.646 14.429C245.655 14.4381 245.674 14.4564 245.683 14.4837C245.702 14.5383 245.72 14.5929 245.748 14.6385C245.766 14.675 245.794 14.7206 245.812 14.757C245.84 14.8026 245.85 14.8481 245.877 14.8937C245.896 14.9483 245.933 15.003 245.951 15.0576C245.998 15.1759 246.053 15.2853 246.091 15.3945C246.119 15.4945 246.156 15.6036 246.193 15.6947C246.193 15.7128 246.203 15.722 246.203 15.7401C246.185 15.8125 246.213 15.8762 246.268 15.9312C246.296 15.9586 246.314 15.9951 246.333 16.0315C246.36 16.0771 246.361 16.1316 246.316 16.1765C246.289 16.2034 246.289 16.2397 246.335 16.2492C246.416 16.2772 246.463 16.3592 246.481 16.432C246.491 16.4593 246.455 16.4952 246.437 16.5313C246.428 16.5584 246.419 16.5674 246.401 16.5853C246.429 16.5947 246.438 16.6038 246.465 16.6132C246.583 16.6415 246.657 16.751 246.622 16.8595C246.622 16.8776 246.604 16.8956 246.595 16.9046C246.541 16.9403 246.541 16.9766 246.596 16.9953C246.65 17.0139 246.687 17.0506 246.724 17.1053C246.751 17.1509 246.743 17.1962 246.707 17.2502C246.662 17.3133 246.662 17.3314 246.726 17.3592C246.826 17.4237 246.854 17.4874 246.828 17.6232C246.802 17.7046 246.776 17.7859 246.749 17.8673C246.732 17.9215 246.686 17.9301 246.632 17.9115C246.641 17.9388 246.65 17.9661 246.66 17.9934C246.669 18.0388 246.679 18.0842 246.661 18.1203C246.599 18.2739 246.537 18.4274 246.475 18.581C246.351 18.8881 246.3 19.2141 246.248 19.54C246.231 19.6668 246.186 19.6754 246.077 19.62C245.986 19.5647 245.885 19.5003 245.794 19.445C245.776 19.4267 245.758 19.4265 245.721 19.4261C245.549 19.4154 245.386 19.4138 245.222 19.3941C245.122 19.3841 245.022 19.3378 244.922 19.2915C244.64 19.189 244.448 18.9786 244.282 18.7231C244.153 18.5224 244.096 18.2861 244.103 18.0413C244.102 17.8962 244.155 17.7516 244.171 17.6067C244.188 17.4799 244.232 17.3625 244.313 17.2635C244.385 17.1735 244.402 17.083 244.437 16.9745C244.473 16.866 244.453 16.757 244.443 16.6572C244.432 16.4667 244.34 16.3025 244.194 16.1742C244.112 16.1099 244.02 16.0365 243.938 15.9722C243.911 15.9448 243.892 15.9265 243.892 15.8902C243.891 15.8358 243.882 15.7903 243.89 15.7451C243.933 15.4825 243.868 15.2552 243.748 15.0273C243.692 14.918 243.619 14.8266 243.536 14.7261C243.426 14.598 243.289 14.5333 243.135 14.4864C243.062 14.4676 243.062 14.4676 243.07 14.3861C243.087 14.2774 243.105 14.1688 243.103 14.0599C243.101 13.8241 242.999 13.6146 242.835 13.4498C242.78 13.3949 242.707 13.3579 242.634 13.3209C242.406 13.219 242.17 13.1442 241.907 13.2051C241.735 13.2488 241.582 13.3108 241.447 13.4274C241.375 13.4811 241.33 13.4716 241.275 13.4167C241.192 13.298 241.109 13.1793 241.09 13.034C241.098 13.0069 241.098 12.9706 241.152 12.953ZM245.95 18.6848C245.977 18.6397 246.039 18.5587 246.084 18.4775C246.2 18.27 246.216 18.0344 246.159 17.7981C246.131 17.68 246.084 17.5616 245.993 17.4882C245.801 17.3141 245.591 17.2304 245.337 17.228C245.111 17.2349 244.912 17.3055 244.741 17.4399C244.489 17.6551 244.374 17.9351 244.395 18.2618C244.396 18.3343 244.415 18.407 244.452 18.4799C244.572 18.7078 244.755 18.8728 245 18.9386C245.337 19.0416 245.644 18.9539 245.95 18.6848Z"
      fill="#F41795"
    />
    <path
      d="M266.465 9.46875H267.777L270.244 16.0488L272.705 9.46875H274.018L270.76 18H269.717L266.465 9.46875ZM265.867 9.46875H267.115L267.332 15.1641V18H265.867V9.46875ZM273.367 9.46875H274.621V18H273.15V15.1641L273.367 9.46875ZM279.021 18.1172C278.553 18.1172 278.129 18.041 277.75 17.8887C277.375 17.7324 277.055 17.5156 276.789 17.2383C276.527 16.9609 276.326 16.6348 276.186 16.2598C276.045 15.8848 275.975 15.4805 275.975 15.0469V14.8125C275.975 14.3164 276.047 13.8672 276.191 13.4648C276.336 13.0625 276.537 12.7188 276.795 12.4336C277.053 12.1445 277.357 11.9238 277.709 11.7715C278.061 11.6191 278.441 11.543 278.852 11.543C279.305 11.543 279.701 11.6191 280.041 11.7715C280.381 11.9238 280.662 12.1387 280.885 12.416C281.111 12.6895 281.279 13.0156 281.389 13.3945C281.502 13.7734 281.559 14.1914 281.559 14.6484V15.252H276.66V14.2383H280.164V14.127C280.156 13.873 280.105 13.6348 280.012 13.4121C279.922 13.1895 279.783 13.0098 279.596 12.873C279.408 12.7363 279.158 12.668 278.846 12.668C278.611 12.668 278.402 12.7188 278.219 12.8203C278.039 12.918 277.889 13.0605 277.768 13.248C277.646 13.4355 277.553 13.6621 277.486 13.9277C277.424 14.1895 277.393 14.4844 277.393 14.8125V15.0469C277.393 15.3242 277.43 15.582 277.504 15.8203C277.582 16.0547 277.695 16.2598 277.844 16.4355C277.992 16.6113 278.172 16.75 278.383 16.8516C278.594 16.9492 278.834 16.998 279.104 16.998C279.443 16.998 279.746 16.9297 280.012 16.793C280.277 16.6562 280.508 16.4629 280.703 16.2129L281.447 16.9336C281.311 17.1328 281.133 17.3242 280.914 17.5078C280.695 17.6875 280.428 17.834 280.111 17.9473C279.799 18.0605 279.436 18.1172 279.021 18.1172ZM286.99 14.3086V15.4219H283.709V14.3086H286.99ZM284.119 11.6602V18H282.707V11.6602H284.119ZM288.01 11.6602V18H286.598V11.6602H288.01ZM290.852 14.9004H292.316L290.518 18H289.059L290.852 14.9004ZM291.883 11.6602H294.602V18H293.195V12.7734H291.883C291.617 12.7734 291.398 12.8203 291.227 12.9141C291.055 13.0039 290.928 13.123 290.846 13.2715C290.764 13.416 290.723 13.5645 290.723 13.7168C290.723 13.8691 290.76 14.0156 290.834 14.1562C290.912 14.2969 291.031 14.4121 291.191 14.502C291.355 14.5918 291.561 14.6367 291.807 14.6367H293.67V15.668H291.807C291.416 15.668 291.066 15.6191 290.758 15.5215C290.449 15.4199 290.188 15.2812 289.973 15.1055C289.758 14.9258 289.594 14.7168 289.48 14.4785C289.367 14.2363 289.311 13.9727 289.311 13.6875C289.311 13.3945 289.369 13.125 289.486 12.8789C289.604 12.6328 289.771 12.418 289.99 12.2344C290.213 12.0508 290.482 11.9102 290.799 11.8125C291.119 11.7109 291.48 11.6602 291.883 11.6602ZM297.631 15.9375L300.121 11.6602H301.533V18H300.121V13.7168L297.631 18H296.219V11.6602H297.631V15.9375ZM299.746 9.22266H300.795C300.795 9.54688 300.717 9.83398 300.561 10.084C300.408 10.3301 300.189 10.5234 299.904 10.6641C299.623 10.8047 299.287 10.875 298.896 10.875C298.307 10.875 297.84 10.7227 297.496 10.418C297.156 10.1094 296.986 9.71094 296.986 9.22266H298.035C298.035 9.44141 298.1 9.63477 298.229 9.80273C298.361 9.9668 298.584 10.0488 298.896 10.0488C299.205 10.0488 299.424 9.9668 299.553 9.80273C299.682 9.63477 299.746 9.44141 299.746 9.22266ZM308.605 16.9922C308.836 16.9922 309.043 16.9473 309.227 16.8574C309.414 16.7637 309.564 16.6348 309.678 16.4707C309.795 16.3066 309.859 16.1172 309.871 15.9023H311.201C311.193 16.3125 311.072 16.6855 310.838 17.0215C310.604 17.3574 310.293 17.625 309.906 17.8242C309.52 18.0195 309.092 18.1172 308.623 18.1172C308.139 18.1172 307.717 18.0352 307.357 17.8711C306.998 17.7031 306.699 17.4727 306.461 17.1797C306.223 16.8867 306.043 16.5488 305.922 16.166C305.805 15.7832 305.746 15.373 305.746 14.9355V14.7305C305.746 14.293 305.805 13.8828 305.922 13.5C306.043 13.1133 306.223 12.7734 306.461 12.4805C306.699 12.1875 306.998 11.959 307.357 11.7949C307.717 11.627 308.137 11.543 308.617 11.543C309.125 11.543 309.57 11.6445 309.953 11.8477C310.336 12.0469 310.637 12.3262 310.855 12.6855C311.078 13.041 311.193 13.4551 311.201 13.9277H309.871C309.859 13.6934 309.801 13.4824 309.695 13.2949C309.594 13.1035 309.449 12.9512 309.262 12.8379C309.078 12.7246 308.857 12.668 308.6 12.668C308.314 12.668 308.078 12.7266 307.891 12.8438C307.703 12.957 307.557 13.1133 307.451 13.3125C307.346 13.5078 307.27 13.7285 307.223 13.9746C307.18 14.2168 307.158 14.4688 307.158 14.7305V14.9355C307.158 15.1973 307.18 15.4512 307.223 15.6973C307.266 15.9434 307.34 16.1641 307.445 16.3594C307.555 16.5508 307.703 16.7051 307.891 16.8223C308.078 16.9355 308.316 16.9922 308.605 16.9922ZM313.809 11.6602V18H312.396V11.6602H313.809ZM317.945 11.6602L315.092 15.4746H313.48L313.293 14.1973H314.471L316.182 11.6602H317.945ZM316.293 18L314.383 15.2344L315.496 14.4316L318.15 18H316.293ZM320.377 15.9375L322.867 11.6602H324.279V18H322.867V13.7168L320.377 18H318.965V11.6602H320.377V15.9375ZM330.104 14.3086V15.4219H326.822V14.3086H330.104ZM327.232 11.6602V18H325.82V11.6602H327.232ZM331.123 11.6602V18H329.711V11.6602H331.123ZM333.678 13.6758H335.547C336.094 13.6758 336.559 13.7676 336.941 13.9512C337.324 14.1348 337.615 14.3906 337.814 14.7188C338.018 15.043 338.119 15.4141 338.119 15.832C338.119 16.1406 338.062 16.4277 337.949 16.6934C337.836 16.9551 337.668 17.1836 337.445 17.3789C337.227 17.5742 336.957 17.7266 336.637 17.8359C336.32 17.9453 335.957 18 335.547 18H332.74V11.6602H334.158V16.8809H335.547C335.828 16.8809 336.053 16.832 336.221 16.7344C336.389 16.6367 336.51 16.5098 336.584 16.3535C336.662 16.1973 336.701 16.0312 336.701 15.8555C336.701 15.6758 336.662 15.5059 336.584 15.3457C336.51 15.1855 336.389 15.0547 336.221 14.9531C336.053 14.8516 335.828 14.8008 335.547 14.8008H333.678V13.6758ZM340.615 11.6602V18H339.203V11.6602H340.615Z"
      fill="white"
    />
    <path d="M358.695 13.2129V14.3438H350.721V13.2129H358.695Z" fill="white" />
    <path
      d="M372.705 8.88281H373.848C373.848 9.23047 373.799 9.51758 373.701 9.74414C373.607 9.9668 373.467 10.1504 373.279 10.2949C373.096 10.4355 372.867 10.5488 372.594 10.6348C372.324 10.7207 372.012 10.7988 371.656 10.8691C371.328 10.9395 371.031 11.0508 370.766 11.2031C370.504 11.3516 370.283 11.5605 370.104 11.8301C369.928 12.0957 369.801 12.4375 369.723 12.8555C369.645 13.2734 369.621 13.7832 369.652 14.3848V14.7832L368.533 14.8828V14.4844C368.533 13.7383 368.602 13.0879 368.738 12.5332C368.875 11.9785 369.068 11.5117 369.318 11.1328C369.572 10.75 369.873 10.4453 370.221 10.2188C370.572 9.99219 370.963 9.83594 371.393 9.75C371.686 9.6875 371.93 9.625 372.125 9.5625C372.32 9.49609 372.465 9.41211 372.559 9.31055C372.656 9.20508 372.705 9.0625 372.705 8.88281ZM371.715 12.0176C372.137 12.0176 372.512 12.0918 372.84 12.2402C373.168 12.3848 373.445 12.5879 373.672 12.8496C373.898 13.1113 374.07 13.4199 374.188 13.7754C374.309 14.1309 374.369 14.5176 374.369 14.9355V15.0645C374.369 15.502 374.305 15.9062 374.176 16.2773C374.047 16.6484 373.857 16.9727 373.607 17.25C373.357 17.5234 373.051 17.7383 372.688 17.8945C372.328 18.0469 371.916 18.123 371.451 18.123C370.99 18.123 370.578 18.043 370.215 17.8828C369.852 17.7227 369.545 17.5 369.295 17.2148C369.045 16.9258 368.855 16.5879 368.727 16.2012C368.598 15.8145 368.533 15.3926 368.533 14.9355V14.8066C368.529 14.7246 368.551 14.6445 368.598 14.5664C368.648 14.4883 368.709 14.4043 368.779 14.3145C368.85 14.2246 368.912 14.1211 368.967 14.0039C369.162 13.6094 369.393 13.2637 369.658 12.9668C369.924 12.6699 370.227 12.4375 370.566 12.2695C370.91 12.1016 371.293 12.0176 371.715 12.0176ZM371.439 13.1367C371.088 13.1367 370.801 13.2207 370.578 13.3887C370.359 13.5527 370.197 13.7715 370.092 14.0449C369.99 14.3184 369.939 14.6152 369.939 14.9355V15.0645C369.939 15.3262 369.969 15.5742 370.027 15.8086C370.086 16.043 370.174 16.25 370.291 16.4297C370.412 16.6055 370.568 16.7441 370.76 16.8457C370.955 16.9473 371.186 16.998 371.451 16.998C371.721 16.998 371.949 16.9473 372.137 16.8457C372.328 16.7441 372.482 16.6055 372.6 16.4297C372.721 16.25 372.809 16.043 372.863 15.8086C372.922 15.5742 372.951 15.3262 372.951 15.0645V14.9355C372.951 14.6934 372.922 14.4648 372.863 14.25C372.809 14.0352 372.721 13.8457 372.6 13.6816C372.479 13.5137 372.322 13.3809 372.131 13.2832C371.939 13.1855 371.709 13.1367 371.439 13.1367ZM378.271 18.1172C377.803 18.1172 377.379 18.041 377 17.8887C376.625 17.7324 376.305 17.5156 376.039 17.2383C375.777 16.9609 375.576 16.6348 375.436 16.2598C375.295 15.8848 375.225 15.4805 375.225 15.0469V14.8125C375.225 14.3164 375.297 13.8672 375.441 13.4648C375.586 13.0625 375.787 12.7188 376.045 12.4336C376.303 12.1445 376.607 11.9238 376.959 11.7715C377.311 11.6191 377.691 11.543 378.102 11.543C378.555 11.543 378.951 11.6191 379.291 11.7715C379.631 11.9238 379.912 12.1387 380.135 12.416C380.361 12.6895 380.529 13.0156 380.639 13.3945C380.752 13.7734 380.809 14.1914 380.809 14.6484V15.252H375.91V14.2383H379.414V14.127C379.406 13.873 379.355 13.6348 379.262 13.4121C379.172 13.1895 379.033 13.0098 378.846 12.873C378.658 12.7363 378.408 12.668 378.096 12.668C377.861 12.668 377.652 12.7188 377.469 12.8203C377.289 12.918 377.139 13.0605 377.018 13.248C376.896 13.4355 376.803 13.6621 376.736 13.9277C376.674 14.1895 376.643 14.4844 376.643 14.8125V15.0469C376.643 15.3242 376.68 15.582 376.754 15.8203C376.832 16.0547 376.945 16.2598 377.094 16.4355C377.242 16.6113 377.422 16.75 377.633 16.8516C377.844 16.9492 378.084 16.998 378.354 16.998C378.693 16.998 378.996 16.9297 379.262 16.793C379.527 16.6562 379.758 16.4629 379.953 16.2129L380.697 16.9336C380.561 17.1328 380.383 17.3242 380.164 17.5078C379.945 17.6875 379.678 17.834 379.361 17.9473C379.049 18.0605 378.686 18.1172 378.271 18.1172ZM384.535 14.9707H383.316V14.2559H384.301C384.551 14.2559 384.75 14.2227 384.898 14.1562C385.051 14.0898 385.158 13.998 385.221 13.8809C385.287 13.7598 385.32 13.6191 385.32 13.459C385.32 13.3184 385.287 13.1855 385.221 13.0605C385.158 12.9316 385.051 12.8262 384.898 12.7441C384.746 12.6621 384.539 12.6211 384.277 12.6211C384.062 12.6211 383.869 12.6562 383.697 12.7266C383.529 12.7969 383.396 12.8945 383.299 13.0195C383.201 13.1445 383.152 13.2891 383.152 13.4531H381.74C381.74 13.0586 381.852 12.7188 382.074 12.4336C382.301 12.1484 382.604 11.9297 382.982 11.7773C383.361 11.625 383.777 11.5488 384.23 11.5488C384.617 11.5488 384.965 11.5898 385.273 11.6719C385.582 11.75 385.844 11.8672 386.059 12.0234C386.277 12.1758 386.443 12.3672 386.557 12.5977C386.674 12.8242 386.732 13.0879 386.732 13.3887C386.732 13.6035 386.682 13.8066 386.58 13.998C386.479 14.1895 386.332 14.3594 386.141 14.5078C385.949 14.6523 385.717 14.7656 385.443 14.8477C385.174 14.9297 384.871 14.9707 384.535 14.9707ZM383.316 14.5605H384.535C384.91 14.5605 385.242 14.5977 385.531 14.6719C385.82 14.7422 386.062 14.8477 386.258 14.9883C386.453 15.1289 386.6 15.3027 386.697 15.5098C386.799 15.7129 386.85 15.9473 386.85 16.2129C386.85 16.5098 386.785 16.7773 386.656 17.0156C386.531 17.25 386.352 17.4492 386.117 17.6133C385.887 17.7773 385.611 17.9023 385.291 17.9883C384.971 18.0742 384.617 18.1172 384.23 18.1172C383.809 18.1172 383.398 18.0469 383 17.9062C382.605 17.7656 382.279 17.5488 382.021 17.2559C381.768 16.959 381.641 16.582 381.641 16.125H383.053C383.053 16.2852 383.102 16.4355 383.199 16.5762C383.297 16.7168 383.438 16.832 383.621 16.9219C383.805 17.0078 384.025 17.0508 384.283 17.0508C384.549 17.0508 384.766 17.0098 384.934 16.9277C385.102 16.8418 385.227 16.7305 385.309 16.5938C385.391 16.4531 385.432 16.3047 385.432 16.1484C385.432 15.9375 385.391 15.7676 385.309 15.6387C385.227 15.5098 385.102 15.416 384.934 15.3574C384.766 15.2949 384.555 15.2637 384.301 15.2637H383.316V14.5605ZM395.293 11.6602V12.7852H392.164V11.6602H395.293ZM392.498 11.6602V18H391.086V11.6602H392.498ZM396.4 11.6602V18H394.982V11.6602H396.4ZM399.312 12.8789V20.4375H397.9V11.6602H399.201L399.312 12.8789ZM403.443 14.7715V14.8945C403.443 15.3555 403.389 15.7832 403.279 16.1777C403.174 16.5684 403.016 16.9102 402.805 17.2031C402.598 17.4922 402.342 17.7168 402.037 17.877C401.732 18.0371 401.381 18.1172 400.982 18.1172C400.588 18.1172 400.242 18.0449 399.945 17.9004C399.652 17.752 399.404 17.543 399.201 17.2734C398.998 17.0039 398.834 16.6875 398.709 16.3242C398.588 15.957 398.502 15.5547 398.451 15.1172V14.6426C398.502 14.1777 398.588 13.7559 398.709 13.377C398.834 12.998 398.998 12.6719 399.201 12.3984C399.404 12.125 399.652 11.9141 399.945 11.7656C400.238 11.6172 400.58 11.543 400.971 11.543C401.369 11.543 401.723 11.6211 402.031 11.7773C402.34 11.9297 402.6 12.1484 402.811 12.4336C403.021 12.7148 403.18 13.0547 403.285 13.4531C403.391 13.8477 403.443 14.2871 403.443 14.7715ZM402.031 14.8945V14.7715C402.031 14.4785 402.004 14.207 401.949 13.957C401.895 13.7031 401.809 13.4805 401.691 13.2891C401.574 13.0977 401.424 12.9492 401.24 12.8438C401.061 12.7344 400.844 12.6797 400.59 12.6797C400.34 12.6797 400.125 12.7227 399.945 12.8086C399.766 12.8906 399.615 13.0059 399.494 13.1543C399.373 13.3027 399.279 13.4766 399.213 13.6758C399.146 13.8711 399.1 14.084 399.072 14.3145V15.4512C399.119 15.7324 399.199 15.9902 399.312 16.2246C399.426 16.459 399.586 16.6465 399.793 16.7871C400.004 16.9238 400.273 16.9922 400.602 16.9922C400.855 16.9922 401.072 16.9375 401.252 16.8281C401.432 16.7188 401.578 16.5684 401.691 16.377C401.809 16.1816 401.895 15.957 401.949 15.7031C402.004 15.4492 402.031 15.1797 402.031 14.8945ZM404.375 14.9004V14.7656C404.375 14.3086 404.441 13.8848 404.574 13.4941C404.707 13.0996 404.898 12.7578 405.148 12.4688C405.402 12.1758 405.711 11.9492 406.074 11.7891C406.441 11.625 406.855 11.543 407.316 11.543C407.781 11.543 408.195 11.625 408.559 11.7891C408.926 11.9492 409.236 12.1758 409.49 12.4688C409.744 12.7578 409.938 13.0996 410.07 13.4941C410.203 13.8848 410.27 14.3086 410.27 14.7656V14.9004C410.27 15.3574 410.203 15.7812 410.07 16.1719C409.938 16.5625 409.744 16.9043 409.49 17.1973C409.236 17.4863 408.928 17.7129 408.564 17.877C408.201 18.0371 407.789 18.1172 407.328 18.1172C406.863 18.1172 406.447 18.0371 406.08 17.877C405.717 17.7129 405.408 17.4863 405.154 17.1973C404.9 16.9043 404.707 16.5625 404.574 16.1719C404.441 15.7812 404.375 15.3574 404.375 14.9004ZM405.787 14.7656V14.9004C405.787 15.1855 405.816 15.4551 405.875 15.709C405.934 15.9629 406.025 16.1855 406.15 16.377C406.275 16.5684 406.436 16.7188 406.631 16.8281C406.826 16.9375 407.059 16.9922 407.328 16.9922C407.59 16.9922 407.816 16.9375 408.008 16.8281C408.203 16.7188 408.363 16.5684 408.488 16.377C408.613 16.1855 408.705 15.9629 408.764 15.709C408.826 15.4551 408.857 15.1855 408.857 14.9004V14.7656C408.857 14.4844 408.826 14.2188 408.764 13.9688C408.705 13.7148 408.611 13.4902 408.482 13.2949C408.357 13.0996 408.197 12.9473 408.002 12.8379C407.811 12.7246 407.582 12.668 407.316 12.668C407.051 12.668 406.82 12.7246 406.625 12.8379C406.434 12.9473 406.275 13.0996 406.15 13.2949C406.025 13.4902 405.934 13.7148 405.875 13.9688C405.816 14.2188 405.787 14.4844 405.787 14.7656ZM415.432 8.88281H416.574C416.574 9.23047 416.525 9.51758 416.428 9.74414C416.334 9.9668 416.193 10.1504 416.006 10.2949C415.822 10.4355 415.594 10.5488 415.32 10.6348C415.051 10.7207 414.738 10.7988 414.383 10.8691C414.055 10.9395 413.758 11.0508 413.492 11.2031C413.23 11.3516 413.01 11.5605 412.83 11.8301C412.654 12.0957 412.527 12.4375 412.449 12.8555C412.371 13.2734 412.348 13.7832 412.379 14.3848V14.7832L411.26 14.8828V14.4844C411.26 13.7383 411.328 13.0879 411.465 12.5332C411.602 11.9785 411.795 11.5117 412.045 11.1328C412.299 10.75 412.6 10.4453 412.947 10.2188C413.299 9.99219 413.689 9.83594 414.119 9.75C414.412 9.6875 414.656 9.625 414.852 9.5625C415.047 9.49609 415.191 9.41211 415.285 9.31055C415.383 9.20508 415.432 9.0625 415.432 8.88281ZM414.441 12.0176C414.863 12.0176 415.238 12.0918 415.566 12.2402C415.895 12.3848 416.172 12.5879 416.398 12.8496C416.625 13.1113 416.797 13.4199 416.914 13.7754C417.035 14.1309 417.096 14.5176 417.096 14.9355V15.0645C417.096 15.502 417.031 15.9062 416.902 16.2773C416.773 16.6484 416.584 16.9727 416.334 17.25C416.084 17.5234 415.777 17.7383 415.414 17.8945C415.055 18.0469 414.643 18.123 414.178 18.123C413.717 18.123 413.305 18.043 412.941 17.8828C412.578 17.7227 412.271 17.5 412.021 17.2148C411.771 16.9258 411.582 16.5879 411.453 16.2012C411.324 15.8145 411.26 15.3926 411.26 14.9355V14.8066C411.256 14.7246 411.277 14.6445 411.324 14.5664C411.375 14.4883 411.436 14.4043 411.506 14.3145C411.576 14.2246 411.639 14.1211 411.693 14.0039C411.889 13.6094 412.119 13.2637 412.385 12.9668C412.65 12.6699 412.953 12.4375 413.293 12.2695C413.637 12.1016 414.02 12.0176 414.441 12.0176ZM414.166 13.1367C413.814 13.1367 413.527 13.2207 413.305 13.3887C413.086 13.5527 412.924 13.7715 412.818 14.0449C412.717 14.3184 412.666 14.6152 412.666 14.9355V15.0645C412.666 15.3262 412.695 15.5742 412.754 15.8086C412.812 16.043 412.9 16.25 413.018 16.4297C413.139 16.6055 413.295 16.7441 413.486 16.8457C413.682 16.9473 413.912 16.998 414.178 16.998C414.447 16.998 414.676 16.9473 414.863 16.8457C415.055 16.7441 415.209 16.6055 415.326 16.4297C415.447 16.25 415.535 16.043 415.59 15.8086C415.648 15.5742 415.678 15.3262 415.678 15.0645V14.9355C415.678 14.6934 415.648 14.4648 415.59 14.25C415.535 14.0352 415.447 13.8457 415.326 13.6816C415.205 13.5137 415.049 13.3809 414.857 13.2832C414.666 13.1855 414.436 13.1367 414.166 13.1367ZM422.463 11.6602V12.7852H419.369V11.6602H422.463ZM423.57 11.6602V18H422.158V11.6602H423.57ZM419.023 11.6602H420.418L420.248 14.7949C420.225 15.2598 420.178 15.6699 420.107 16.0254C420.041 16.377 419.951 16.6797 419.838 16.9336C419.725 17.1836 419.586 17.3867 419.422 17.543C419.258 17.6992 419.066 17.8145 418.848 17.8887C418.629 17.9629 418.383 18 418.109 18H417.67L417.664 16.8398L417.887 16.8223C418.031 16.8105 418.156 16.7734 418.262 16.7109C418.367 16.6445 418.457 16.5508 418.531 16.4297C418.609 16.3086 418.672 16.1523 418.719 15.9609C418.77 15.7695 418.809 15.543 418.836 15.2812C418.867 15.0195 418.891 14.7148 418.906 14.3672L419.023 11.6602ZM427.865 18.1172C427.396 18.1172 426.973 18.041 426.594 17.8887C426.219 17.7324 425.898 17.5156 425.633 17.2383C425.371 16.9609 425.17 16.6348 425.029 16.2598C424.889 15.8848 424.818 15.4805 424.818 15.0469V14.8125C424.818 14.3164 424.891 13.8672 425.035 13.4648C425.18 13.0625 425.381 12.7188 425.639 12.4336C425.896 12.1445 426.201 11.9238 426.553 11.7715C426.904 11.6191 427.285 11.543 427.695 11.543C428.148 11.543 428.545 11.6191 428.885 11.7715C429.225 11.9238 429.506 12.1387 429.729 12.416C429.955 12.6895 430.123 13.0156 430.232 13.3945C430.346 13.7734 430.402 14.1914 430.402 14.6484V15.252H425.504V14.2383H429.008V14.127C429 13.873 428.949 13.6348 428.855 13.4121C428.766 13.1895 428.627 13.0098 428.439 12.873C428.252 12.7363 428.002 12.668 427.689 12.668C427.455 12.668 427.246 12.7188 427.062 12.8203C426.883 12.918 426.732 13.0605 426.611 13.248C426.49 13.4355 426.396 13.6621 426.33 13.9277C426.268 14.1895 426.236 14.4844 426.236 14.8125V15.0469C426.236 15.3242 426.273 15.582 426.348 15.8203C426.426 16.0547 426.539 16.2598 426.688 16.4355C426.836 16.6113 427.016 16.75 427.227 16.8516C427.438 16.9492 427.678 16.998 427.947 16.998C428.287 16.998 428.59 16.9297 428.855 16.793C429.121 16.6562 429.352 16.4629 429.547 16.2129L430.291 16.9336C430.154 17.1328 429.977 17.3242 429.758 17.5078C429.539 17.6875 429.271 17.834 428.955 17.9473C428.643 18.0605 428.279 18.1172 427.865 18.1172ZM435.271 16.2891L437.158 11.6602H438.383L435.752 18H434.791L432.166 11.6602H433.391L435.271 16.2891ZM433.027 11.6602V18H431.615V11.6602H433.027ZM437.516 18V11.6602H438.934V18H437.516Z"
      fill="url(#paint2_linear_26007_26957)"
    />
  </g>
  <defs>
    <linearGradient
      id="paint0_linear_26007_26957"
      x1="228"
      y1="0"
      x2="228"
      y2="28"
      gradientUnits="userSpaceOnUse"
    >
      <stop stop-color="#07051A" />
      <stop offset="1" stop-color="#020B34" />
    </linearGradient>
    <linearGradient
      id="paint1_linear_26007_26957"
      x1="145"
      y1="14"
      x2="216.775"
      y2="22.8316"
      gradientUnits="userSpaceOnUse"
    >
      <stop stop-color="#F7FF01" />
      <stop offset="1" stop-color="#F89251" />
    </linearGradient>
    <linearGradient
      id="paint2_linear_26007_26957"
      x1="368"
      y1="14"
      x2="439.775"
      y2="22.8316"
      gradientUnits="userSpaceOnUse"
    >
      <stop stop-color="#F7FF01" />
      <stop offset="1" stop-color="#F89251" />
    </linearGradient>
    <clipPath id="clip0_26007_26957">
      <rect width="456" height="28" fill="white" />
    </clipPath>
  </defs>
</svg>
